<svg width="132" height="36" viewBox="0 0 132 36" fill="none" xmlns="http://www.w3.org/2000/svg">
<g opacity="0.25" filter="url(#filter0_f)">
<path d="M65.9998 31.7558C99.9455 31.7558 127.464 30.3355 127.464 28.5835C127.464 26.8314 99.9455 25.4111 65.9998 25.4111C32.0541 25.4111 4.53564 26.8314 4.53564 28.5835C4.53564 30.3355 32.0541 31.7558 65.9998 31.7558Z" fill="url(#paint0_radial)"/>
</g>
<path d="M28.7644 26.2914L30.8502 24.2056H42.8813L44.3644 26.2914L48.7026 23.936H91.0851L93.163 26.2914L95.4312 24.0232H106.661L109.366 25.2287L111.578 21.5646L109.778 10.739L34.3557 11.2307L25.251 15.4975L24.5928 22.7067L28.7644 26.2914Z" fill="#192A32"/>
<path d="M42.0825 26.6382C45.1302 23.5906 45.1302 18.6494 42.0826 15.6018C39.0349 12.5541 34.0937 12.5541 31.0461 15.6018C27.9984 18.6494 27.9984 23.5906 31.0461 26.6382C34.0937 29.6859 39.0349 29.6859 42.0825 26.6382Z" fill="#30373E"/>
<path d="M41.5568 21.1285C41.5568 22.1171 41.2636 23.0834 40.7142 23.9052C40.1649 24.7271 39.3841 25.3674 38.4706 25.7454C37.5572 26.1233 36.5522 26.2218 35.5827 26.0284C34.6133 25.8349 33.723 25.3583 33.0246 24.6587C32.3261 23.9592 31.8509 23.0682 31.659 22.0984C31.4671 21.1287 31.5672 20.1238 31.9466 19.211C32.326 18.2981 32.9676 17.5183 33.7903 16.9703C34.613 16.4222 35.5798 16.1305 36.5683 16.1321C37.2241 16.1321 37.8734 16.2614 38.4792 16.5126C39.0849 16.7638 39.6352 17.1319 40.0986 17.596C40.5619 18.0601 40.9292 18.6109 41.1794 19.2171C41.4296 19.8232 41.5579 20.4728 41.5568 21.1285Z" fill="#94A6A5"/>
<path d="M41.3743 22.445L38.0433 21.5092C38.0785 21.3852 38.0971 21.2573 38.0989 21.1285C38.0965 20.9971 38.0779 20.8666 38.0433 20.7399L41.3743 19.804C41.3743 19.693 41.3108 19.574 41.2712 19.463L39.1378 20.0657L41.065 18.9792C41.0175 18.8694 40.9619 18.7634 40.8984 18.662L37.8926 20.3512C37.7613 20.1289 37.5757 19.9433 37.3533 19.812L39.0505 16.7903L38.7333 16.6237L37.6309 18.5351L38.2257 16.4017L37.8847 16.2906L36.9489 19.6295C36.825 19.5944 36.697 19.5757 36.5682 19.574C36.4368 19.5764 36.3063 19.595 36.1796 19.6295L35.2437 16.2906L34.9027 16.4017L35.5134 18.5351L34.4348 16.6L34.1175 16.7665L35.8068 19.7882C35.5859 19.9214 35.4008 20.1065 35.2675 20.3275L32.2459 18.6382C32.1824 18.7413 32.1349 18.8444 32.0793 18.9554L34.0144 20.0419L31.8811 19.4392C31.8811 19.5502 31.8017 19.6692 31.77 19.7802L35.1089 20.7161C35.0744 20.8428 35.0557 20.9733 35.0534 21.1047C35.0551 21.2335 35.0738 21.3615 35.1089 21.4854L31.77 22.4212C31.77 22.5402 31.8414 22.6512 31.8811 22.7702L34.0144 22.1674L32.0635 23.2936C32.119 23.3967 32.1666 23.5077 32.23 23.6108L35.2517 21.9136C35.3839 22.1375 35.5691 22.3254 35.791 22.4609L34.1017 25.4825L34.4189 25.6411L35.4975 23.7139L34.9027 25.8473L35.2437 25.9504L36.1796 22.6195C36.3063 22.654 36.4368 22.6726 36.5682 22.675C36.697 22.6733 36.825 22.6546 36.9489 22.6195L37.8847 25.9504L38.2257 25.8473L37.6309 23.7139L38.7175 25.6411L39.0347 25.4825L37.3375 22.4609C37.5594 22.3254 37.7446 22.1375 37.8768 21.9136L40.8984 23.6108C40.9601 23.5084 41.0157 23.4025 41.065 23.2936L39.1378 22.2071L41.2712 22.8098C41.3108 22.675 41.3426 22.564 41.3743 22.445Z" fill="#E2E3E5"/>
<path d="M108.56 22.9293C109.554 18.7356 106.961 14.5298 102.767 13.5353C98.5732 12.5409 94.3673 15.1344 93.3729 19.3281C92.3784 23.5218 94.972 27.7277 99.1657 28.7221C103.359 29.7166 107.565 27.123 108.56 22.9293Z" fill="#30373E"/>
<path d="M105.955 21.1285C105.955 22.1167 105.662 23.0827 105.113 23.9044C104.564 24.7261 103.784 25.3665 102.871 25.7446C101.958 26.1228 100.953 26.2217 99.9841 26.029C99.0149 25.8362 98.1246 25.3603 97.4258 24.6615C96.727 23.9628 96.2512 23.0725 96.0584 22.1033C95.8656 21.1341 95.9646 20.1294 96.3427 19.2165C96.7209 18.3035 97.3613 17.5231 98.183 16.9741C99.0046 16.4251 99.9706 16.1321 100.959 16.1321C102.284 16.1321 103.555 16.6585 104.492 17.5955C105.429 18.5325 105.955 19.8034 105.955 21.1285Z" fill="#94A6A5"/>
<path d="M105.773 22.445L102.442 21.5092C102.474 21.3849 102.49 21.2569 102.49 21.1285C102.49 20.9975 102.474 20.8669 102.442 20.7399L105.773 19.804C105.773 19.693 105.702 19.574 105.662 19.463L103.536 20.0657L105.464 18.9792C105.408 18.8682 105.361 18.7651 105.297 18.662L102.275 20.3512C102.144 20.1289 101.959 19.9433 101.736 19.812L103.433 16.7903L103.108 16.6237L102.03 18.5351L102.624 16.4017L102.283 16.2906L101.34 19.6533C101.081 19.5748 100.805 19.5748 100.547 19.6533L99.6107 16.3144L99.2696 16.4255L99.8645 18.5589L98.7859 16.6237L98.4607 16.7903L100.158 19.812C99.9355 19.9433 99.75 20.1289 99.6186 20.3512L96.5969 18.662C96.5335 18.7634 96.4778 18.8694 96.4304 18.9792L98.3576 20.0657L96.2321 19.463C96.188 19.5742 96.1509 19.6881 96.1211 19.804L99.452 20.7399C99.4202 20.8669 99.4042 20.9975 99.4045 21.1285C99.4037 21.2569 99.4197 21.3849 99.452 21.5092L96.1211 22.445C96.1509 22.5635 96.1879 22.68 96.2321 22.7939L98.3576 22.1912L96.4621 23.2936C96.5114 23.4025 96.567 23.5084 96.6287 23.6108L99.6503 21.9136C99.7825 22.1375 99.9677 22.3254 100.19 22.4609L98.4924 25.4825L98.8176 25.6411L99.8962 23.7139L99.3014 25.8473L99.6424 25.9504L100.578 22.6195C100.837 22.698 101.113 22.698 101.371 22.6195L102.307 25.9504L102.648 25.8473L102.053 23.7139L103.132 25.6411L103.457 25.4825L101.76 22.4609C101.982 22.3254 102.167 22.1375 102.299 21.9136L105.321 23.6108C105.384 23.5077 105.432 23.3967 105.487 23.2936L103.56 22.2071L105.686 22.8098C105.702 22.675 105.741 22.564 105.773 22.445Z" fill="#E2E3E5"/>
<path d="M14.9965 21.4615C14.9965 21.4615 12.5379 26.2201 17.114 26.2914H28.7645C27.8265 24.8805 27.2888 23.2416 27.2086 21.5492C27.1285 19.8568 27.5089 18.1744 28.3093 16.6811C29.1097 15.1878 30.3002 13.9396 31.7539 13.0694C33.2076 12.1993 34.8702 11.7397 36.5645 11.7397C38.2588 11.7397 39.9213 12.1993 41.375 13.0694C42.8288 13.9396 44.0192 15.1878 44.8197 16.6811C45.6201 18.1744 46.0005 19.8568 45.9203 21.5492C45.8402 23.2416 45.3025 24.8805 44.3645 26.2914H93.163C92.2529 24.9236 91.7186 23.3404 91.6137 21.7009C91.5088 20.0613 91.8371 18.4229 92.5655 16.9503C93.2939 15.4776 94.3969 14.2225 95.7637 13.3109C97.1305 12.3992 98.713 11.8631 100.353 11.7564C101.992 11.6496 103.631 11.976 105.104 12.7028C106.578 13.4295 107.834 14.5311 108.747 15.8969C109.66 17.2626 110.198 18.8446 110.307 20.4839C110.415 22.1233 110.091 23.7624 109.366 25.2366C112.054 24.4435 114.973 23.0319 115.393 20.9302V17.742C115.393 17.742 116.186 15.0613 113.807 14.7917C113.807 14.7917 114.457 8.20909 109.516 7.27324L80.7909 1.37268C80.7909 1.37268 66.8881 -2.14862 56.8476 2.7923C54.7856 3.80745 52.8346 5.02881 50.8043 6.09154C48.6514 7.29632 46.4205 8.35612 44.1265 9.26388C41.66 10.1601 39.4791 10.1046 36.9491 10.2473C33.7365 10.4035 30.5717 11.0895 27.5828 12.2776C25.7587 13.031 24.0298 13.8638 22.1501 14.5062C20.675 15.0058 19.1444 15.3707 17.6771 15.8862C17.6534 15.8862 13.6562 17.2741 14.9965 21.4615Z" fill="url(#paint1_linear)"/>
<path d="M17.1139 26.2915H28.7643C28.2062 25.4469 27.7884 24.5176 27.5271 23.5395H18.3511C15.7577 23.4761 14.9409 22.7464 14.7029 22.1675C14.2192 23.4999 13.6481 26.2519 17.1139 26.2915Z" fill="#E2E3E5"/>
<path d="M109.366 25.2367C112.054 24.4436 114.973 23.0319 115.393 20.9302V20.2244C114.656 22.7464 111.428 23.3491 110.008 23.4998C109.848 24.0972 109.632 24.6786 109.366 25.2367Z" fill="#E2E3E5"/>
<path d="M91.9261 23.5394H45.602C45.3441 24.5187 44.9261 25.4486 44.3647 26.2914H93.1633C92.602 25.4486 92.184 24.5187 91.9261 23.5394Z" fill="#E2E3E5"/>
<path d="M16.3921 21.5012C16.3921 21.5012 14.8059 16.5999 21.1506 16.362C23.2879 16.3013 25.3653 15.6419 27.1463 14.4586C27.1463 14.4586 22.3878 22.786 16.3921 21.5012Z" fill="#CACCCF"/>
<path d="M16.678 21.2158C16.678 21.2158 16.2973 16.1242 22.4358 17.3614C22.4358 17.3614 22.0313 21.5013 16.678 21.2158Z" fill="#FBB040"/>
<path d="M51.6606 21.2474C55.743 21.8114 59.8692 21.992 63.9852 21.7867C67.7642 21.6629 71.5224 21.1742 75.2074 20.3275C77.1319 19.8758 79.0196 19.2793 80.8542 18.543C84.5579 17.0441 87.8095 14.5776 91.4894 13.0311C95.3654 11.2471 99.5576 10.2523 103.822 10.1046C104.825 10.0937 105.828 10.1627 106.82 10.3108C101.534 9.50076 96.1305 10.027 91.1008 11.8414C89.2447 12.5184 87.4575 13.3709 85.7633 14.3872C83.1065 15.9734 80.7273 17.5596 77.7532 18.5351C75.2165 19.3173 72.6234 19.9033 69.9968 20.2878C63.9257 21.1544 57.7891 21.4756 51.6606 21.2474Z" fill="#E2E3E5"/>
<path d="M73.8514 25.0621H49.7892V25.0066C44.6104 13.38 44.3883 10.3187 44.3804 10.1918V10.1283H44.4438C46.3914 9.36147 48.2835 8.46049 50.1065 7.43182L51.193 6.8608C52.0971 6.39288 52.9933 5.8853 53.8578 5.39359C54.9522 4.77498 56.0863 4.13259 57.2204 3.57743C60.6466 1.88815 64.9372 1.03162 69.9733 1.03162C73.5298 1.03808 77.0749 1.43435 80.5451 2.21332L96.2006 5.43324L95.8754 5.54428C95.7803 5.54428 86.2394 8.78007 78.491 9.89832C79.522 17.7499 73.9387 24.967 73.8752 25.0463L73.8514 25.0621ZM49.9003 24.8797H73.7642C74.2083 24.2849 80.0137 16.4254 78.0231 8.35973L78.1976 8.31215C78.3134 8.76937 78.4034 9.23273 78.4672 9.70005C84.24 8.71168 89.9315 7.2961 95.4948 5.46497L80.5054 2.37987C77.0494 1.59652 73.517 1.20018 69.9733 1.19817C64.9689 1.19817 60.7021 2.04678 57.2839 3.72019C56.1498 4.28328 55.0236 4.91774 53.9291 5.53635C53.0647 6.02806 52.1764 6.53564 51.2643 7.01149L50.1778 7.58251C48.3537 8.5943 46.4646 9.4845 44.5231 10.2473C44.6024 10.7549 45.1735 14.2524 49.9003 24.8797Z" fill="#CACCCF"/>
<path d="M46.6167 10.3821C48.0125 9.7635 49.3449 9.06558 50.6456 8.3756L51.7242 7.80457C52.6442 7.32872 53.5483 6.81322 54.4207 6.32151C55.5548 5.67911 56.6175 5.07636 57.7278 4.52913C61.0112 2.94296 65.1352 2.09436 70.0048 2.09436C73.4737 2.09885 76.9314 2.48717 80.3149 3.25226L91.2912 5.50463C69.7827 12.341 46.6167 10.3821 46.6167 10.3821Z" fill="#30373E"/>
<path d="M66.7772 10.1284C71.1238 9.76854 75.4492 9.18618 79.7362 8.38364L73.5818 2.24517C72.4557 2.15793 71.2026 2.09448 69.9574 2.09448C66.6317 2.03836 63.3188 2.52044 60.147 3.52204L66.7772 10.1284Z" fill="#43474D"/>
<path d="M57.5695 9.58906C57.6819 9.32566 57.7147 9.03511 57.664 8.75326C57.6133 8.4714 57.4812 8.21056 57.284 8.00289C56.9339 7.58836 56.471 7.28448 55.9514 7.12819C55.4319 6.9719 54.8781 6.96995 54.3575 7.12256C52.5651 7.646 51.0503 9.39078 50.0352 10.8976C50.2336 11.1756 50.5211 11.3774 50.8499 11.4697C51.1788 11.5621 51.5293 11.5393 51.8434 11.4052C52.0056 10.5408 52.4324 9.74822 53.0647 9.137C53.0647 9.137 53.4058 10.0411 55.1109 10.2315C55.1109 10.2156 57.0222 10.517 57.5695 9.58906Z" fill="white"/>
<path d="M50.0352 10.8818C50.2336 11.1598 50.5211 11.3616 50.8499 11.4539C51.1788 11.5462 51.5293 11.5235 51.8434 11.3894C51.9999 10.527 52.4245 9.73605 53.0568 9.12911C52.9534 9.02773 52.8676 8.90979 52.803 8.78015C52.17 9.38765 51.7429 10.178 51.5817 11.0405C51.5817 11.0405 51.0741 11.6749 50.0352 10.8818Z" fill="#E2E3E5"/>
<path d="M57.284 7.98701L57.1968 7.89185C57.3317 8.0872 57.4129 8.31454 57.4324 8.55114C57.4519 8.78774 57.4089 9.0253 57.3078 9.24009C56.7606 10.1759 54.8493 9.86663 54.8493 9.86663C54.1909 9.83457 53.5636 9.57692 53.0728 9.13698C53.0728 9.20836 53.4851 10.0332 55.111 10.2156C55.111 10.2156 57.0223 10.517 57.5695 9.58905C57.6853 9.32364 57.72 9.0299 57.6692 8.74482C57.6184 8.45974 57.4844 8.19607 57.284 7.98701Z" fill="#E2E3E5"/>
<path d="M77.0712 11.3973L73.6054 11.9445C73.4234 11.9657 73.2402 11.9168 73.0929 11.8078C72.9456 11.6988 72.8453 11.5379 72.8123 11.3577C72.7892 11.1753 72.8373 10.9911 72.9467 10.8434C73.056 10.6957 73.2181 10.5958 73.3992 10.5646L76.865 10.0173C77.0476 9.9922 77.2329 10.0395 77.3811 10.1492C77.5293 10.2589 77.6287 10.4222 77.6581 10.6042C77.6853 10.7872 77.6388 10.9735 77.5288 11.1222C77.4187 11.271 77.2541 11.3699 77.0712 11.3973Z" fill="#ECECED"/>
<path d="M72.7886 11.3497C72.8233 11.5269 72.9253 11.6837 73.0732 11.7872C73.2211 11.8907 73.4033 11.9329 73.5817 11.9049L77.0474 11.3577C77.228 11.3265 77.3894 11.2263 77.4974 11.0783C77.6055 10.9303 77.6517 10.7461 77.6264 10.5646L72.7886 11.3497Z" fill="#E0E1E2"/>
<path d="M110.429 11.9287C110.431 12.3739 110.609 12.8004 110.923 13.1152C111.238 13.4301 111.665 13.6079 112.11 13.61H113.807C113.78 12.456 113.544 11.3166 113.109 10.2473H112.11C111.664 10.2473 111.236 10.4244 110.921 10.7398C110.606 11.0551 110.429 11.4827 110.429 11.9287Z" fill="#EF4136"/>
<defs>
<filter id="filter0_f" x="0.535645" y="21.4111" width="130.928" height="14.3447" filterUnits="userSpaceOnUse" color-interpolation-filters="sRGB">
<feFlood flood-opacity="0" result="BackgroundImageFix"/>
<feBlend mode="normal" in="SourceGraphic" in2="BackgroundImageFix" result="shape"/>
<feGaussianBlur stdDeviation="2" result="effect1_foregroundBlur"/>
</filter>
<radialGradient id="paint0_radial" cx="0" cy="0" r="1" gradientUnits="userSpaceOnUse" gradientTransform="translate(-212260 409.252) scale(9762.52 80.2983)">
<stop stop-color="#393F42"/>
<stop offset="0.27" stop-color="#3D4346"/>
<stop offset="0.57" stop-color="#4A5053"/>
<stop offset="0.87" stop-color="#5F6669"/>
<stop offset="1" stop-color="#6A7174"/>
</radialGradient>
<linearGradient id="paint1_linear" x1="64.9285" y1="5.41631" x2="64.9285" y2="106.148" gradientUnits="userSpaceOnUse">
<stop stop-color="#FCFCFC"/>
<stop offset="1" stop-color="#031838"/>
</linearGradient>
</defs>
</svg>
