<svg width="328" height="288" viewBox="0 0 328 288" fill="none" xmlns="http://www.w3.org/2000/svg">
<mask id="mask0" mask-type="alpha" maskUnits="userSpaceOnUse" x="0" y="0" width="328" height="288">
<rect width="328" height="288" fill="#C4C4C4"/>
</mask>
<g mask="url(#mask0)">
<path d="M210 95L242 101.047V254H210V95Z" fill="#F0F0F0"/>
<path d="M210 95H185V254H210V95Z" fill="#E6E6E6"/>
<path d="M185 118H242V117H185V118Z" fill="#E0E0E0"/>
<path d="M185 127H242V126H185V127Z" fill="#E0E0E0"/>
<path d="M185 135H242V134H185V135Z" fill="#E0E0E0"/>
<path d="M185 144H242V143H185V144Z" fill="#E0E0E0"/>
<path d="M185 153H242V152H185V153Z" fill="#E0E0E0"/>
<path d="M185 161H242V160H185V161Z" fill="#E0E0E0"/>
<path d="M171 62H144V254H171V62Z" fill="#F0F0F0"/>
<path d="M170.665 62H144L153.814 45H192L170.665 62Z" fill="#FAFAFA"/>
<path d="M171 61.9569L192 45V254H171V61.9569Z" fill="#EBEBEB"/>
<path d="M192 71H144V72H192V71Z" fill="#E0E0E0"/>
<path d="M192 82H144V83H192V82Z" fill="#E0E0E0"/>
<path d="M192 93H144V94H192V93Z" fill="#E0E0E0"/>
<path d="M192 103H144V104H192V103Z" fill="#E0E0E0"/>
<path d="M192 114H144V115H192V114Z" fill="#E0E0E0"/>
<path d="M192 125H144V126H192V125Z" fill="#E0E0E0"/>
<path d="M192 136H144V137H192V136Z" fill="#E0E0E0"/>
<path d="M192 147H144V148H192V147Z" fill="#E0E0E0"/>
<path d="M192 158H144V159H192V158Z" fill="#E0E0E0"/>
<path d="M192 169H144V170H192V169Z" fill="#E0E0E0"/>
<path d="M140 155H111V254H140V155Z" fill="#F0F0F0"/>
<path d="M121 160H116V176H121V160Z" fill="#E6E6E6"/>
<path d="M132 160H128V176H132V160Z" fill="#E6E6E6"/>
<path d="M121 180H116V196H121V180Z" fill="#E6E6E6"/>
<path d="M132 180H128V196H132V180Z" fill="#E6E6E6"/>
<path d="M140.154 155H111L117.839 148H147L140.154 155Z" fill="white"/>
<path d="M140 154.869L146.503 148L153 154.869V254H140V154.869Z" fill="#E6E6E6"/>
<path d="M148.182 98.5491H32L39.6457 256.775H155.828L148.182 98.5491Z" fill="#042647"/>
<path d="M149.255 98.5491H33.0732L40.724 256.775H156.906L149.255 98.5491Z" fill="#2825A4"/>
<path opacity="0.2" d="M143.122 103.871H38.3857L45.7038 249.623L136.777 249.502L151.912 236.086L143.122 103.871Z" fill="black"/>
<path d="M143.923 103.866C145.04 147.516 148.565 191.071 154.482 234.332C146.183 240.044 137.926 245.756 129.711 251.468H51.3789C43.9854 202.585 39.6459 153.289 38.3857 103.866H143.923Z" fill="white"/>
<path d="M154.483 234.332C146.183 240.044 137.926 245.756 129.711 251.468C131.505 243.908 133.375 236.348 135.32 228.788L154.483 234.332Z" fill="#52627A"/>
<path d="M66.7863 117.202C66.9846 122.538 67.2164 127.877 67.4819 133.219H51.4698C51.201 127.877 50.9692 122.538 50.7743 117.202H66.7863ZM68.4193 115.514H49.0254C49.2505 121.975 49.5311 128.44 49.8671 134.908H69.266C68.93 128.443 68.6495 121.978 68.4243 115.514H68.4193Z" fill="#7DDD81"/>
<path d="M132.215 123.215H77.3701C77.3197 122.01 77.2744 120.801 77.229 119.596H132.069C132.115 120.801 132.165 122.01 132.215 123.215Z" fill="#2825A4"/>
<path d="M120.628 130.825H77.7078C77.6524 129.616 77.5919 128.411 77.5415 127.207H120.457C120.514 128.413 120.571 129.619 120.628 130.825Z" fill="#2825A4"/>
<path d="M68.3582 148.571C68.6942 153.914 69.0689 159.256 69.4822 164.598H53.465C53.0518 159.256 52.6771 153.914 52.3411 148.571H68.3582ZM69.9408 146.883H50.5469C50.9434 153.351 51.3953 159.819 51.9026 166.287H71.3218C70.8178 159.822 70.3642 153.354 69.961 146.883H69.9408Z" fill="#7DDD81"/>
<path d="M99.2437 154.589H79.0837C79.0031 153.379 78.9174 152.175 78.8418 150.965H99.0018C99.0774 152.175 99.158 153.379 99.2437 154.589Z" fill="#2825A4"/>
<path d="M118.33 154.589H103.508C103.427 153.379 103.341 152.175 103.266 150.965H118.088C118.164 152.175 118.244 153.379 118.33 154.589Z" fill="#2825A4"/>
<path d="M127.634 162.204H79.6377C79.547 160.995 79.4613 159.79 79.3706 158.581H127.367C127.457 159.79 127.543 160.995 127.634 162.204Z" fill="#2825A4"/>
<path d="M70.7625 179.955C71.243 185.298 71.7604 190.64 72.3148 195.982H56.2977C55.7433 190.64 55.2258 185.298 54.7454 179.955H70.7625ZM72.3047 178.267H52.9058C53.477 184.738 54.1019 191.208 54.7806 197.676H74.1796C73.5076 191.205 72.8826 184.735 72.3047 178.267Z" fill="#7DDD81"/>
<path d="M136.893 189.97H82.0425L82.4054 193.588H137.256L136.893 189.97Z" fill="#2825A4"/>
<path d="M124.242 182.354H81.3218C81.4327 183.559 81.5435 184.768 81.6595 185.973H124.575C124.464 184.768 124.348 183.574 124.242 182.354Z" fill="#2825A4"/>
<path d="M74.0032 211.339C74.6281 216.682 75.2884 222.022 75.9839 227.361H59.9668C59.2712 222.026 58.611 216.685 57.986 211.339H74.0032ZM75.5152 209.651H56.1011C56.8403 216.122 57.6383 222.589 58.4951 229.05H77.8739C77.0238 222.589 76.2258 216.122 75.4799 209.651H75.5152Z" fill="#7DDD81"/>
<path d="M139.911 217.342H85.0609C84.9147 216.132 84.7686 214.928 84.6274 213.718H139.473C139.619 214.943 139.76 216.147 139.911 217.342Z" fill="#2825A4"/>
<path d="M110.982 224.967H86.0138C85.8576 223.763 85.7064 222.553 85.5552 221.349H110.523C110.675 222.553 110.826 223.763 110.982 224.967Z" fill="#2825A4"/>
<path d="M125.89 224.967H115.11C114.953 223.763 114.802 222.553 114.651 221.349H125.431C125.583 222.553 125.754 223.763 125.89 224.967Z" fill="#2825A4"/>
<path d="M59.7303 130.931L59.0196 129.802C57.4673 127.333 54.3022 125.13 53.2085 124.485L54.025 123.038C56.1707 124.341 58.0878 125.988 59.7 127.912C62.1394 124.591 65.748 121.159 70.6872 117.469L71.7305 118.83C66.4587 122.776 62.7694 126.39 60.4409 129.868L59.7303 130.931Z" fill="#7DDD81"/>
<path d="M61.6446 162.31L60.9037 161.181C59.2909 158.712 56.0653 156.504 54.9565 155.859L55.7277 154.412C57.9143 155.716 59.8765 157.363 61.5388 159.291C63.8874 155.965 67.4003 152.532 72.2437 148.838C72.6016 149.292 72.9644 149.745 73.3223 150.204C68.1563 154.155 64.5628 157.764 62.3301 161.247C62.0982 161.599 61.8714 161.957 61.6446 162.31Z" fill="#7DDD81"/>
<path d="M64.427 193.775L63.6559 192.646C61.9725 190.176 58.6864 187.969 57.5625 187.329C57.8044 186.825 58.0665 186.361 58.2983 185.882C60.519 187.188 62.5222 188.832 64.2355 190.756C66.4984 187.43 69.9206 184.002 74.6582 180.303L75.7771 181.669C70.7371 185.62 67.2091 189.229 65.0771 192.711L64.427 193.775Z" fill="#7DDD81"/>
<path d="M115.236 242.774C112.262 242.774 110.548 241.675 109.036 240.707C107.524 239.74 106.224 238.903 103.714 238.903C101.204 238.903 100.085 239.78 98.9009 240.707C97.7165 241.635 96.265 242.774 93.2914 242.774C90.3178 242.774 88.6042 241.675 87.0972 240.707C85.5903 239.74 84.29 238.903 81.775 238.903C79.26 238.903 78.1462 239.78 76.9618 240.707C75.7774 241.635 74.3259 242.774 71.3573 242.774C68.3888 242.774 66.6701 241.675 65.1581 240.707C63.6461 239.74 62.3508 238.903 59.8359 238.903C59.7704 238.399 59.6998 237.935 59.6343 237.451C62.6079 237.451 64.3164 238.55 65.8284 239.518C67.3404 240.486 68.6357 241.322 71.1456 241.322C73.6556 241.322 74.7744 240.445 75.9588 239.518C77.1432 238.59 78.5998 237.451 81.5734 237.451C84.547 237.451 86.2505 238.55 87.7625 239.518C89.2745 240.486 90.5748 241.322 93.0847 241.322C95.5947 241.322 96.7135 240.445 97.8979 239.518C99.0823 238.59 100.539 237.451 103.513 237.451C106.486 237.451 108.195 238.55 109.707 239.518C111.219 240.486 112.514 241.322 115.029 241.322C115.094 241.806 115.17 242.29 115.236 242.774Z" fill="#2825A4"/>
<path d="M119.5 102.465C117.796 97.9292 113.86 94.9505 109.626 94.9505H100.998C100.356 94.9449 99.729 94.7509 99.1959 94.3925C98.6629 94.0342 98.2467 93.5272 97.9991 92.9345C97.3891 91.4859 96.3691 90.2471 95.0645 89.3705C93.7598 88.4939 92.2275 88.0177 90.6558 88.0004C89.1353 87.9849 87.6497 88.4552 86.415 89.3427C85.1804 90.2301 84.2612 91.4885 83.7913 92.9345C83.5998 93.5262 83.224 94.0411 82.7189 94.4038C82.2138 94.7666 81.6059 94.9581 80.984 94.9505H72.3606C68.1219 94.9505 64.473 97.9443 63.213 102.465L62.709 104.264H120.165L119.5 102.465Z" fill="#52627A"/>
<path d="M119.807 106.039H63.2582C62.7813 106.033 62.3242 105.847 61.9791 105.518C61.634 105.188 61.4265 104.741 61.3985 104.264C61.3861 104.036 61.4206 103.807 61.5001 103.592C61.5795 103.377 61.702 103.181 61.8602 103.015C62.0184 102.849 62.2088 102.718 62.4198 102.628C62.6307 102.539 62.8578 102.494 63.0869 102.495H119.636C120.112 102.501 120.568 102.686 120.913 103.014C121.258 103.343 121.466 103.789 121.495 104.264C121.509 104.494 121.474 104.723 121.395 104.939C121.316 105.154 121.194 105.351 121.036 105.517C120.877 105.684 120.687 105.816 120.475 105.905C120.264 105.995 120.037 106.04 119.807 106.039Z" fill="#5CC9FC"/>
<path d="M164 286.463C241.32 286.463 304 282.804 304 278.289C304 273.775 241.32 270.116 164 270.116C86.6805 270.116 24.0005 273.775 24.0005 278.289C24.0005 282.804 86.6805 286.463 164 286.463Z" fill="#F5F5F5"/>
<path d="M292.7 255.941H167.099V216.791H277.812L288.144 225.189C289.573 226.348 290.723 227.812 291.512 229.474C292.3 231.136 292.706 232.953 292.7 234.792V255.941Z" fill="#2825A4"/>
<path opacity="0.5" d="M292.7 255.941H167.099V216.791H277.812L288.144 225.189C289.573 226.348 290.723 227.812 291.512 229.474C292.3 231.136 292.706 232.953 292.7 234.792V255.941Z" fill="#031838"/>
<path d="M166.376 252.408C166.376 238.119 172.875 226.537 180.817 226.537H165.495C157.502 226.537 151.054 238.09 151.054 252.408C151.054 266.727 157.553 278.287 165.495 278.287H180.846C172.839 278.287 166.376 266.698 166.376 252.408Z" fill="#031838"/>
<path d="M180.846 278.28C188.837 278.28 195.316 266.697 195.316 252.408C195.316 238.12 188.837 226.537 180.846 226.537C172.854 226.537 166.375 238.12 166.375 252.408C166.375 266.697 172.854 278.28 180.846 278.28Z" fill="#031838"/>
<path d="M182.007 272.582C187.674 272.582 192.267 263.55 192.267 252.408C192.267 241.266 187.674 232.234 182.007 232.234C176.34 232.234 171.747 241.266 171.747 252.408C171.747 263.55 176.34 272.582 182.007 272.582Z" fill="#E4E9F1"/>
<path d="M82.97 252.408C82.97 238.119 89.4685 226.537 97.4112 226.537H82.0891C74.0959 226.537 67.6479 238.09 67.6479 252.408C67.6479 266.727 74.1465 278.287 82.0891 278.287H97.44C89.4469 278.287 82.97 266.698 82.97 252.408Z" fill="#031838"/>
<path d="M97.4403 278.28C105.432 278.28 111.91 266.697 111.91 252.408C111.91 238.12 105.432 226.537 97.4403 226.537C89.4487 226.537 82.9702 238.12 82.9702 252.408C82.9702 266.697 89.4487 278.28 97.4403 278.28Z" fill="#031838"/>
<path d="M265.535 252.408C265.535 238.119 272.034 226.537 279.977 226.537H264.654C256.669 226.537 250.213 238.09 250.213 252.408C250.213 266.727 256.712 278.287 264.654 278.287H280.005C272.019 278.287 265.535 266.698 265.535 252.408Z" fill="#031838"/>
<path d="M280.005 278.28C287.997 278.28 294.475 266.697 294.475 252.408C294.475 238.12 287.997 226.537 280.005 226.537C272.014 226.537 265.535 238.12 265.535 252.408C265.535 266.697 272.014 278.28 280.005 278.28Z" fill="#031838"/>
<path d="M281.175 272.582C286.842 272.582 291.436 263.55 291.436 252.408C291.436 241.266 286.842 232.234 281.175 232.234C275.509 232.234 270.915 241.266 270.915 252.408C270.915 263.55 275.509 272.582 281.175 272.582Z" fill="#E4E9F1"/>
<path d="M149.278 259.63H130.714L129.674 258.619C128.606 257.549 127.157 256.947 125.645 256.944H79.2454C77.7334 256.947 76.2843 257.549 75.2163 258.619L74.5809 259.248H72.8913C71.5785 259.248 70.2786 258.988 69.0664 258.484C67.8541 257.98 66.7534 257.242 65.8275 256.311C64.9015 255.381 64.1686 254.276 63.6708 253.061C63.173 251.847 62.9202 250.545 62.9269 249.233V233.961H168.217L159.841 252.171C159.069 254.355 157.638 256.245 155.746 257.581C153.854 258.917 151.594 259.633 149.278 259.63Z" fill="#2825A4"/>
<path opacity="0.5" d="M149.278 259.63H130.714L129.674 258.619C128.606 257.549 127.157 256.947 125.645 256.944H79.2454C77.7334 256.947 76.2843 257.549 75.2163 258.619L74.5809 259.248H72.8913C71.5785 259.248 70.2786 258.988 69.0664 258.484C67.8541 257.98 66.7534 257.242 65.8275 256.311C64.9015 255.381 64.1686 254.276 63.6708 253.061C63.173 251.847 62.9202 250.545 62.9269 249.233V233.961H168.217L159.841 252.171C159.069 254.355 157.638 256.245 155.746 257.581C153.854 258.917 151.594 259.633 149.278 259.63Z" fill="#031838"/>
<path d="M258.878 168.852C258.814 168.853 258.751 168.836 258.697 168.802C258.656 168.778 258.62 168.747 258.591 168.71C258.562 168.672 258.541 168.629 258.528 168.584C258.516 168.538 258.513 168.49 258.52 168.443C258.527 168.396 258.543 168.351 258.567 168.311L263.622 159.646C263.642 159.6 263.673 159.559 263.71 159.525C263.748 159.492 263.792 159.466 263.841 159.451C263.889 159.435 263.939 159.43 263.99 159.436C264.04 159.441 264.088 159.457 264.132 159.483C264.176 159.508 264.214 159.542 264.243 159.583C264.273 159.624 264.294 159.671 264.304 159.72C264.314 159.77 264.314 159.821 264.304 159.87C264.293 159.919 264.272 159.966 264.243 160.007L259.188 168.672C259.157 168.726 259.112 168.772 259.057 168.803C259.003 168.835 258.941 168.852 258.878 168.852Z" fill="#031838"/>
<path d="M285.538 211.959V202.11C285.538 196.933 278.014 172.505 267.667 167.928C257.32 163.35 232.286 161.314 216.516 162.151C200.747 162.989 179.691 195.972 179.691 195.972L181.98 224.335C185.186 224.335 195.396 223.367 196.891 251.426C196.991 253.405 197.848 255.268 199.285 256.631C200.722 257.995 202.629 258.752 204.61 258.748H259.818C261.673 258.747 263.464 258.075 264.863 256.857C266.261 255.639 267.173 253.956 267.429 252.12C268.873 242.119 272.642 224.313 281.733 224.313C288.108 224.313 292.679 229.772 292.679 236.032C292.681 229.155 291.011 222.38 287.812 216.291L285.538 211.959Z" fill="#2825A4"/>
<path d="M158.751 162.153C130.035 162.153 97.499 195.975 97.499 195.975H179.72C179.72 195.975 200.753 162.998 216.545 162.153H158.751Z" fill="#2825A4"/>
<path opacity="0.4" d="M160.513 162.153C136.324 162.153 110.951 186.155 103.55 193.714C103.366 193.902 103.242 194.139 103.193 194.396C103.143 194.654 103.171 194.921 103.273 195.162C103.375 195.404 103.546 195.61 103.765 195.755C103.984 195.899 104.241 195.976 104.503 195.975H170.831C173.501 195.982 176.135 195.36 178.519 194.158C180.903 192.956 182.969 191.208 184.551 189.057C191.684 179.338 205.425 162.753 216.545 162.153H160.513Z" fill="white"/>
<path d="M179.72 195.975L149.35 219.94L67.6201 219.68C67.6201 219.68 62.9268 226.503 62.9268 233.962H168.217C169.943 229.391 175.994 224.337 182.008 224.337C182.008 215.831 179.72 195.975 179.72 195.975Z" fill="#2825A4"/>
<path opacity="0.2" d="M159.84 212.877C159.753 212.876 159.67 212.844 159.605 212.787C159.54 212.73 159.498 212.652 159.486 212.567C159.474 212.473 159.498 212.378 159.555 212.303C159.612 212.227 159.696 212.177 159.789 212.162C167.079 210.98 173.901 207.807 179.501 202.992C180.609 202.061 181.329 200.751 181.523 199.317C181.716 197.883 181.369 196.429 180.548 195.237C180.518 195.199 180.497 195.154 180.484 195.107C180.472 195.059 180.47 195.01 180.477 194.961C180.484 194.913 180.502 194.867 180.527 194.825C180.553 194.783 180.588 194.748 180.628 194.72C180.668 194.692 180.713 194.672 180.761 194.662C180.809 194.653 180.859 194.653 180.907 194.663C180.955 194.672 181 194.692 181.041 194.72C181.081 194.748 181.115 194.784 181.141 194.826C182.061 196.165 182.45 197.799 182.233 199.41C182.015 201.021 181.206 202.493 179.964 203.541C174.265 208.445 167.32 211.674 159.898 212.87L159.84 212.877Z" fill="#031838"/>
<path d="M67.6216 219.68C67.6216 219.68 81.9761 202.95 97.5003 195.975H179.721L149.351 219.94L67.6216 219.68Z" fill="#2825A4"/>
<path d="M131.198 219.677H77.2817V221.244H131.198V219.677Z" fill="#5CC9FC"/>
<path d="M130.079 216.545L132.968 213.657C133.617 213.008 134.439 212.56 135.336 212.365L157.149 207.613C157.916 207.446 158.712 207.471 159.467 207.686L160.637 208.011C161.416 208.23 162.126 208.643 162.702 209.211C163.279 209.779 163.702 210.483 163.932 211.259C164.163 212.034 164.194 212.855 164.021 213.646C163.849 214.437 163.48 215.171 162.947 215.78L158.254 221.145C157.445 222.068 156.313 222.646 155.091 222.762L133.913 224.683C133.214 224.75 132.508 224.661 131.847 224.424C131.185 224.187 130.584 223.807 130.087 223.311C129.191 222.413 128.687 221.198 128.686 219.93C128.685 218.662 129.186 217.445 130.079 216.545Z" fill="white"/>
<path d="M78.8054 218.073L76.4154 213.604C76.0789 212.978 75.58 212.454 74.9712 212.087C74.393 211.741 73.7352 211.548 73.0611 211.529C72.3871 211.51 71.7195 211.665 71.1227 211.979L69.3103 212.932C68.4202 213.403 67.7435 214.196 67.4185 215.149L66.3138 218.42C66.1301 218.958 66.0653 219.53 66.124 220.096C66.1827 220.662 66.3635 221.209 66.6538 221.698C66.9441 222.188 67.3372 222.608 67.8057 222.931C68.2743 223.254 68.8074 223.471 69.3681 223.568L74.3575 224.427C75.1713 224.568 76.0088 224.449 76.7513 224.088C77.4939 223.726 78.1039 223.14 78.4949 222.413L78.827 221.799C79.1327 221.225 79.2908 220.584 79.2871 219.933C79.2833 219.283 79.1177 218.644 78.8054 218.073Z" fill="white"/>
<path opacity="0.4" d="M196.514 196.931H272.532C273.177 196.932 273.813 196.781 274.388 196.492C274.964 196.203 275.465 195.783 275.849 195.265C276.234 194.748 276.492 194.148 276.603 193.513C276.714 192.879 276.675 192.227 276.489 191.61C274.756 185.833 271.435 176.8 266.446 172.193C265.891 171.686 265.21 171.337 264.474 171.183C255.514 169.284 241.109 168.02 230.422 167.284C225.578 166.952 220.72 167.674 216.182 169.399C211.643 171.124 207.533 173.811 204.132 177.277C200.066 181.384 196.394 185.864 193.164 190.657C192.759 191.264 192.527 191.969 192.491 192.698C192.456 193.427 192.618 194.152 192.962 194.796C193.306 195.44 193.818 195.978 194.443 196.354C195.069 196.73 195.784 196.93 196.514 196.931Z" fill="white"/>
<path d="M147.365 242.421C147.365 244.789 144.939 246.717 141.95 246.717C138.96 246.717 136.534 244.789 136.534 242.421C136.534 240.052 138.953 238.132 141.95 238.132C144.946 238.132 147.365 240.052 147.365 242.421Z" fill="#031838"/>
<path d="M103.728 216.398C105.505 216.398 106.371 218.218 105.664 220.456C104.956 222.695 102.949 224.522 101.165 224.522C99.3817 224.522 98.5224 222.702 99.2301 220.456C99.9377 218.211 101.952 216.398 103.728 216.398Z" fill="#5CC9FC"/>
<path d="M67.2945 242.421C67.2945 244.789 66.5725 246.717 65.771 246.717C64.9695 246.717 64.2402 244.789 64.2402 242.421C64.2402 240.052 64.9623 238.132 65.771 238.132C66.5797 238.132 67.2945 240.052 67.2945 242.421Z" fill="#031838"/>
<path d="M194.176 196.247V193.814C194.175 193.115 194.33 192.426 194.63 191.795C194.929 191.164 195.366 190.608 195.907 190.167C196.449 189.727 197.082 189.412 197.761 189.248C198.439 189.083 199.146 189.071 199.83 189.214L209.086 191.142C210.143 191.362 211.092 191.94 211.773 192.778C212.454 193.615 212.826 194.662 212.827 195.741V196.247C212.827 197.492 212.332 198.687 211.452 199.568C210.572 200.449 209.379 200.946 208.133 200.947H198.876C197.63 200.947 196.434 200.452 195.553 199.571C194.671 198.689 194.176 197.494 194.176 196.247Z" fill="#031838"/>
<path d="M242.879 168.296C242.879 168.296 241.644 168.174 239.492 167.986C249.009 187.481 246.583 196.933 246.583 196.933H253.847C253.919 185.062 242.879 168.296 242.879 168.296Z" fill="#031838"/>
<path opacity="0.2" d="M162.613 188.204C162.466 189.736 161.754 191.159 160.615 192.195C159.477 193.23 157.993 193.805 156.454 193.807H119.03C116.3 193.807 115.311 190.76 117.29 188.493C120.86 184.428 124.736 180.643 128.886 177.171C135.933 171.236 144.685 168.153 152.865 168.723L155.956 168.947C157.29 169.051 158.554 169.583 159.561 170.464C160.568 171.344 161.264 172.527 161.545 173.835C162.637 178.541 162.997 183.388 162.613 188.204Z" fill="#2825A4"/>
<path opacity="0.2" d="M247.448 253.613C247.352 253.613 247.26 253.575 247.193 253.507C247.125 253.439 247.087 253.348 247.087 253.252C247.087 245.945 250.813 215.813 251.788 211.3C252.733 206.917 252.733 202.022 251.788 198.838C251.761 198.746 251.772 198.647 251.818 198.563C251.864 198.479 251.941 198.417 252.033 198.39C252.125 198.365 252.223 198.377 252.306 198.423C252.39 198.468 252.452 198.545 252.481 198.635C253.456 201.928 253.456 206.961 252.481 211.452C251.506 215.943 247.795 245.974 247.795 253.252C247.795 253.345 247.759 253.435 247.694 253.502C247.629 253.57 247.541 253.609 247.448 253.613Z" fill="#031838"/>
<path opacity="0.2" d="M246.488 211.682H237.686C237.519 211.688 237.353 211.655 237.201 211.586C237.049 211.517 236.914 211.414 236.808 211.285C236.702 211.156 236.627 211.004 236.589 210.841C236.551 210.679 236.551 210.509 236.589 210.347L236.769 209.329C236.842 208.962 237.036 208.631 237.321 208.389C237.605 208.146 237.963 208.007 238.336 207.993H247.138C247.305 207.987 247.471 208.02 247.623 208.089C247.775 208.158 247.91 208.261 248.016 208.39C248.122 208.519 248.197 208.671 248.235 208.834C248.273 208.997 248.273 209.166 248.235 209.329L248.055 210.347C247.982 210.713 247.788 211.044 247.503 211.287C247.219 211.529 246.861 211.669 246.488 211.682Z" fill="#031838"/>
<path opacity="0.2" d="M227.624 202.845C217.847 206.643 207.163 207.457 196.923 205.184C186.683 202.91 177.348 197.651 170.097 190.072C162.846 182.493 158.005 172.934 156.187 162.604C154.368 152.273 155.654 141.636 159.881 132.036C164.109 122.437 171.087 114.306 179.935 108.673C188.783 103.04 199.103 100.156 209.589 100.388C220.076 100.62 230.258 103.955 238.849 109.974C247.44 115.992 254.053 124.423 257.852 134.2C260.376 140.692 261.596 147.617 261.442 154.581C261.289 161.544 259.765 168.41 256.958 174.784C254.151 181.159 250.115 186.918 245.082 191.733C240.049 196.547 234.117 200.323 227.624 202.845Z" fill="#2825A4"/>
<path opacity="0.1" d="M218.027 101.254L176.43 195.724C175.789 195.239 175.154 194.737 174.531 194.229C170.511 190.904 167.01 186.996 164.144 182.636L200.073 101.035C206.026 100.076 212.099 100.15 218.027 101.254Z" fill="white"/>
<path opacity="0.1" d="M247.598 117.643L208.489 206.463C200.365 206.472 192.348 204.612 185.059 201.027L227.763 104.035C235.329 106.994 242.115 111.649 247.598 117.643Z" fill="white"/>
<path d="M164.755 117.686C171.822 109.051 181.291 102.705 191.964 99.4517C202.637 96.1981 214.035 96.1825 224.717 99.4069C235.399 102.631 244.885 108.951 251.976 117.567C259.066 126.182 263.443 136.707 264.551 147.81C265.66 158.913 263.452 170.095 258.206 179.943C252.959 189.79 244.911 197.861 235.077 203.135C225.244 208.408 214.068 210.647 202.962 209.569C191.856 208.49 181.319 204.143 172.684 197.076C161.106 187.599 153.766 173.911 152.28 159.023C150.793 144.135 155.28 129.266 164.755 117.686ZM248.503 186.221C254.989 178.292 258.979 168.617 259.968 158.42C260.956 148.223 258.899 137.962 254.056 128.935C249.213 119.907 241.802 112.518 232.759 107.702C223.717 102.887 213.45 100.86 203.256 101.879C193.062 102.899 183.4 106.918 175.49 113.428C167.58 119.939 161.779 128.649 158.819 138.457C155.859 148.265 155.874 158.73 158.862 168.529C161.85 178.328 167.676 187.022 175.604 193.51C180.869 197.818 186.931 201.048 193.444 203.013C199.957 204.979 206.794 205.642 213.563 204.965C220.332 204.288 226.902 202.284 232.897 199.068C238.892 195.852 244.195 191.487 248.503 186.221Z" fill="#7DDD81"/>
<path d="M253.483 186.024C259.041 189.342 264.327 192.989 269.521 196.752C274.715 200.515 279.776 204.433 284.756 208.456C289.736 212.478 294.624 216.616 299.339 220.961C301.701 223.131 304.01 225.359 306.264 227.644C308.526 229.952 310.748 232.261 312.843 234.765C313.327 235.345 313.594 236.075 313.598 236.831C313.601 237.586 313.342 238.319 312.864 238.904C312.386 239.488 311.719 239.888 310.978 240.035C310.237 240.181 309.468 240.064 308.803 239.705C305.918 238.147 303.217 236.427 300.522 234.667C297.827 232.907 295.196 231.072 292.599 229.185C287.405 225.422 282.378 221.457 277.456 217.366C272.533 213.274 267.686 209.09 262.971 204.739C258.256 200.388 253.633 195.933 249.282 191.143C248.739 190.55 248.427 189.782 248.405 188.978C248.382 188.175 248.65 187.39 249.159 186.768C249.668 186.146 250.384 185.728 251.177 185.592C251.969 185.455 252.784 185.608 253.472 186.024H253.483Z" fill="#7DDD81"/>
</g>
</svg>
