<svg width="479" height="288" viewBox="0 0 479 288" fill="none" xmlns="http://www.w3.org/2000/svg">
<path opacity="0.5" d="M375 335L198 158" stroke="url(#paint0_linear_14955_84025)" stroke-width="280" stroke-linecap="round"/>
<circle cx="387" cy="67" r="84" fill="#EC0A23"/>
<path opacity="0.4" d="M269.458 107.551C269.417 108.091 269.176 108.596 268.782 108.968C268.389 109.34 267.87 109.551 267.329 109.561C267.07 109.564 266.814 109.513 266.576 109.411C266.338 109.309 266.124 109.159 265.948 108.97C265.771 108.781 265.636 108.557 265.551 108.313C265.466 108.068 265.433 107.809 265.453 107.551C265.491 107.01 265.73 106.503 266.125 106.13C266.519 105.758 267.04 105.548 267.582 105.541C267.841 105.538 268.097 105.59 268.335 105.691C268.573 105.793 268.787 105.943 268.963 106.132C269.14 106.322 269.275 106.545 269.36 106.79C269.445 107.034 269.478 107.293 269.458 107.551Z" fill="white"/>
<path d="M223.319 66.4633C215.176 75.7823 210.472 104.349 216.501 118.402C222.53 132.455 152.578 146.523 210.293 169.359C268.008 192.195 314.171 165.712 297.469 142.057C280.766 118.402 299.27 79.0126 279.932 69.1131C262.456 60.0919 239.635 47.7808 223.319 66.4633Z" fill="#263238"/>
<path d="M206.067 181.481C203.015 191.901 199.77 202.322 196.405 212.742C193.041 223.163 189.543 233.464 185.836 243.81L184.422 247.71L183.707 249.661L183.484 250.241L183.127 251.12C182.903 251.685 182.561 252.296 182.263 252.876C180.808 255.534 178.637 257.731 175.996 259.218C173.599 260.52 170.923 261.224 168.195 261.272C164.37 261.291 160.58 260.547 157.046 259.084C154.152 257.91 151.351 256.521 148.664 254.93C138.904 248.929 129.958 241.694 122.047 233.405L128.463 225.842C130.622 227.227 132.929 228.7 135.162 230.085C137.395 231.469 139.733 232.809 141.995 234.134C146.429 236.729 151.007 239.07 155.706 241.146C157.847 242.09 160.056 242.871 162.315 243.483C163.877 244.001 165.529 244.193 167.168 244.048C167.585 244.048 167.511 243.81 167.168 243.944C166.826 244.078 166.454 244.465 166.439 244.421C166.424 244.376 166.439 244.421 166.439 244.331C166.446 244.302 166.446 244.271 166.439 244.242L166.558 243.87L167.124 241.949L168.27 238.079L177.366 206.817C180.462 196.397 183.648 185.976 186.923 175.556L206.067 181.481Z" fill="#B65B52"/>
<path d="M128.011 225.613L110.713 219.212L117.576 237.493C117.576 237.493 129.782 239.249 134.516 232.833L130.661 227.667C129.993 226.743 129.073 226.03 128.011 225.613Z" fill="#B55B52"/>
<path d="M95.4517 224.515L102.031 239.506L117.647 237.451L110.77 219.171L95.4517 224.515Z" fill="#B55B52"/>
<path d="M193.45 154.528C185.53 156.538 180.052 189.094 180.052 189.094L201.861 203.981C201.861 203.981 222.702 171.141 216.673 162.448C210.272 153.322 204.987 151.595 193.45 154.528Z" fill="#002373"/>
<path opacity="0.2" d="M192.73 166.363L209.656 170.278L211.279 186.847C208.411 192.696 205.246 198.395 201.796 203.921L188.562 194.99C189.143 187.323 190.572 171.573 192.73 166.363Z" fill="black"/>
<path d="M193.444 154.535C193.444 154.535 184.288 157.751 202.614 270.382H280.559C279.249 238.659 279.22 219.083 294.374 153.985C283.464 151.728 272.404 150.271 261.281 149.623C248.166 148.983 237.463 148.566 225.881 149.623C210.682 151.007 193.444 154.535 193.444 154.535Z" fill="#002373"/>
<path opacity="0.2" d="M276.043 184.193L286.107 192.768C283.963 204.156 282.519 213.609 281.641 222.079C279.72 213.624 274.927 190.669 276.043 184.193Z" fill="black"/>
<path d="M257.773 109.749C255.54 121.137 253.307 142.008 261.286 149.615C261.286 149.615 253.843 166.675 234.118 166.675C214.394 166.675 225.886 149.615 225.886 149.615C238.584 146.638 238.257 137.155 236.054 128.312L257.773 109.749Z" fill="#B55B52"/>
<path d="M258.75 145.345C256.874 149.141 250.83 157.82 233.949 160.916C233.48 161.003 232.995 160.907 232.594 160.648C229.438 158.445 227.473 153.786 228.858 148.382C228.95 148.05 228.947 147.699 228.849 147.368C228.752 147.038 228.564 146.741 228.307 146.512C228.05 146.283 227.734 146.13 227.395 146.071C227.055 146.012 226.706 146.05 226.387 146.179C225.09 146.721 223.845 147.379 222.665 148.144C222.406 148.316 222.196 148.551 222.055 148.829C220.819 151.151 215.817 162.524 230.912 169.536C231.153 169.639 231.41 169.699 231.671 169.714C240.603 169.893 256.219 168.136 266.089 150.362C266.265 150.041 266.344 149.675 266.315 149.31C266.285 148.945 266.15 148.597 265.925 148.307C264.599 146.855 263.058 145.615 261.355 144.631C261.141 144.493 260.9 144.402 260.648 144.363C260.396 144.325 260.139 144.34 259.893 144.407C259.648 144.475 259.419 144.593 259.222 144.755C259.025 144.916 258.864 145.117 258.75 145.345Z" fill="#E01F2A"/>
<path d="M262.904 192.211L242.807 191.63C242.597 191.631 242.389 191.588 242.197 191.503C242.004 191.418 241.832 191.294 241.692 191.138C241.551 190.982 241.445 190.798 241.381 190.598C241.316 190.398 241.295 190.186 241.318 189.978L241.512 187.492C241.57 187.073 241.779 186.691 242.1 186.417C242.421 186.143 242.831 185.995 243.253 186.003L263.35 186.584C263.562 186.582 263.771 186.626 263.964 186.711C264.158 186.797 264.33 186.923 264.471 187.081C264.612 187.238 264.718 187.424 264.781 187.626C264.845 187.828 264.864 188.041 264.839 188.251L264.645 190.722C264.587 191.14 264.378 191.522 264.057 191.797C263.736 192.071 263.326 192.218 262.904 192.211Z" fill="#FAFAFA"/>
<path opacity="0.2" d="M248.922 117.32L236.06 128.291C236.612 130.349 236.98 132.451 237.162 134.574C242 133.874 248.669 128.544 249.19 123.468C249.475 121.42 249.384 119.336 248.922 117.32Z" fill="black"/>
<path d="M272.773 88.2183C269.186 106.931 268.069 114.925 257.291 123.365C241.08 136.078 218.884 127.563 216.83 108.166C214.969 90.7043 221.147 63.0452 240.648 57.9243C244.922 56.7887 249.414 56.7627 253.701 57.8488C257.987 58.9349 261.925 61.0972 265.142 64.1308C268.359 67.1644 270.748 70.9689 272.084 75.1841C273.419 79.3993 273.657 83.8857 272.773 88.2183Z" fill="#B55B52"/>
<path d="M262.133 74.3652C259.811 86.0809 259.26 101.607 269.993 101.607C280.726 101.607 289.137 83.3417 279.878 69.0358C270.618 54.7299 263.488 67.4579 262.133 74.3652Z" fill="#263238"/>
<path d="M280.688 75.807C280.688 88.5498 264.641 82.2529 257.54 76.7597C250.439 71.2666 250.097 71.8621 236.937 71.8472C223.777 71.8323 221.142 70.9242 217.257 64.6421C213.372 58.36 213.729 54.2216 222.482 55.5465C231.235 56.8714 223.882 47.9395 230.402 42.9823C236.922 38.0251 244.648 39.2756 253.565 50.5893C262.482 61.903 280.688 53.7303 280.688 75.807Z" fill="#263238"/>
<path d="M275.967 104.845C277.655 99.086 275.999 93.5302 272.267 92.4361C268.535 91.3421 264.141 95.124 262.453 100.883C260.764 106.643 262.421 112.198 266.152 113.293C269.884 114.387 274.278 110.605 275.967 104.845Z" fill="white"/>
<path d="M246.179 119.253C242.724 119.252 239.305 118.548 236.13 117.184C236.062 117.156 236.001 117.115 235.949 117.063C235.897 117.011 235.856 116.95 235.828 116.882C235.8 116.814 235.786 116.741 235.787 116.668C235.788 116.594 235.803 116.522 235.833 116.454C235.895 116.318 236.007 116.212 236.145 116.156C236.284 116.101 236.438 116.101 236.577 116.157C239.568 117.44 242.787 118.111 246.042 118.129C249.297 118.147 252.522 117.511 255.527 116.261C258.45 115.065 261.104 113.296 263.334 111.059C265.563 108.822 267.322 106.162 268.508 103.235C272.974 90.4476 277.53 74.4893 272.26 64.5302C271.2 62.5919 269.733 60.9058 267.96 59.5876C266.187 58.2694 264.15 57.3503 261.988 56.8935C261.845 56.855 261.722 56.7616 261.647 56.6334C261.572 56.5053 261.55 56.3527 261.586 56.2087C261.625 56.0652 261.718 55.9426 261.846 55.8674C261.974 55.7922 262.127 55.7704 262.271 55.8067C264.58 56.3037 266.756 57.2922 268.649 58.705C270.542 60.1178 272.109 61.9218 273.242 63.9943C278.721 74.2809 274.15 90.5518 269.551 103.577C268.303 106.651 266.452 109.444 264.107 111.791C261.763 114.138 258.972 115.992 255.9 117.243C252.82 118.537 249.519 119.22 246.179 119.253Z" fill="white"/>
<path d="M275.431 104.909C274.106 109.375 271.07 112.516 268.643 111.816C266.217 111.117 265.323 106.859 266.648 102.334C267.973 97.8081 271.01 94.7117 273.437 95.4263C275.863 96.1408 276.756 100.383 275.431 104.909Z" fill="#E01F2A"/>
<path d="M237.678 114.734L231.846 113.608C230.821 113.411 229.829 114.081 229.632 115.107L229.567 115.443C229.369 116.468 230.04 117.459 231.065 117.657L236.897 118.783C237.922 118.98 238.914 118.31 239.112 117.284L239.176 116.948C239.374 115.923 238.704 114.931 237.678 114.734Z" fill="white"/>
<path d="M230.054 89.7769C230.054 89.7769 226.601 96.0441 223.326 98.8576C225.097 101.016 228.67 100.599 228.67 100.599L230.054 89.7769Z" fill="#A02724"/>
<path d="M233.344 108.602H233.478C236.853 108.868 240.203 107.847 242.856 105.743C242.911 105.688 242.941 105.613 242.941 105.535C242.941 105.457 242.911 105.382 242.856 105.326C242.83 105.3 242.799 105.279 242.764 105.264C242.73 105.25 242.693 105.243 242.655 105.243C242.618 105.243 242.581 105.25 242.546 105.264C242.512 105.279 242.481 105.3 242.454 105.326C239.921 107.318 236.735 108.289 233.522 108.051C233.484 108.044 233.445 108.046 233.407 108.056C233.37 108.065 233.334 108.082 233.304 108.106C233.273 108.13 233.247 108.16 233.229 108.194C233.21 108.228 233.198 108.265 233.195 108.304C233.187 108.363 233.197 108.422 233.224 108.475C233.25 108.528 233.292 108.572 233.344 108.602Z" fill="#263238"/>
<path d="M250.381 82.4071C250.465 82.4541 250.56 82.4787 250.657 82.4787C250.753 82.4787 250.848 82.4541 250.932 82.4071C251.059 82.322 251.149 82.1908 251.183 82.041C251.216 81.8913 251.19 81.7344 251.111 81.6032C250.399 80.4111 249.413 79.4057 248.235 78.6705C247.057 77.9353 245.721 77.4914 244.337 77.3755C244.182 77.3754 244.033 77.4361 243.921 77.5446C243.81 77.6531 243.746 77.8007 243.742 77.9561C243.742 78.1075 243.801 78.2529 243.906 78.3614C244.012 78.4699 244.156 78.5327 244.307 78.5366C245.5 78.6503 246.648 79.044 247.66 79.6855C248.671 80.327 249.517 81.1983 250.128 82.2285C250.195 82.3098 250.282 82.3716 250.381 82.4071Z" fill="#263238"/>
<path d="M241.843 90.0222C241.59 91.5108 240.563 92.6571 239.55 92.4933C238.538 92.3296 237.957 91.0047 238.21 89.3969C238.464 87.7892 239.506 86.762 240.503 86.9258C241.5 87.0895 242.111 88.4889 241.843 90.0222Z" fill="#263238"/>
<path d="M224.491 87.0798C224.238 88.5684 223.21 89.7147 222.198 89.5509C221.186 89.3872 220.605 87.9878 220.858 86.4545C221.111 84.9212 222.154 83.8047 223.151 83.9834C224.148 84.162 224.759 85.5316 224.491 87.0798Z" fill="#263238"/>
<path d="M223.589 84.1441L220.076 82.447C220.076 82.447 221.476 85.6476 223.589 84.1441Z" fill="#263238"/>
<path d="M240.939 87.0804L237.425 85.3982C237.425 85.3982 238.825 88.5988 240.939 87.0804Z" fill="#263238"/>
<path d="M218.601 76.7024C218.691 76.7562 218.794 76.7845 218.899 76.7845C219.004 76.7845 219.107 76.7562 219.197 76.7024C220.115 75.9303 221.207 75.3917 222.379 75.1325C223.55 74.8733 224.767 74.9011 225.926 75.2138C226.072 75.2651 226.232 75.2563 226.372 75.1893C226.511 75.1223 226.619 75.0026 226.67 74.8565C226.721 74.7104 226.712 74.5499 226.645 74.4103C226.578 74.2707 226.459 74.1635 226.313 74.1121C224.977 73.7317 223.569 73.6792 222.208 73.9591C220.847 74.239 219.574 74.843 218.497 75.7199C218.435 75.7638 218.383 75.8202 218.343 75.8855C218.304 75.9507 218.279 76.0234 218.269 76.099C218.259 76.1745 218.265 76.2513 218.286 76.3244C218.308 76.3975 218.344 76.4654 218.393 76.5238C218.443 76.6031 218.515 76.6654 218.601 76.7024Z" fill="#263238"/>
<path d="M199.661 289.353C199.661 289.353 199.452 278.695 202.638 270.373H280.569C280.569 270.373 287.58 281.687 289.396 289.353H199.661Z" fill="#031838"/>
<path d="M281.737 265.805L282.348 272.772C282.631 273.322 281.99 273.873 281.082 273.873H202.184C201.484 273.873 200.904 273.531 200.859 273.084L200.145 266.102C200.145 265.626 200.71 265.209 201.484 265.209H280.383C280.641 265.182 280.902 265.222 281.139 265.327C281.377 265.431 281.583 265.596 281.737 265.805Z" fill="#5CC9FC"/>
<path d="M281.737 265.805L282.348 272.772C282.631 273.322 281.99 273.873 281.082 273.873H202.184C201.484 273.873 200.904 273.531 200.859 273.084L200.145 266.102C200.145 265.626 200.71 265.209 201.484 265.209H280.383C280.641 265.182 280.902 265.222 281.139 265.327C281.377 265.431 281.583 265.596 281.737 265.805Z" fill="#E01F2A"/>
<path d="M271.127 274.62H273.241C273.672 274.62 273.985 274.412 273.955 274.144L272.973 265.078C272.973 264.81 272.571 264.602 272.154 264.602H269.995C269.564 264.602 269.251 264.81 269.281 265.078L270.263 274.144C270.338 274.412 270.71 274.62 271.127 274.62Z" fill="#031838"/>
<path d="M208.167 274.62H210.281C210.698 274.62 211.025 274.412 210.996 274.144L209.998 265.078C209.998 264.81 209.611 264.602 209.179 264.602H207.066C206.649 264.602 206.321 264.81 206.351 265.078L207.348 274.144C207.378 274.412 207.75 274.62 208.167 274.62Z" fill="#031838"/>
<path d="M239.652 274.62H241.706C242.123 274.62 242.451 274.412 242.421 274.144L241.423 265.078C241.423 264.81 241.022 264.602 240.605 264.602H238.491C238.074 264.602 237.747 264.81 237.776 265.078L238.774 274.144C238.863 274.412 239.22 274.62 239.652 274.62Z" fill="#031838"/>
<path d="M301.045 176.034C304.468 187.149 307.758 198.324 310.914 209.558L315.663 226.32L318.03 234.657L318.626 236.711L318.923 237.738L318.998 237.976L318.76 237.604C318.383 237.065 317.921 236.593 317.39 236.205C316.225 235.357 314.839 234.866 313.4 234.791C312.313 234.739 311.23 234.954 310.244 235.416C309.173 235.996 309.277 236.13 309.366 236.026C309.619 235.807 309.848 235.562 310.051 235.297C310.753 234.42 311.399 233.5 311.986 232.543C313.296 230.399 314.591 227.988 315.812 225.516C318.343 220.574 320.62 215.334 322.928 210.064C325.235 204.794 327.394 199.465 329.627 194.091C331.86 188.717 333.988 183.313 336.192 177.984L345.704 180.812C343.233 192.424 340.345 203.827 336.772 215.185C335.016 220.887 333.065 226.529 330.818 232.245C329.656 235.103 328.421 237.961 326.888 240.924C326.07 242.526 325.155 244.078 324.148 245.568C323.523 246.504 322.826 247.39 322.064 248.218C320.856 249.589 319.389 250.707 317.747 251.508C316.109 252.305 314.298 252.683 312.477 252.61C310.319 252.49 308.245 251.728 306.523 250.421C305.425 249.594 304.474 248.587 303.709 247.444C303.226 246.711 302.802 245.939 302.444 245.137C302.31 244.809 302.161 244.467 302.057 244.169L301.774 243.44L301.387 242.383L300.613 240.284C299.601 237.5 298.573 234.716 297.636 231.932C295.73 226.365 293.825 220.812 292.038 215.23C288.386 204.075 284.982 192.865 281.826 181.601L301.045 176.034Z" fill="#B65B52"/>
<path d="M294.371 153.973C302.187 156.34 314.141 186.991 314.141 186.991L283.847 208.651C283.847 208.651 270.225 182.451 273.501 172.358C276.924 161.848 285.469 151.263 294.371 153.973Z" fill="#002373"/>
<path d="M336.542 182.07L332.388 163.76L349.657 172.871C349.657 172.871 349.865 185.197 342.898 189.082L336.542 182.07Z" fill="#B55B52"/>
<path d="M339.623 149.225L350.639 157.04L349.657 172.864L332.388 163.754L339.623 149.225Z" fill="#B55B52"/>
<path d="M22.33 105.096H142.911C145.213 105.073 147.495 105.528 149.612 106.433C151.729 107.337 153.636 108.671 155.211 110.35C156.787 112.029 157.997 114.016 158.765 116.187C159.532 118.357 159.842 120.663 159.673 122.96L156.308 177.533C155.938 182.338 153.79 186.831 150.282 190.135C146.775 193.439 142.161 195.315 137.343 195.397H123.379L129.081 214.139L101.809 195.397H16.8071C14.5049 195.42 12.223 194.965 10.1057 194.06C7.98841 193.156 6.0818 191.822 4.50639 190.143C2.93099 188.464 1.72106 186.477 0.953112 184.306C0.185168 182.136 -0.124089 179.83 0.0448875 177.533L3.37946 122.96C3.74915 118.158 5.89591 113.667 9.40028 110.363C12.9046 107.06 17.5148 105.182 22.33 105.096Z" fill="#5CC9FC"/>
<path d="M131.873 133.693H29.9007C29.4678 133.69 29.04 133.598 28.6446 133.422C28.2492 133.245 27.8947 132.989 27.6036 132.668C27.3125 132.348 27.0911 131.97 26.9535 131.56C26.816 131.149 26.7652 130.715 26.8043 130.284C26.871 129.38 27.2729 128.534 27.9311 127.912C28.5894 127.289 29.4564 126.935 30.3622 126.919H132.35C132.78 126.92 133.206 127.01 133.601 127.182C133.995 127.355 134.35 127.607 134.644 127.922C134.937 128.238 135.162 128.61 135.305 129.016C135.448 129.423 135.506 129.854 135.476 130.284C135.423 131.204 135.02 132.069 134.351 132.703C133.681 133.336 132.795 133.69 131.873 133.693Z" fill="white"/>
<path d="M71.4589 153.621H28.6751C28.2419 153.624 27.8127 153.538 27.4145 153.367C27.0164 153.196 26.6578 152.945 26.3614 152.629C26.065 152.313 25.8372 151.939 25.6922 151.531C25.5473 151.123 25.4884 150.689 25.5192 150.257C25.5861 149.351 25.9901 148.503 26.6515 147.88C27.3128 147.257 28.1836 146.905 29.0919 146.892H71.9204C72.3548 146.887 72.7857 146.972 73.1856 147.142C73.5856 147.312 73.9459 147.563 74.2439 147.879C74.5419 148.195 74.7711 148.57 74.917 148.979C75.0628 149.388 75.1221 149.823 75.0912 150.257C75.02 151.172 74.6066 152.026 73.9333 152.65C73.2601 153.273 72.3766 153.62 71.4589 153.621Z" fill="white"/>
<path d="M108.125 173.542H27.4549C27.0217 173.545 26.5925 173.458 26.1943 173.288C25.7961 173.117 25.4376 172.866 25.1412 172.55C24.8448 172.234 24.617 171.86 24.472 171.452C24.3271 171.043 24.2682 170.609 24.299 170.177C24.3625 169.27 24.7655 168.42 25.4276 167.797C26.0897 167.173 26.9623 166.822 27.8717 166.813H108.542C108.975 166.808 109.406 166.893 109.805 167.063C110.204 167.232 110.564 167.484 110.861 167.8C111.157 168.117 111.385 168.491 111.529 168.901C111.673 169.31 111.731 169.745 111.698 170.177C111.631 171.083 111.227 171.931 110.565 172.554C109.904 173.177 109.033 173.529 108.125 173.542Z" fill="white"/>
<path d="M102.881 153.621H86.015C85.5817 153.624 85.1525 153.538 84.7544 153.367C84.3562 153.196 83.9976 152.945 83.7012 152.629C83.4048 152.313 83.177 151.939 83.0321 151.531C82.8871 151.123 82.8282 150.689 82.859 150.257C82.9293 149.352 83.3343 148.506 83.9949 147.884C84.6556 147.262 85.5244 146.908 86.4318 146.892H103.283C103.717 146.887 104.147 146.972 104.547 147.142C104.946 147.312 105.305 147.563 105.602 147.879C105.899 148.196 106.127 148.571 106.271 148.98C106.415 149.389 106.472 149.824 106.439 150.257C106.373 151.16 105.971 152.006 105.312 152.629C104.654 153.251 103.787 153.605 102.881 153.621Z" fill="white"/>
<path d="M190.227 7.00058H124.489C120.74 7.05684 117.147 8.51305 114.418 11.0831C111.688 13.6531 110.018 17.1511 109.736 20.8897L107.176 63.3757C107.048 65.162 107.292 66.9554 107.892 68.6427C108.492 70.3301 109.435 71.8749 110.661 73.1798C111.888 74.4846 113.371 75.5213 115.018 76.2244C116.665 76.9274 118.44 77.2817 120.231 77.2648H130.994L124.771 91.8536L147.786 77.2648H185.925C189.674 77.2085 193.266 75.7523 195.996 73.1823C198.726 70.6123 200.396 67.1143 200.678 63.3757L203.283 20.8897C203.41 19.1034 203.166 17.31 202.566 15.6226C201.967 13.9353 201.024 12.3905 199.797 11.0856C198.571 9.78073 197.087 8.74409 195.44 8.04101C193.793 7.33794 192.018 6.98369 190.227 7.00058Z" fill="#5CC9FC"/>
<g opacity="0.5">
<path opacity="0.5" d="M190.227 7.00058H124.489C120.74 7.05684 117.147 8.51305 114.418 11.0831C111.688 13.6531 110.018 17.1511 109.736 20.8897L107.176 63.3757C107.048 65.162 107.292 66.9554 107.892 68.6427C108.492 70.3301 109.435 71.8749 110.661 73.1798C111.888 74.4846 113.371 75.5213 115.018 76.2244C116.665 76.9274 118.44 77.2817 120.231 77.2648H130.994L124.771 91.8536L147.786 77.2648H185.925C189.674 77.2085 193.266 75.7523 195.996 73.1823C198.726 70.6123 200.396 67.1143 200.678 63.3757L203.283 20.8897C203.41 19.1034 203.166 17.31 202.566 15.6226C201.967 13.9353 201.024 12.3905 199.797 11.0856C198.571 9.78073 197.087 8.74409 195.44 8.04101C193.793 7.33794 192.018 6.98369 190.227 7.00058Z" fill="#FAFAFA"/>
</g>
<path d="M158.531 49.079C158.304 50.0147 157.771 50.8473 157.015 51.4438C156.259 52.0402 155.325 52.366 154.363 52.3689H150.477C150.477 51.2673 150.567 50.5974 150.582 50.3593C150.638 48.2135 151.188 46.1097 152.189 44.2111C153.596 42.0947 155.383 40.2575 157.459 38.7925C159.115 37.5925 160.678 36.2688 162.133 34.8326C162.906 33.9187 163.365 32.7814 163.443 31.5874C163.502 30.7963 163.378 30.0024 163.081 29.2668C162.784 28.5313 162.323 27.8737 161.731 27.3447C160.287 26.1075 158.42 25.4779 156.521 25.5881C154.525 25.5337 152.574 26.1876 151.013 27.4341C150.086 28.1991 149.326 29.1466 148.78 30.2178C148.378 31.0003 147.754 31.6466 146.986 32.0757C146.218 32.5047 145.34 32.6974 144.463 32.6294C143.832 32.5513 143.231 32.3153 142.715 31.9432C142.199 31.571 141.786 31.0748 141.513 30.5005C141.24 29.9262 141.116 29.2922 141.153 28.6574C141.19 28.0225 141.386 27.4072 141.724 26.8684C142.622 25.3608 143.776 24.0209 145.133 22.9086C148.359 20.3152 152.415 18.9773 156.551 19.1423C161.419 19.1423 165.2 20.4076 167.924 22.9532C169.2 24.0497 170.203 25.4269 170.857 26.9766C171.51 28.5264 171.796 30.2065 171.691 31.8851C171.554 33.7931 170.895 35.6265 169.785 37.1847C167.694 39.7595 165.277 42.0513 162.595 44.0027C161.205 44.9729 160.005 46.1888 159.052 47.5904C158.81 48.0599 158.634 48.561 158.531 49.079ZM150.031 59.7675V59.2911C150.109 58.2154 150.589 57.2083 151.374 56.4693C152.16 55.7304 153.195 55.3136 154.273 55.3016H154.809C155.325 55.294 155.837 55.3938 156.312 55.5946C156.787 55.7955 157.216 56.0929 157.57 56.468C157.924 56.8432 158.196 57.2879 158.369 57.7739C158.543 58.2599 158.613 58.7766 158.576 59.2911V59.7675C158.497 60.8447 158.018 61.8535 157.233 62.5948C156.448 63.3362 155.413 63.7562 154.333 63.772H153.857C153.334 63.7881 152.815 63.6942 152.331 63.4962C151.848 63.2983 151.411 63.0007 151.051 62.623C150.69 62.2453 150.412 61.7958 150.237 61.3038C150.061 60.8119 149.991 60.2884 150.031 59.7675Z" fill="#002373"/>
<defs>
<linearGradient id="paint0_linear_14955_84025" x1="198.107" y1="158.108" x2="374.893" y2="334.893" gradientUnits="userSpaceOnUse">
<stop stop-color="#5CC9FC"/>
<stop offset="1" stop-color="#5CC9FC" stop-opacity="0"/>
</linearGradient>
</defs>
</svg>
