<svg width="30" height="30" viewBox="0 0 30 30" fill="none" xmlns="http://www.w3.org/2000/svg">
<circle opacity="0.25" cx="15" cy="15" r="12" fill="white"/>
<path d="M7.76087 9C6.7956 9 6 9.7956 6 10.7609V18.587C6 19.5522 6.7956 20.3478 7.76087 20.3478H22.2391C23.2044 20.3478 24 19.5522 24 18.587V10.7609C24 9.7956 23.2044 9 22.2391 9H7.76087ZM7.76087 10.1739H22.2391C22.5746 10.1739 22.8261 10.4254 22.8261 10.7609V18.587C22.8261 18.9225 22.5746 19.1739 22.2391 19.1739H7.76087C7.42537 19.1739 7.17391 18.9225 7.17391 18.587V10.7609C7.17391 10.4254 7.42537 10.1739 7.76087 10.1739ZM11.087 11.5435C10.2295 11.5435 9.52174 12.2512 9.52174 13.1087C9.52174 13.9662 10.2295 14.6739 11.087 14.6739C11.9445 14.6739 12.6522 13.9662 12.6522 13.1087C12.6522 12.2512 11.9445 11.5435 11.087 11.5435ZM11.087 14.6739C10.2784 14.6739 9.53778 14.878 8.9653 15.2486C8.39283 15.6193 7.95648 16.194 7.95648 16.8872V17.2174C7.95648 17.5246 8.23621 17.8043 8.54344 17.8043H13.6304C13.9376 17.8043 14.2174 17.5246 14.2174 17.2174V16.8872C14.2174 16.194 13.781 15.6193 13.2085 15.2486C12.6361 14.878 11.8955 14.6739 11.0869 14.6739H11.087ZM15.587 11.9348C15.2629 11.9348 15 12.1977 15 12.5217C15 12.8458 15.2629 13.1087 15.587 13.1087H21.4565C21.7806 13.1087 22.0435 12.8458 22.0435 12.5217C22.0435 12.1977 21.7806 11.9348 21.4565 11.9348H15.587ZM11.087 12.7174C11.3101 12.7174 11.4783 12.8855 11.4783 13.1087C11.4783 13.3319 11.3101 13.5 11.087 13.5C10.8638 13.5 10.6957 13.3319 10.6957 13.1087C10.6957 12.8855 10.8638 12.7174 11.087 12.7174ZM15.587 14.087C15.2629 14.087 15 14.3499 15 14.6739C15 14.998 15.2629 15.2609 15.587 15.2609H21.4565C21.7806 15.2609 22.0435 14.998 22.0435 14.6739C22.0435 14.3499 21.7806 14.087 21.4565 14.087H15.587ZM11.087 15.8478C11.6877 15.8478 12.2196 16.0091 12.5666 16.233C12.7706 16.3645 12.8807 16.5013 12.9518 16.6304H9.22225C9.29333 16.5013 9.40339 16.3645 9.60745 16.233C9.95442 16.0091 10.4864 15.8478 11.0871 15.8478H11.087ZM15.587 16.2391C15.2629 16.2391 15 16.502 15 16.8261C15 17.1501 15.2629 17.413 15.587 17.413H21.4565C21.7806 17.413 22.0435 17.1501 22.0435 16.8261C22.0435 16.502 21.7806 16.2391 21.4565 16.2391H15.587Z" fill="white"/>
<circle opacity="0.25" cx="15" cy="15" r="14.5" stroke="white"/>
</svg>
