<svg width="252" height="220" viewBox="0 0 252 220" fill="none" xmlns="http://www.w3.org/2000/svg">
<path d="M252 199.825H239.947V199.982H252V199.825Z" fill="#EBEBEB"/>
<path d="M234.362 199.825H215.377V199.982H234.362V199.825Z" fill="#EBEBEB"/>
<path d="M204.922 198.791H178.246V198.948H204.922V198.791Z" fill="#EBEBEB"/>
<path d="M235.628 8.06671H162.859V94.9516H235.628V8.06671Z" fill="#E6E6E6"/>
<path d="M237.446 8.06671H164.676V94.9516H237.446V8.06671Z" fill="#F5F5F5"/>
<path d="M234.187 91.285V11.7272L167.942 11.7272V91.285H234.187Z" fill="white"/>
<path d="M234.18 91.285V11.7272H232.808V91.285H234.18Z" fill="#E6E6E6"/>
<path d="M236.092 72.4375H166.024V77.3578H236.092V72.4375Z" fill="#F5F5F5"/>
<path d="M241 2.00574H159.304C159.171 2.00574 159.044 2.05857 158.95 2.1526C158.856 2.24664 158.803 2.37418 158.803 2.50717C158.803 2.64015 158.856 2.76769 158.95 2.86173C159.044 2.95576 159.171 3.00859 159.304 3.00859H241C241.133 3.00859 241.26 2.95576 241.354 2.86173C241.448 2.76769 241.501 2.64015 241.501 2.50717C241.501 2.37418 241.448 2.24664 241.354 2.1526C241.26 2.05857 241.133 2.00574 241 2.00574Z" fill="#E6E6E6"/>
<path d="M241.501 5.01428C242.886 5.01428 244.008 3.89179 244.008 2.50714C244.008 1.12248 242.886 0 241.501 0C240.117 0 238.994 1.12248 238.994 2.50714C238.994 3.89179 240.117 5.01428 241.501 5.01428Z" fill="#E6E6E6"/>
<path d="M163.536 5.31507C163.356 5.31507 163.184 5.24376 163.057 5.11681C162.93 4.98986 162.859 4.81768 162.859 4.63815V3.18401C162.86 3.00498 162.932 2.83375 163.059 2.70715C163.185 2.58056 163.357 2.50872 163.536 2.50708C163.715 2.50708 163.887 2.5784 164.014 2.70535C164.141 2.83229 164.213 3.00448 164.213 3.18401V4.63815C164.213 4.81768 164.141 4.98986 164.014 5.11681C163.887 5.24376 163.715 5.31507 163.536 5.31507Z" fill="#E6E6E6"/>
<path d="M233.428 5.31507C233.249 5.31507 233.076 5.24376 232.949 5.11681C232.823 4.98986 232.751 4.81768 232.751 4.63815V3.18401C232.753 3.00498 232.825 2.83375 232.951 2.70715C233.078 2.58056 233.249 2.50872 233.428 2.50708C233.608 2.50708 233.78 2.5784 233.907 2.70535C234.034 2.83229 234.105 3.00448 234.105 3.18401V4.63815C234.105 4.81768 234.034 4.98986 233.907 5.11681C233.78 5.24376 233.608 5.31507 233.428 5.31507Z" fill="#E6E6E6"/>
<path opacity="0.5" d="M240.837 2.50708H166.024V38.9985H240.837V2.50708Z" fill="#E0E0E0"/>
<path d="M171.608 5.01428C172.993 5.01428 174.115 3.89179 174.115 2.50714C174.115 1.12248 172.993 0 171.608 0C170.224 0 169.101 1.12248 169.101 2.50714C169.101 3.89179 170.224 5.01428 171.608 5.01428Z" fill="#E6E6E6"/>
<path d="M28.6825 104.284H2.13818L4.48863 73.2147H26.3321L28.6825 104.284Z" fill="#EBEBEB"/>
<path d="M22.8597 104.284H18.2967L17.3252 73.2147H21.5372L22.8597 104.284Z" fill="#F5F5F5"/>
<path d="M16.7425 104.284H14.085V190.699H16.7425V104.284Z" fill="#F0F0F0"/>
<path d="M16.4163 117.015H14.4106C13.4344 117.015 12.6431 117.806 12.6431 118.782V125.307C12.6431 126.283 13.4344 127.074 14.4106 127.074H16.4163C17.3925 127.074 18.1838 126.283 18.1838 125.307V118.782C18.1838 117.806 17.3925 117.015 16.4163 117.015Z" fill="#F0F0F0"/>
<path d="M16.4163 133.135H14.4106C13.4344 133.135 12.6431 133.927 12.6431 134.903V141.428C12.6431 142.404 13.4344 143.195 14.4106 143.195H16.4163C17.3925 143.195 18.1838 142.404 18.1838 141.428V134.903C18.1838 133.927 17.3925 133.135 16.4163 133.135Z" fill="#F0F0F0"/>
<path d="M19.6132 190.699H11.208C11.208 190.224 11.3969 189.768 11.733 189.432C12.0692 189.096 12.5252 188.907 13.0006 188.907H17.8206C18.296 188.907 18.752 189.096 19.0882 189.432C19.4243 189.768 19.6132 190.224 19.6132 190.699Z" fill="#F0F0F0"/>
<path d="M16.7425 104.284H14.085V105.908H16.7425V104.284Z" fill="#E0E0E0"/>
<path d="M32.8193 78.5048L106.178 78.5048L106.178 4.94528L32.8193 4.94528L32.8193 78.5048Z" fill="#F0F0F0"/>
<path d="M32.8193 4.94531H31.5532V78.5048H32.8193V4.94531Z" fill="#E0E0E0"/>
<path d="M39.3004 73.854L99.7036 73.854L99.7036 9.58974L39.3004 9.58974L39.3004 73.854Z" fill="#FAFAFA"/>
<path d="M66.0265 59.6135H72.9838C80.3502 59.6135 86.3218 53.6419 86.3218 46.2755V37.1684C86.3218 29.802 80.3502 23.8304 72.9838 23.8304H66.0265C58.6601 23.8304 52.6885 29.802 52.6885 37.1684V46.2755C52.6885 53.6419 58.6601 59.6135 66.0265 59.6135Z" fill="#F5F5F5"/>
<path d="M227.881 106.108H199.958V190.693H227.881V106.108Z" fill="#E6E6E6"/>
<path d="M214.248 190.699H227.881V179.022H199.958L214.248 190.699Z" fill="#FAFAFA"/>
<path d="M116.52 106.108H88.5969V190.693H116.52V106.108Z" fill="#E6E6E6"/>
<path d="M227.875 106.108H104.624V186.675H227.875V106.108Z" fill="#FAFAFA"/>
<path d="M118.256 190.699H104.63V179.022H132.553L118.256 190.699Z" fill="#FAFAFA"/>
<path d="M217.307 136.131H115.204V156.295H217.307V136.131Z" fill="#F0F0F0"/>
<path d="M217.307 160.607H115.204V180.771H217.307V160.607Z" fill="#F0F0F0"/>
<path d="M192.988 138.288H139.517C138.483 138.288 137.491 137.877 136.76 137.146C136.029 136.415 135.618 135.423 135.618 134.389H196.887C196.887 134.901 196.787 135.408 196.592 135.882C196.396 136.355 196.109 136.785 195.747 137.147C195.384 137.51 194.954 137.797 194.481 137.992C194.008 138.188 193.5 138.288 192.988 138.288Z" fill="#FAFAFA"/>
<path d="M217.307 111.662H115.204V131.825H217.307V111.662Z" fill="#F0F0F0"/>
<path d="M192.988 113.818H139.517C138.482 113.816 137.491 113.404 136.76 112.672C136.029 111.94 135.618 110.948 135.618 109.913H196.887C196.887 110.425 196.787 110.933 196.592 111.407C196.396 111.881 196.109 112.311 195.747 112.674C195.385 113.036 194.955 113.324 194.481 113.52C194.008 113.717 193.501 113.818 192.988 113.818Z" fill="#FAFAFA"/>
<path d="M192.988 162.764H139.517C138.482 162.762 137.491 162.35 136.76 161.618C136.029 160.886 135.618 159.893 135.618 158.859H196.887C196.887 159.371 196.787 159.879 196.592 160.353C196.396 160.826 196.109 161.257 195.747 161.619C195.385 161.982 194.955 162.27 194.481 162.466C194.008 162.663 193.501 162.764 192.988 162.764Z" fill="#FAFAFA"/>
<path d="M129.15 219.005C196.268 219.005 250.678 215.828 250.678 211.91C250.678 207.991 196.268 204.814 129.15 204.814C62.0327 204.814 7.62305 207.991 7.62305 211.91C7.62305 215.828 62.0327 219.005 129.15 219.005Z" fill="#F5F5F5"/>
<path d="M19.8076 87.3362H113.349C110.573 87.3019 107.911 86.2243 105.893 84.3175C103.874 82.4107 102.647 79.8143 102.455 77.0444L100.801 49.165H7.26562L8.91407 77.0444C9.10589 79.8143 10.3329 82.4107 12.3511 84.3175C14.3694 86.2243 17.0312 87.3019 19.8076 87.3362Z" fill="#2825A4"/>
<path opacity="0.6" d="M19.8076 87.3362H113.349C110.573 87.3019 107.911 86.2243 105.893 84.3175C103.874 82.4107 102.647 79.8143 102.455 77.0444L100.801 49.165H7.26562L8.91407 77.0444C9.10589 79.8143 10.3329 82.4107 12.3511 84.3175C14.3694 86.2243 17.0312 87.3019 19.8076 87.3362Z" fill="white"/>
<path d="M120.281 30.6184H37.0129C35.6855 30.6028 34.3692 30.8629 33.1475 31.3823C31.9258 31.9018 30.8253 32.6692 29.9156 33.6361C29.0059 34.603 28.3068 35.7482 27.8627 36.9992C27.4185 38.2503 27.239 39.5799 27.3354 40.904L29.4915 77.0506C29.5899 78.3751 29.4116 79.7056 28.9682 80.9575C28.5248 82.2094 27.8258 83.3553 26.9157 84.3226C26.0056 85.2899 24.9043 86.0573 23.6817 86.5761C22.4591 87.0949 21.142 87.3537 19.814 87.3362H113.349C114.677 87.3537 115.994 87.0949 117.217 86.5761C118.439 86.0573 119.541 85.2899 120.451 84.3226C121.361 83.3553 122.06 82.2094 122.503 80.9575C122.947 79.7056 123.125 78.3751 123.027 77.0506L123.259 80.9618L120.889 40.929C120.787 39.6025 120.963 38.2694 121.405 37.0145C121.846 35.7596 122.545 34.6105 123.455 33.6404C124.366 32.6704 125.468 31.9007 126.693 31.3804C127.917 30.8601 129.237 30.6006 130.567 30.6184H120.281Z" fill="#2825A4"/>
<path d="M130.567 30.6184H37.0127C39.7889 30.6497 42.4515 31.7255 44.4702 33.6315C46.489 35.5376 47.7157 38.1341 47.9062 40.9039L55.9604 176.722H149.496L141.46 40.929C141.273 38.1557 140.048 35.5547 138.029 33.644C136.01 31.7333 133.346 30.6531 130.567 30.6184Z" fill="#2825A4"/>
<path opacity="0.2" d="M130.567 30.6184H37.0127C39.7889 30.6497 42.4515 31.7255 44.4702 33.6315C46.489 35.5376 47.7157 38.1341 47.9062 40.9039L55.9604 176.722H149.496L141.46 40.929C141.273 38.1557 140.048 35.5547 138.029 33.644C136.01 31.7333 133.346 30.6531 130.567 30.6184Z" fill="white"/>
<path d="M79.421 69.2785H62.0841L61.0374 51.9291H78.3805L79.421 69.2785ZM63.9644 67.2352H77.2335L76.5001 53.9661H63.206L63.9644 67.2352Z" fill="#5CC9FC"/>
<path d="M81.8404 110.088H64.4847L63.4568 92.7328H80.8125L81.8404 110.088ZM66.4027 108.045H79.6717L78.8882 94.7761H65.6192L66.4027 108.045Z" fill="#5CC9FC"/>
<path d="M84.2536 150.898H66.898L65.845 133.543H83.2006L84.2536 150.898ZM68.8222 148.855H82.0912L81.3015 135.586H68.0325L68.8222 148.855Z" fill="#5CC9FC"/>
<path d="M127.796 51.9229H87.895V53.9662H127.796V51.9229Z" fill="white"/>
<path d="M123.559 59.5822H88.3464V61.6255H123.559V59.5822Z" fill="white"/>
<path d="M128.699 67.2352H88.7976V69.2785H128.699V67.2352Z" fill="white"/>
<path d="M130.209 92.7328H90.3083V94.7761H130.209V92.7328Z" fill="white"/>
<path d="M114.182 100.392H90.7595V102.435H114.182V100.392Z" fill="white"/>
<path d="M103.308 108.045H91.2173V110.088H103.308V108.045Z" fill="white"/>
<path d="M131.118 108.045H111.168V110.088H131.118V108.045Z" fill="white"/>
<path d="M132.623 133.543H92.7217V135.586H132.623V133.543Z" fill="white"/>
<path d="M133.08 141.202H93.1792V143.245H133.08V141.202Z" fill="white"/>
<path d="M115.699 148.855H93.6304V150.898H115.699V148.855Z" fill="white"/>
<path d="M71.8807 65.1919C71.447 65.1924 71.0297 65.0264 70.7149 64.7281L66.4716 60.7041C66.3094 60.5506 66.1791 60.3667 66.088 60.1628C65.9969 59.9589 65.9469 59.7391 65.9408 59.5159C65.9285 59.0651 66.0957 58.6279 66.4057 58.3004C66.7158 57.9729 67.1432 57.782 67.594 57.7697C68.0448 57.7573 68.482 57.9246 68.8095 58.2346L71.8306 61.0865L78.6312 53.8596C78.9404 53.5313 79.3673 53.3393 79.8181 53.3258C80.2689 53.3123 80.7066 53.4784 81.0349 53.7876C81.3632 54.0968 81.5553 54.5237 81.5688 54.9745C81.5823 55.4253 81.4162 55.863 81.107 56.1913L73.1405 64.6592C72.9878 64.8232 72.8037 64.9548 72.5992 65.0464C72.3946 65.1379 72.1737 65.1874 71.9497 65.1919H71.8807Z" fill="#7DDD81"/>
<path d="M74.3003 106.002C73.8664 106.004 73.4486 105.837 73.1345 105.538L68.8724 101.514C68.7045 101.362 68.5686 101.179 68.4726 100.974C68.3767 100.769 68.3226 100.547 68.3136 100.321C68.3046 100.095 68.3408 99.8694 68.4202 99.6576C68.4996 99.4457 68.6205 99.2519 68.7758 99.0874C68.9311 98.9229 69.1177 98.7911 69.3246 98.6997C69.5316 98.6083 69.7547 98.5592 69.9809 98.5552C70.2071 98.5512 70.4318 98.5924 70.6418 98.6764C70.8519 98.7605 71.043 98.8856 71.204 99.0445L74.2314 101.896L81.0257 94.6696C81.3349 94.3413 81.7619 94.1492 82.2127 94.1357C82.6634 94.1222 83.1011 94.2883 83.4294 94.5975C83.7578 94.9067 83.9498 95.3337 83.9633 95.7844C83.9768 96.2352 83.8107 96.6729 83.5015 97.0012L75.5351 105.469C75.3833 105.633 75.2003 105.764 74.9968 105.856C74.7933 105.947 74.5735 105.997 74.3505 106.002H74.3003Z" fill="#7DDD81"/>
<path d="M76.7132 146.818C76.2785 146.818 75.8608 146.649 75.5473 146.348L71.2852 142.324C71.1173 142.172 70.9814 141.989 70.8855 141.784C70.7895 141.579 70.7354 141.357 70.7264 141.131C70.7174 140.905 70.7537 140.679 70.8331 140.468C70.9124 140.256 71.0333 140.062 71.1886 139.897C71.3439 139.733 71.5305 139.601 71.7375 139.51C71.9444 139.418 72.1675 139.369 72.3937 139.365C72.6199 139.361 72.8446 139.402 73.0547 139.486C73.2647 139.57 73.4558 139.696 73.6168 139.854L76.6442 142.706L83.4448 135.48C83.7633 135.206 84.1717 135.06 84.5914 135.07C85.0111 135.08 85.4123 135.245 85.7176 135.533C86.0229 135.821 86.2106 136.212 86.2446 136.63C86.2787 137.049 86.1566 137.465 85.9018 137.799L77.9354 146.266C77.782 146.43 77.5978 146.561 77.3934 146.652C77.1889 146.744 76.9684 146.794 76.7445 146.799L76.7132 146.818Z" fill="#7DDD81"/>
<path d="M166.605 50.7531L154.431 53.7454L190.76 201.536L202.933 198.543L166.605 50.7531Z" fill="#2825A4"/>
<path d="M166.598 50.7519L162.891 51.663L199.219 199.453L202.926 198.542L166.598 50.7519Z" fill="#5CC9FC"/>
<path d="M202.013 200.742L192.579 203.061C191.822 203.247 191.36 204.011 191.546 204.767L193.126 211.194C193.312 211.951 194.076 212.413 194.832 212.227L204.266 209.908C205.023 209.722 205.485 208.959 205.299 208.202L203.719 201.775C203.533 201.018 202.769 200.556 202.013 200.742Z" fill="#2825A4"/>
<path opacity="0.7" d="M202.013 200.742L192.579 203.061C191.822 203.247 191.36 204.011 191.546 204.767L193.126 211.194C193.312 211.951 194.076 212.413 194.832 212.227L204.266 209.908C205.023 209.722 205.485 208.959 205.299 208.202L203.719 201.775C203.533 201.018 202.769 200.556 202.013 200.742Z" fill="white"/>
<path d="M202.086 196.417L190.516 199.261C189.816 199.433 189.389 200.139 189.561 200.838L190.596 205.05C190.768 205.749 191.474 206.177 192.173 206.005L203.744 203.161C204.443 202.989 204.871 202.283 204.699 201.583L203.664 197.371C203.492 196.672 202.785 196.245 202.086 196.417Z" fill="#E0E0E0"/>
<path d="M166.606 50.7382L154.434 53.7342L155.863 43.549L156.778 37.0179L160.62 42.3769L166.606 50.7382Z" fill="#E0E0E0"/>
<path d="M160.621 42.3769L155.864 43.549L156.779 37.0179L160.621 42.3769Z" fill="#2825A4"/>
<path d="M198.046 41.0732C197.983 44.834 197.256 51.9229 199.237 54.2357C194.684 55.7329 190.602 58.395 187.397 61.9577C184.683 57.5201 188.224 55.132 188.224 55.132C192.129 53.8785 191.891 50.9388 191.07 48.2374L198.046 41.0732Z" fill="#FFB573"/>
<path d="M186.244 58.1281C187.278 54.2859 184.363 53.7406 189.221 51.8602C193.019 50.356 200.196 50.1428 201.882 51.3525C202.816 52.0295 201.531 54.3987 201.531 54.3987L186.244 58.1281Z" fill="#263238"/>
<path d="M207.297 57.3007C207.579 57.752 207.78 58.0967 208.006 58.4916C208.231 58.8865 208.419 59.25 208.632 59.6323C209.034 60.397 209.41 61.1617 209.773 61.9389C210.5 63.4871 211.133 65.0728 211.716 66.6774C212.887 69.9275 213.727 73.2873 214.223 76.7059L214.386 77.9971C214.418 78.1789 214.443 78.5048 214.462 78.7869C214.48 79.0689 214.462 79.3259 214.462 79.5766C214.447 80.5013 214.378 81.4243 214.255 82.3407C214.035 84.0707 213.703 85.7066 213.34 87.355C212.599 90.5701 211.664 93.7371 210.538 96.8383C210.388 97.2588 210.091 97.6104 209.701 97.8274C209.311 98.0444 208.855 98.1121 208.419 98.0176C207.983 97.9231 207.596 97.6731 207.331 97.3142C207.065 96.9552 206.94 96.512 206.978 96.0673C207.229 92.8833 207.523 89.6741 207.755 86.5402C207.868 84.9732 207.956 83.4063 207.981 81.9271C207.981 81.1937 207.981 80.4667 207.912 79.8587L207.855 79.4387L207.774 79.0313L207.542 77.9407C206.872 75.0034 205.971 72.1237 204.847 69.3287C204.283 67.9247 203.675 66.5332 203.035 65.1606C202.718 64.4711 202.386 63.7942 202.039 63.1298L201.512 62.1395L201.017 61.2306L200.929 61.0677C200.473 60.226 200.362 59.2395 200.621 58.3177C200.88 57.3958 201.488 56.6113 202.316 56.1307C203.145 55.6501 204.128 55.5113 205.057 55.7438C205.985 55.9763 206.787 56.5618 207.291 57.3759L207.297 57.3007Z" fill="#FFB573"/>
<path d="M205.618 98.1044L206.138 97.2394L207.605 94.7699L210.294 96.293C210.851 98.8001 209.147 101.019 209.147 101.019L208.388 101.646C208.13 101.871 207.795 101.989 207.453 101.976C207.111 101.963 206.786 101.82 206.545 101.577L205.963 101.038C205.596 100.652 205.364 100.157 205.302 99.6285C205.24 99.0996 205.35 98.5649 205.618 98.1044Z" fill="#FFB573"/>
<path d="M169.891 96.8257L169.458 95.2587C169.357 94.8901 169.115 94.576 168.784 94.3838C168.454 94.1916 168.061 94.1367 167.691 94.2308L165.81 94.7134L164.651 95.0017C164.041 95.1608 163.499 95.5142 163.108 96.0084C162.717 96.5025 162.497 97.1106 162.482 97.7408V98.6747C162.48 99.0815 162.631 99.4741 162.907 99.7732C163.183 100.072 163.562 100.255 163.968 100.286L165.127 100.398C166.867 100.121 168.462 99.2642 169.653 97.9664C169.782 97.8098 169.871 97.6241 169.912 97.4254C169.954 97.2267 169.946 97.0209 169.891 96.8257Z" fill="#FFB573"/>
<path d="M204.163 54.5428C207.454 56.0032 210.469 59.4819 212.938 65.919C212.149 68.5703 203.994 72.9139 203.994 72.9139C203.994 72.9139 193.821 51.3462 204.163 54.5428Z" fill="#2825A4"/>
<path d="M176.942 62.7851C176.974 65.1731 173.018 70.7076 177.569 73.9167C177.964 78.7493 178.497 83.5066 179.531 91.4354H203.869C201.556 82.6604 203.555 76.7686 207.266 61.3497C207.478 60.5212 207.508 59.6566 207.355 58.8152C207.202 57.9739 206.868 57.1756 206.378 56.475C205.887 55.7744 205.251 55.188 204.513 54.7561C203.775 54.3242 202.952 54.0569 202.101 53.9724C201.13 53.8784 200.102 53.797 199.055 53.7405C195.374 53.4769 191.679 53.4769 187.999 53.7405C186.802 53.8471 185.567 53.9975 184.382 54.1605C182.312 54.4622 180.42 55.5004 179.053 57.0846C177.686 58.6689 176.937 60.6928 176.942 62.7851Z" fill="#2825A4"/>
<path d="M185.003 60.4597C185.059 62.2523 185.003 63.9697 185.003 65.7247C185.003 67.4797 184.89 69.2159 184.777 70.9708C184.583 74.5288 184.164 78.0709 183.523 81.576C183.448 82.0211 183.329 82.4849 183.223 82.9362C183.116 83.3875 183.022 83.8387 182.878 84.3151L182.677 85.0108L182.571 85.3618C182.53 85.5194 182.48 85.6744 182.42 85.8256C182.158 86.5007 181.799 87.1341 181.355 87.706C180.743 88.4993 180.075 89.2471 179.355 89.9436C178.697 90.6017 178.027 91.1972 177.35 91.824C174.684 94.1203 171.852 96.2153 168.875 98.0918C168.502 98.3266 168.056 98.4194 167.62 98.3535C167.184 98.2876 166.785 98.0672 166.498 97.7325C166.21 97.3978 166.052 96.971 166.052 96.5297C166.053 96.0884 166.212 95.6619 166.5 95.3277C168.738 92.7767 171.044 90.2445 173.194 87.7373C173.721 87.1106 174.234 86.4838 174.723 85.857C175.182 85.3003 175.601 84.7117 175.977 84.0957C176.127 83.8638 176.221 83.5818 176.14 83.7385C176.058 83.8951 176.14 83.657 176.14 83.588L176.196 83.3122L176.315 82.7669C176.403 82.4159 176.453 82.0211 176.516 81.6387C176.579 81.2564 176.654 80.874 176.691 80.4729C177.118 77.3076 177.318 73.9732 177.437 70.6387C177.556 67.3042 177.632 63.907 177.65 60.6101C177.645 60.1269 177.735 59.6474 177.915 59.199C178.095 58.7506 178.361 58.342 178.699 57.9966C179.382 57.2989 180.313 56.9009 181.289 56.8901C182.265 56.8793 183.205 57.2566 183.903 57.9389C184.6 58.6213 184.998 59.5528 185.009 60.5286L185.003 60.4597Z" fill="#FFB573"/>
<path d="M182.32 54.7184C179.318 56.2101 176.34 59.1059 175.106 65.7372C175.889 68.3635 186.62 73.4216 186.62 73.4216C186.62 73.4216 192.593 50.8824 182.32 54.7184Z" fill="#2825A4"/>
<path d="M182.978 38.6789C183.06 39.149 182.872 39.5877 182.558 39.6442C182.245 39.7006 181.931 39.3746 181.85 38.8983C181.768 38.4219 181.963 37.9894 182.27 37.933C182.577 37.8766 182.903 38.2026 182.978 38.6789Z" fill="#263238"/>
<path d="M182.427 37.9267L181.229 37.8264C181.229 37.8264 181.95 38.5974 182.427 37.9267Z" fill="#263238"/>
<path d="M182.865 39.2054C182.619 40.3741 182.217 41.5041 181.668 42.565C181.943 42.6933 182.242 42.7597 182.546 42.7597C182.849 42.7597 183.148 42.6933 183.423 42.565L182.865 39.2054Z" fill="#ED893E"/>
<path d="M181.737 35.4447C181.665 35.4441 181.596 35.4174 181.543 35.3695C181.516 35.3433 181.495 35.312 181.481 35.2776C181.466 35.2432 181.459 35.2062 181.459 35.1689C181.459 35.1316 181.466 35.0947 181.481 35.0602C181.495 35.0258 181.516 34.9946 181.543 34.9683C181.849 34.6311 182.231 34.3713 182.657 34.21C183.083 34.0488 183.541 33.9908 183.993 34.0407C184.029 34.0475 184.064 34.0613 184.094 34.0814C184.125 34.1015 184.151 34.1274 184.171 34.1578C184.192 34.1881 184.206 34.2222 184.213 34.258C184.22 34.2939 184.22 34.3308 184.213 34.3666C184.198 34.4417 184.154 34.5079 184.091 34.5512C184.027 34.5945 183.95 34.6115 183.874 34.5985C183.516 34.566 183.154 34.6175 182.819 34.7492C182.484 34.8809 182.184 35.089 181.944 35.3569C181.889 35.4124 181.815 35.4439 181.737 35.4447Z" fill="#263238"/>
<path d="M198.491 34.0093C199.118 39.9011 199.494 42.3832 197.093 45.9182C193.477 51.2772 186.206 50.9325 183.868 45.398C181.762 40.3837 181.104 31.6087 186.344 28.1865C187.471 27.4178 188.781 26.9588 190.141 26.8555C191.501 26.7522 192.865 27.0082 194.095 27.598C195.326 28.1877 196.379 29.0905 197.151 30.2157C197.922 31.3409 198.384 32.6492 198.491 34.0093Z" fill="#FFB573"/>
<path d="M187.773 38.3154C184.012 37.651 183.104 33.3324 184.495 31.4521C178.158 31.7341 173.89 24.6452 180.734 20.6024C187.579 16.5596 193.621 22.8212 193.132 25.1842C201.562 24.4195 206.501 31.358 201.907 36.5165C207.968 37.5005 217.044 44.3325 210.381 51.5092C219.388 52.8317 220.366 81.037 195.846 76.0227C169.998 70.7327 192.455 48.2374 192.455 48.2374C192.455 48.2374 185.905 46.3946 187.773 38.3154Z" fill="#263238"/>
<path d="M211.785 53.3457L211.253 53.0197C213.528 49.3217 213.904 45.9559 212.368 42.9912C210.394 39.2305 205.605 37.0116 201.888 36.7985L201.926 36.1718C205.812 36.3911 210.845 38.6789 212.926 42.6966C214.543 45.8305 214.148 49.5035 211.785 53.3457Z" fill="#263238"/>
<path d="M204.659 37.1496C206.821 36.7923 205.799 33.2635 204.207 32.3296C202.615 31.3957 194.987 32.9125 195.827 35.3444C196.667 37.7763 201.757 37.6322 204.659 37.1496Z" fill="#5CC9FC"/>
<path d="M205.047 36.2595C207.203 35.8458 206.339 32.9877 204.721 32.0914C203.104 31.195 196.442 31.8594 197.35 34.26C198.259 36.6606 202.164 36.8298 205.047 36.2595Z" fill="#2825A4"/>
<path d="M182.458 32.1665C181.014 32.1471 179.618 31.6464 178.49 30.7437C176.691 29.346 175.701 27.2526 175.983 25.4098C176.152 24.2377 176.886 22.6269 179.443 21.6052L179.675 22.1881C177.87 22.9089 176.81 24.0685 176.604 25.4976C176.378 27.1272 177.274 28.9888 178.898 30.2486C179.651 30.8765 180.558 31.2923 181.525 31.4532C182.492 31.614 183.485 31.5141 184.401 31.1637L184.639 31.7466C183.947 32.0298 183.205 32.1725 182.458 32.1665Z" fill="#263238"/>
<path d="M189.259 39.0048C188.977 40.5467 188.889 41.2048 188.087 41.9257C187.858 42.1807 187.559 42.3609 187.227 42.4428C186.894 42.5246 186.545 42.5042 186.225 42.3843C185.905 42.2645 185.628 42.0506 185.431 41.7708C185.234 41.491 185.126 41.1583 185.122 40.8162C184.996 39.3997 185.479 37.1182 186.914 36.6419C188.35 36.1655 189.541 37.4692 189.259 39.0048Z" fill="#FFB573"/>
<path d="M185.798 43.9126L185.291 43.0037C185.269 42.9665 185.258 42.9244 185.258 42.8815C185.258 42.8386 185.269 42.7964 185.291 42.7593L185.798 41.8567C185.82 41.8175 185.852 41.7848 185.891 41.7621C185.929 41.7394 185.973 41.7274 186.018 41.7274C186.063 41.7274 186.107 41.7394 186.145 41.7621C186.184 41.7848 186.216 41.8175 186.237 41.8567L186.745 42.7593C186.766 42.7964 186.778 42.8386 186.778 42.8815C186.778 42.9244 186.766 42.9665 186.745 43.0037L186.237 43.9126C186.216 43.9517 186.184 43.9844 186.145 44.0071C186.107 44.0299 186.063 44.0419 186.018 44.0419C185.973 44.0419 185.929 44.0299 185.891 44.0071C185.852 43.9844 185.82 43.9517 185.798 43.9126Z" fill="white"/>
<path d="M179.543 91.4166C179.543 91.4166 178.685 122.844 177.538 143.515C176.322 162.488 174.761 206.858 174.761 206.858L179.556 207.109C179.556 207.109 190.161 169.771 189.716 147.213C202.164 115.661 197.689 92.363 197.689 92.363L179.543 91.4166Z" fill="#FFB573"/>
<path d="M175.118 204.865C175.011 204.788 174.883 204.746 174.751 204.746C174.62 204.746 174.492 204.788 174.385 204.865C172.084 206.573 169.297 207.499 166.431 207.51C163.247 207.648 164.03 209.39 168.587 209.973C173.946 210.637 175.093 211.74 176.823 212.173C178.553 212.605 179.926 211.289 179.894 207.654C179.891 207.53 179.852 207.409 179.78 207.308C179.709 207.206 179.609 207.128 179.493 207.083C177.953 206.518 176.484 205.774 175.118 204.865Z" fill="#263238"/>
<path d="M185.905 91.4166C185.905 91.4166 194.68 128.61 199.763 145.947C205.11 164.124 209.347 205.604 209.316 206.977H213.465C213.465 206.977 218.824 173.356 212.211 145.928C211.585 101.426 203.913 91.4479 203.913 91.4479L185.905 91.4166Z" fill="#FFB573"/>
<path d="M209.209 205.491C209.101 205.447 208.981 205.439 208.868 205.468C208.755 205.498 208.655 205.563 208.582 205.654C207.51 207.046 206.733 208.588 203.568 209.942C200.948 211.057 202.396 212.587 206.495 212.029C211.315 211.364 211.384 212.148 213.007 212.148C214.631 212.148 215.395 210.531 214.211 207.014C214.173 206.898 214.104 206.794 214.011 206.715C213.918 206.635 213.805 206.583 213.684 206.563C212.155 206.388 210.652 206.028 209.209 205.491Z" fill="#263238"/>
<path d="M179.543 91.4166C179.543 91.4166 175.406 118.958 175.989 156.602C189.076 156.528 202.08 154.521 214.581 150.648C214.581 150.648 214.769 101.871 203.881 91.4354C197.595 89.7431 179.687 90.865 179.543 91.4166Z" fill="#263238"/>
<path opacity="0.2" d="M180.026 151.256C179.986 151.256 179.947 151.24 179.918 151.212C179.888 151.184 179.871 151.146 179.869 151.105C178.697 127.068 181.543 93.134 181.568 92.8144C181.569 92.7934 181.574 92.7729 181.583 92.7541C181.592 92.7352 181.605 92.7185 181.621 92.7049C181.637 92.6914 181.655 92.6813 181.675 92.6753C181.695 92.6693 181.717 92.6676 181.737 92.6702C181.758 92.6718 181.778 92.6774 181.796 92.6868C181.815 92.6962 181.831 92.7091 181.845 92.7248C181.858 92.7405 181.868 92.7588 181.874 92.7784C181.881 92.7981 181.883 92.8188 181.881 92.8394C181.85 93.1842 179.011 127.093 180.183 151.13C180.185 151.151 180.182 151.172 180.175 151.192C180.168 151.212 180.158 151.23 180.143 151.245C180.129 151.26 180.112 151.273 180.093 151.281C180.074 151.289 180.053 151.293 180.032 151.293L180.026 151.256Z" fill="white"/>
<path opacity="0.2" d="M196.404 127.219L199.97 108.327L201.406 112.846L196.404 127.219Z" fill="black"/>
</svg>
