<svg width="30" height="30" viewBox="0 0 30 30" fill="none"
     xmlns="http://www.w3.org/2000/svg">
    <circle opacity="0.25" cx="15" cy="15" r="12" fill="white" />
    <path d="M8.09788 22.3334H21.9018C22.1404 22.3334 22.3332 22.1406 22.3332 21.902V20.1764C22.3332 19.9378 22.1404 19.7451 21.9018 19.7451H20.6077V13.7057H21.9018C22.1404 13.7057 22.3332 13.5129 22.3332 13.2743V11.5488C22.3332 11.3857 22.2408 11.236 22.0946 11.1632L15.1926 7.71218C15.0713 7.65152 14.9284 7.65152 14.8071 7.71218L7.9051 11.1632C7.75884 11.236 7.6665 11.3857 7.6665 11.5488V13.2743C7.6665 13.5129 7.85928 13.7057 8.09788 13.7057H9.39199V19.7451H8.09788C7.85928 19.7451 7.6665 19.9378 7.6665 20.1764V21.902C7.6665 22.1406 7.85928 22.3334 8.09788 22.3334ZM8.52925 12.8429V11.8157L14.9998 8.58035L21.4704 11.8157V12.8429H8.52925ZM19.7449 13.7057V19.7451H18.8822V13.7057H19.7449ZM18.0194 13.7057V19.7451H16.294V13.7057H18.0194ZM15.4312 13.7057V19.7451H14.5685V13.7057H15.4312ZM13.7057 13.7057V19.7451H11.9802V13.7057H13.7057ZM11.1175 13.7057V19.7451H10.2547V13.7057H11.1175ZM8.52925 20.6078H21.4704V21.4706H8.52925V20.6078Z"
          fill="white" />
    <circle opacity="0.25" cx="15" cy="15" r="14.5" stroke="white" />
</svg>
