<svg width="191" height="142" viewBox="0 0 191 142" fill="none" xmlns="http://www.w3.org/2000/svg">
<path d="M27.8297 62.0849C30.4322 46.3747 49.049 34.08 65.6103 30.2351C83.9231 25.9798 90.306 18.8903 104.485 9.46412C141.08 -14.8934 175.78 15.2657 166.122 49.6839C161.889 64.7482 153.455 82.4797 141.916 94.2235C125.522 110.941 116.21 102.962 94.717 97.0236C79.4437 92.8063 66.2942 99.7743 51.435 96.5487C32.4839 92.4454 25.2993 77.3088 27.8297 62.0849Z" fill="#2825A4"/>
<path opacity="0.9" d="M27.8297 62.0849C30.4322 46.3747 49.049 34.08 65.6103 30.2351C83.9231 25.9798 90.306 18.8903 104.485 9.46412C141.08 -14.8934 175.78 15.2657 166.122 49.6839C161.889 64.7482 153.455 82.4797 141.916 94.2235C125.522 110.941 116.21 102.962 94.717 97.0236C79.4437 92.8063 66.2942 99.7743 51.435 96.5487C32.4839 92.4454 25.2993 77.3088 27.8297 62.0849Z" fill="white"/>
<path d="M95.4016 141.548C136.086 141.548 169.067 139.622 169.067 137.247C169.067 134.872 136.086 132.946 95.4016 132.946C54.7174 132.946 21.7363 134.872 21.7363 137.247C21.7363 139.622 54.7174 141.548 95.4016 141.548Z" fill="#F5F5F5"/>
<path d="M140.807 8.92847H49.9954C47.1648 8.92847 44.8701 11.2231 44.8701 14.0538V48.8025C44.8701 51.6331 47.1648 53.9278 49.9954 53.9278H140.807C143.638 53.9278 145.932 51.6331 145.932 48.8025V14.0538C145.932 11.2231 143.638 8.92847 140.807 8.92847Z" fill="#2825A4"/>
<path opacity="0.6" d="M140.807 8.92847H49.9954C47.1648 8.92847 44.8701 11.2231 44.8701 14.0538V48.8025C44.8701 51.6331 47.1648 53.9278 49.9954 53.9278H140.807C143.638 53.9278 145.932 51.6331 145.932 48.8025V14.0538C145.932 11.2231 143.638 8.92847 140.807 8.92847Z" fill="white"/>
<path opacity="0.9" d="M140.807 10.0682H49.9953C47.7941 10.0682 46.0098 11.8526 46.0098 14.0537V48.8025C46.0098 51.0036 47.7941 52.788 49.9953 52.788H140.807C143.008 52.788 144.792 51.0036 144.792 48.8025V14.0537C144.792 11.8526 143.008 10.0682 140.807 10.0682Z" fill="white"/>
<path opacity="0.7" d="M140.807 10.0682H50.0029C48.9445 10.0682 47.9294 10.4884 47.1807 11.2364C46.4319 11.9845 46.0108 12.9992 46.0098 14.0575V18.328H144.792V14.0575C144.79 13.0008 144.37 11.9878 143.623 11.2402C142.876 10.4926 141.864 10.0712 140.807 10.0682Z" fill="#2825A4"/>
<path d="M53.9236 14.1981C53.9236 13.9126 53.839 13.6335 53.6803 13.396C53.5217 13.1586 53.2962 12.9736 53.0324 12.8643C52.7686 12.755 52.4783 12.7264 52.1982 12.7821C51.9182 12.8378 51.6609 12.9753 51.459 13.1773C51.2571 13.3792 51.1196 13.6364 51.0639 13.9165C51.0082 14.1965 51.0368 14.4868 51.146 14.7506C51.2553 15.0145 51.4404 15.2399 51.6778 15.3986C51.9152 15.5572 52.1943 15.6419 52.4799 15.6419C52.8628 15.6419 53.23 15.4898 53.5008 15.219C53.7715 14.9483 53.9236 14.581 53.9236 14.1981Z" fill="white"/>
<path d="M59.6228 14.1981C59.6228 13.9126 59.5382 13.6335 59.3795 13.396C59.2209 13.1586 58.9954 12.9736 58.7316 12.8643C58.4678 12.755 58.1775 12.7264 57.8974 12.7821C57.6174 12.8378 57.3601 12.9753 57.1582 13.1773C56.9563 13.3792 56.8188 13.6364 56.7631 13.9165C56.7074 14.1965 56.736 14.4868 56.8453 14.7506C56.9545 15.0145 57.1396 15.2399 57.377 15.3986C57.6144 15.5572 57.8936 15.6419 58.1791 15.6419C58.562 15.6419 58.9292 15.4898 59.2 15.219C59.4707 14.9483 59.6228 14.581 59.6228 14.1981Z" fill="white"/>
<path d="M65.3221 14.1981C65.3221 13.9126 65.2374 13.6335 65.0788 13.396C64.9201 13.1586 64.6946 12.9736 64.4308 12.8643C64.167 12.755 63.8767 12.7264 63.5967 12.7821C63.3166 12.8378 63.0593 12.9753 62.8574 13.1773C62.6555 13.3792 62.518 13.6364 62.4623 13.9165C62.4066 14.1965 62.4352 14.4868 62.5445 14.7506C62.6537 15.0145 62.8388 15.2399 63.0762 15.3986C63.3136 15.5572 63.5928 15.6419 63.8783 15.6419C64.2612 15.6419 64.6285 15.4898 64.8992 15.219C65.17 14.9483 65.3221 14.581 65.3221 14.1981Z" fill="white"/>
<path opacity="0.1" d="M138.083 36.9827H52.7193C52.3844 36.9827 52.0632 36.85 51.826 36.6135C51.5888 36.3771 51.4551 36.0562 51.4541 35.7214C51.4551 35.3861 51.5887 35.0649 51.8258 34.8278C52.0628 34.5908 52.384 34.4572 52.7193 34.4562H138.083C138.418 34.4572 138.739 34.5908 138.976 34.8278C139.213 35.0649 139.347 35.3861 139.348 35.7214C139.347 36.0562 139.213 36.3771 138.976 36.6135C138.739 36.85 138.418 36.9827 138.083 36.9827Z" fill="#2825A4"/>
<path d="M116.111 36.9827H52.7193C52.3844 36.9827 52.0632 36.85 51.826 36.6135C51.5888 36.3771 51.4551 36.0562 51.4541 35.7214C51.4551 35.3861 51.5887 35.0649 51.8258 34.8278C52.0628 34.5908 52.384 34.4572 52.7193 34.4562H116.111C116.446 34.4572 116.767 34.5909 117.003 34.8281C117.24 35.0652 117.373 35.3865 117.373 35.7214C117.373 36.0559 117.24 36.3767 117.003 36.6133C116.767 36.8498 116.446 36.9827 116.111 36.9827Z" fill="#7DDD81"/>
<path d="M122.376 42.64H119.139L117.384 40.8809L115.628 42.64H112.384C112.017 42.6419 111.665 42.7887 111.405 43.0483C111.146 43.308 110.999 43.6595 110.997 44.0267V48.0464C110.999 48.4136 111.146 48.7651 111.405 49.0248C111.665 49.2844 112.017 49.4312 112.384 49.4332H122.376C122.743 49.4312 123.095 49.2844 123.354 49.0248C123.614 48.7651 123.761 48.4136 123.763 48.0464V44.0267C123.761 43.6595 123.614 43.308 123.354 43.0483C123.095 42.7887 122.743 42.6419 122.376 42.64Z" fill="#263238"/>
<path d="M113.915 44.8929H115.708V45.3071C115.563 45.4429 115.436 45.596 115.328 45.763C115.201 45.9711 115.1 46.1945 115.028 46.4279C114.966 46.6475 114.927 46.8728 114.91 47.1004H114.299C114.336 46.7905 114.413 46.4866 114.527 46.1961C114.655 45.9139 114.82 45.6495 115.017 45.4097H113.926L113.915 44.8929Z" fill="white"/>
<path d="M116.214 44.8929H117.669V45.3831H116.677L116.624 45.7136C116.69 45.6833 116.759 45.6592 116.829 45.6414C116.894 45.6261 116.96 45.6185 117.027 45.6186C117.125 45.6139 117.223 45.6293 117.315 45.6639C117.407 45.6986 117.491 45.7517 117.562 45.82C117.63 45.8844 117.684 45.9623 117.72 46.0487C117.756 46.1351 117.773 46.228 117.771 46.3215C117.77 46.4662 117.734 46.6083 117.665 46.7356C117.598 46.8638 117.493 46.9684 117.365 47.0358C117.208 47.1097 117.036 47.1449 116.863 47.1384C116.735 47.1416 116.607 47.1275 116.483 47.0966C116.388 47.0736 116.297 47.0323 116.217 46.975C116.149 46.9226 116.088 46.8598 116.039 46.7888C115.989 46.7082 115.951 46.6213 115.925 46.5305L116.548 46.4621C116.556 46.5479 116.594 46.6283 116.654 46.69C116.708 46.7391 116.779 46.7662 116.852 46.766C116.892 46.7666 116.932 46.758 116.968 46.7409C117.004 46.7238 117.036 46.6986 117.061 46.6672C117.122 46.5839 117.152 46.4816 117.144 46.3785C117.155 46.275 117.125 46.1714 117.061 46.0897C117.032 46.0594 116.997 46.0356 116.959 46.0199C116.92 46.0042 116.878 45.9969 116.837 45.9986C116.777 45.9989 116.719 46.0132 116.666 46.0403C116.614 46.0698 116.567 46.1084 116.529 46.1543L116.008 46.0821L116.214 44.8929Z" fill="white"/>
<path d="M118.045 45.4363C118.045 45.3353 118.067 45.2354 118.11 45.1437C118.155 45.054 118.227 44.9799 118.315 44.931C118.416 44.8795 118.528 44.8534 118.641 44.855C118.721 44.8512 118.801 44.8633 118.876 44.8907C118.951 44.9181 119.02 44.9602 119.078 45.0146C119.181 45.1311 119.238 45.281 119.238 45.4363C119.238 45.5915 119.181 45.7415 119.078 45.858C119.02 45.9123 118.951 45.9544 118.876 45.9818C118.801 46.0092 118.721 46.0214 118.641 46.0176C118.528 46.0192 118.416 45.9931 118.315 45.9416C118.227 45.8927 118.155 45.8186 118.11 45.7288C118.067 45.6371 118.045 45.5373 118.045 45.4363ZM118.467 45.4363C118.459 45.5303 118.481 45.6242 118.527 45.706C118.539 45.7214 118.553 45.7342 118.569 45.7439C118.586 45.7536 118.604 45.7599 118.622 45.7623C118.641 45.7648 118.66 45.7635 118.679 45.7584C118.697 45.7533 118.714 45.7445 118.729 45.7326C118.739 45.7248 118.748 45.7158 118.755 45.706C118.8 45.6234 118.821 45.5301 118.816 45.4363C118.823 45.3411 118.802 45.2461 118.755 45.1627C118.742 45.1486 118.726 45.1373 118.708 45.1297C118.69 45.122 118.67 45.118 118.651 45.118C118.631 45.118 118.612 45.122 118.594 45.1297C118.576 45.1373 118.56 45.1486 118.546 45.1627C118.546 45.1627 118.546 45.1627 118.527 45.1627C118.479 45.2468 118.458 45.3436 118.467 45.4401V45.4363ZM119.918 44.8512H120.237L118.957 47.2144H118.641L119.918 44.8512ZM119.637 46.6255C119.644 46.5298 119.671 46.4366 119.717 46.3519C119.762 46.2622 119.834 46.1881 119.922 46.1392C120.022 46.086 120.135 46.0598 120.249 46.0632C120.328 46.0594 120.408 46.0715 120.483 46.0989C120.558 46.1263 120.627 46.1684 120.685 46.2228C120.788 46.3393 120.845 46.4892 120.845 46.6445C120.845 46.7997 120.788 46.9497 120.685 47.0662C120.627 47.1205 120.558 47.1626 120.483 47.19C120.408 47.2174 120.328 47.2296 120.249 47.2258C120.135 47.2297 120.022 47.2035 119.922 47.1498C119.831 47.1044 119.759 47.0293 119.717 46.937C119.668 46.8416 119.64 46.7365 119.637 46.6293V46.6255ZM120.059 46.6255C120.052 46.7194 120.073 46.8133 120.119 46.8952C120.13 46.9103 120.144 46.923 120.16 46.9327C120.176 46.9424 120.193 46.9488 120.212 46.9517C120.23 46.9545 120.249 46.9537 120.267 46.9492C120.285 46.9447 120.302 46.9367 120.317 46.9256C120.329 46.9175 120.339 46.9072 120.347 46.8952C120.396 46.8141 120.417 46.7196 120.408 46.6255C120.417 46.5302 120.396 46.4346 120.347 46.3519C120.334 46.3348 120.316 46.3211 120.297 46.3119C120.277 46.3026 120.255 46.2982 120.233 46.2987C120.211 46.2972 120.189 46.3017 120.169 46.3117C120.149 46.3217 120.132 46.3369 120.119 46.3557C120.071 46.4398 120.05 46.5366 120.059 46.6331V46.6255Z" fill="white"/>
<path opacity="0.1" d="M95.2839 50.8047L95.6638 49.2052C95.6834 49.1453 95.6909 49.0822 95.686 49.0194C95.6811 48.9566 95.6639 48.8954 95.6353 48.8392C95.6067 48.7831 95.5673 48.7332 95.5194 48.6923C95.4715 48.6515 95.416 48.6204 95.3561 48.6011C95.3025 48.5821 95.2456 48.5743 95.1889 48.5783H89.4101C88.4641 43.3808 85.1017 39.5624 86.0705 33.2479C87.9702 30.2617 81.1314 19.1638 76.1656 25.8354C69.7334 26.2572 75.6831 38.3239 63.4455 41.4127C54.4448 43.6923 49.5095 48.905 47.5225 53.2894C48.2787 53.7109 49.1301 53.9319 49.9958 53.9315H50.2238C50.998 52.2045 52.0547 50.6187 53.3506 49.2393C52.6771 50.7667 52.0973 52.3337 51.6143 53.9315H95.8424L95.9526 51.4544C95.9599 51.376 95.9516 51.2969 95.9282 51.2217C95.9048 51.1466 95.8667 51.0768 95.8162 51.0164C95.7657 50.956 95.7038 50.9062 95.6339 50.8698C95.5641 50.8335 95.4877 50.8114 95.4093 50.8047C95.3676 50.8009 95.3256 50.8009 95.2839 50.8047Z" fill="#2825A4"/>
<path d="M81.9367 53.0501C81.1768 58.8251 80.3181 70.2155 64.5091 71.3439C54.0685 72.0848 49.4903 62.1609 42.9175 58.9239C43.4988 54.1823 45.6758 49.4255 45.7518 49.2356C43.4428 51.7421 41.8727 54.839 41.2154 58.183C40.4544 57.8987 39.6718 57.6764 38.875 57.5181C38.875 53.0501 43.6052 44.494 55.8466 41.4089C68.0881 38.3239 62.1345 26.2572 68.5668 25.8317C73.5401 19.16 80.3713 30.2579 78.4717 33.2442C77.2483 41.2266 82.9435 45.2121 81.9367 53.0501Z" fill="#263238"/>
<path d="M87.9052 53.2705C87.8752 53.0681 87.7912 52.8776 87.6622 52.7188C87.5331 52.5601 87.3637 52.439 87.1718 52.3683C86.9798 52.2975 86.7724 52.2798 86.5712 52.3169C86.37 52.3539 86.1825 52.4445 86.0283 52.579L84.1287 54.1899C84.0201 54.3332 83.947 54.5002 83.9153 54.6771C83.8836 54.8541 83.8942 55.0361 83.9463 55.2081L84.2844 56.3137C85.1752 56.3706 86.068 56.2412 86.906 55.9338C87.291 55.8046 87.6173 55.5424 87.8262 55.1942C88.0351 54.8459 88.113 54.4346 88.0458 54.0341L87.9052 53.2705Z" fill="#FFB573"/>
<path d="M77.1644 46.6254C77.2404 47.0433 77.343 47.5562 77.4418 48.0312C77.5406 48.5061 77.6507 48.9924 77.7647 49.4711C77.9927 50.4323 78.2548 51.3708 78.5246 52.3206C78.7943 53.2704 79.1363 54.1595 79.4858 55.0485C79.8427 55.9028 80.2525 56.7339 80.713 57.5371L79.7328 56.7582C79.9356 56.8878 80.1796 56.9366 80.4167 56.895C80.8596 56.8276 81.2861 56.6781 81.6742 56.4543C82.1718 56.1886 82.6459 55.881 83.0914 55.5348C83.5587 55.1853 84.0412 54.775 84.4667 54.395L84.5579 54.3191C84.7558 54.1493 85.0058 54.0525 85.2664 54.0448C85.527 54.037 85.7824 54.1189 85.9899 54.2767C86.1975 54.4344 86.3447 54.6586 86.407 54.9117C86.4693 55.1649 86.4429 55.4318 86.3322 55.6678C86.0152 56.3367 85.6335 56.973 85.1924 57.5675C84.7473 58.1811 84.2378 58.7453 83.6727 59.2506C83.0224 59.8349 82.265 60.2878 81.4425 60.5842C80.954 60.7583 80.4411 60.8545 79.9227 60.8691C79.3607 60.8835 78.8004 60.8013 78.2662 60.626C77.9038 60.5061 77.5895 60.273 77.3696 59.9611L77.286 59.8471C76.6169 58.898 76.0248 57.8968 75.5155 56.8532C75.0291 55.8418 74.5992 54.8043 74.2275 53.7454C73.8604 52.7043 73.546 51.6455 73.2853 50.5729C73.1561 50.041 73.0307 49.5053 72.9054 48.9658C72.78 48.4263 72.7078 47.902 72.6242 47.2941C72.5528 46.7087 72.711 46.1184 73.0656 45.6472C73.4202 45.176 73.9436 44.8606 74.5258 44.7671C75.1081 44.6737 75.7039 44.8096 76.1882 45.1461C76.6724 45.4827 77.0073 45.9939 77.1226 46.5722L77.1644 46.6254Z" fill="#FFB573"/>
<path d="M50.6908 126.267C50.1019 123.608 50.25 122.981 49.7713 121.518C49.5202 120.69 49.1599 119.899 48.6999 119.166C48.282 118.406 49.0798 117.772 49.8701 117.669C50.4894 117.593 51.1429 117.567 51.9027 117.445L53.5441 120.507C52.6778 121.605 51.9863 124.307 52.2941 126.351C52.5068 127.825 50.9263 127.335 50.6908 126.267Z" fill="#2825A4"/>
<path d="M77.1648 62.9056C77.1648 62.9056 77.5979 85.4242 78.0577 97.9013C79.2658 105.283 53.8787 120.655 53.8787 120.655C53.3354 120.914 51.8954 118.099 51.9182 117.445C51.9182 117.445 62.8375 101.362 69.342 97.4795C62.1233 77.552 64.0989 62.9056 64.0989 62.9056H77.1648Z" fill="#263238"/>
<path opacity="0.2" d="M64.0841 62.9056H72.3248C72.3248 62.9056 70.6759 84.9189 68.8408 96.0966C62.2186 76.8795 64.0841 62.9056 64.0841 62.9056Z" fill="black"/>
<path opacity="0.2" d="M58.9883 107.901C62.1151 103.999 65.7321 99.9225 68.6386 97.9316C68.2244 101.792 67.7989 106.45 67.4722 111.229C64.7405 113.391 61.9062 115.409 59.5354 117.008C59.1424 113.989 58.9596 110.946 58.9883 107.901Z" fill="black"/>
<path d="M55.4551 120.101C55.1246 120.336 54.5357 120.766 54.1101 121.096C54.0771 121.123 54.0391 121.142 53.9984 121.154C53.9577 121.166 53.915 121.169 53.8729 121.164C53.8308 121.159 53.7902 121.146 53.7533 121.125C53.7164 121.104 53.684 121.076 53.658 121.043C52.8418 119.92 52.1308 118.725 51.5342 117.472C51.5027 117.41 51.492 117.339 51.5036 117.271C51.5152 117.203 51.5486 117.14 51.5988 117.092L52.6626 116.035C52.7244 115.975 52.8076 115.941 52.8943 115.941C52.981 115.941 53.0643 115.975 53.1261 116.035L53.1603 116.077L55.5349 119.641C55.5602 119.676 55.5783 119.716 55.588 119.759C55.5978 119.801 55.599 119.845 55.5915 119.888C55.5841 119.93 55.5682 119.971 55.5448 120.008C55.5213 120.045 55.4909 120.076 55.4551 120.101Z" fill="#2825A4"/>
<path opacity="0.3" d="M55.4551 120.101C55.1246 120.336 54.5357 120.766 54.1101 121.096C54.0771 121.123 54.0391 121.142 53.9984 121.154C53.9577 121.166 53.915 121.169 53.8729 121.164C53.8308 121.159 53.7902 121.146 53.7533 121.125C53.7164 121.104 53.684 121.076 53.658 121.043C52.8418 119.92 52.1308 118.725 51.5342 117.472C51.5027 117.41 51.492 117.339 51.5036 117.271C51.5152 117.203 51.5486 117.14 51.5988 117.092L52.6626 116.035C52.7244 115.975 52.8076 115.941 52.8943 115.941C52.981 115.941 53.0643 115.975 53.1261 116.035L53.1603 116.077L55.5349 119.641C55.5602 119.676 55.5783 119.716 55.588 119.759C55.5978 119.801 55.599 119.845 55.5915 119.888C55.5841 119.93 55.5682 119.971 55.5448 120.008C55.5213 120.045 55.4909 120.076 55.4551 120.101Z" fill="white"/>
<path d="M67.6927 139.147C64.9192 139.147 65.1129 139.105 63.5476 139.052C62.2102 139.002 61.9025 139.17 60.8273 139.147C59.9306 139.128 59.885 138.269 60.0674 137.281C60.1624 136.784 60.322 136.18 60.4473 135.382H64.6646C65.0482 135.972 65.5587 136.468 66.1588 136.836C66.759 137.203 67.4336 137.432 68.1334 137.506C69.6417 137.699 68.8059 139.147 67.6927 139.147Z" fill="#2825A4"/>
<path d="M73.2284 62.9056C73.2284 62.9056 68.8668 86.9174 67.2673 97.8025C65.5918 109.231 63.5211 127.783 64.6609 135.378C64.0455 135.758 61.7583 135.777 60.4437 135.378C60.4437 135.378 53.7759 109.311 59.3457 98.3078C56.177 71.5567 60.8654 70.1661 62.1572 62.9056H73.2284Z" fill="#263238"/>
<path d="M64.8358 133.794C64.8939 134.32 64.9904 134.842 65.1246 135.355C65.138 135.393 65.1436 135.433 65.1408 135.473C65.138 135.513 65.127 135.552 65.1085 135.588C65.09 135.624 65.0643 135.655 65.0331 135.68C65.0018 135.706 64.9657 135.724 64.927 135.735C64.9132 135.737 64.8991 135.737 64.8852 135.735C63.3655 135.982 61.0859 135.625 60.3754 135.496C60.3083 135.481 60.2464 135.449 60.1962 135.402C60.1461 135.355 60.1095 135.296 60.0905 135.23L59.7295 133.767C59.7159 133.73 59.7101 133.69 59.7124 133.65C59.7147 133.61 59.725 133.572 59.7428 133.536C59.7606 133.501 59.7854 133.469 59.8158 133.443C59.8462 133.418 59.8815 133.399 59.9195 133.387C59.9536 133.383 59.988 133.383 60.0221 133.387L64.4901 133.471C64.5758 133.477 64.6566 133.513 64.7194 133.572C64.7822 133.63 64.8232 133.709 64.8358 133.794Z" fill="#2825A4"/>
<path opacity="0.3" d="M64.8358 133.794C64.8939 134.32 64.9904 134.842 65.1246 135.355C65.138 135.393 65.1436 135.433 65.1408 135.473C65.138 135.513 65.127 135.552 65.1085 135.588C65.09 135.624 65.0643 135.655 65.0331 135.68C65.0018 135.706 64.9657 135.724 64.927 135.735C64.9132 135.737 64.8991 135.737 64.8852 135.735C63.3655 135.982 61.0859 135.625 60.3754 135.496C60.3083 135.481 60.2464 135.449 60.1962 135.402C60.1461 135.355 60.1095 135.296 60.0905 135.23L59.7295 133.767C59.7159 133.73 59.7101 133.69 59.7124 133.65C59.7147 133.61 59.725 133.572 59.7428 133.536C59.7606 133.501 59.7854 133.469 59.8158 133.443C59.8462 133.418 59.8815 133.399 59.9195 133.387C59.9536 133.383 59.988 133.383 60.0221 133.387L64.4901 133.471C64.5758 133.477 64.6566 133.513 64.7194 133.572C64.7822 133.63 64.8232 133.709 64.8358 133.794Z" fill="white"/>
<path d="M73.6123 41.8724C76.3782 42.3929 76.9633 43.5251 78.9997 47.7234C78.3842 50.4893 75.0788 52.9171 75.0788 52.9171C75.0788 52.9171 69.0493 45.4438 73.6123 41.8724Z" fill="white"/>
<path d="M62.1573 62.9055C59.5624 66.4465 56.7357 72.1037 56.7129 84.2616C70.2005 90.3406 76.6176 90.3405 79.8242 88.8208C77.5105 79.4441 77.1647 62.9055 77.1647 62.9055C75.0105 60.5348 62.1573 62.9055 62.1573 62.9055Z" fill="#2825A4"/>
<path opacity="0.2" d="M71.2533 73.5817C70.0717 77.951 71.2837 82.3202 72.3247 83.289C71.6104 80.7663 71.2533 73.5817 71.2533 73.5817Z" fill="black"/>
<path d="M77.9966 47.1117C78.0422 48.5859 77.8978 50.3678 77.5672 53.8784C77.3431 56.8494 78.0839 62.499 77.1493 62.9132C74.7861 63.5743 68.5818 63.2703 62.1571 62.9132C61.857 58.6579 61.9672 55.7248 59.2772 46.2265C58.9896 45.3463 59.0633 44.3879 59.4823 43.5621C59.9013 42.7363 60.6311 42.1108 61.5112 41.8231C61.7579 41.7427 62.0128 41.6904 62.2711 41.6673C62.8676 41.6065 63.4983 41.5533 64.1442 41.5229C66.4094 41.3595 68.6835 41.3595 70.9488 41.5229C71.6897 41.5913 72.4685 41.6825 73.1904 41.7851C74.485 41.9777 75.6724 42.6143 76.5492 43.5861C77.426 44.5579 77.9377 45.8042 77.9966 47.1117Z" fill="white"/>
<path d="M66.5528 34.9349C66.9328 37.1727 65.9335 40.0754 64.5088 41.5343C64.5088 41.5343 66.5832 41.2228 70.9867 43.9469C72.2632 42.1194 71.3172 41.5343 71.3172 41.5343C70.1356 41.3064 70.1356 40.4439 70.5991 38.7798L66.5528 34.9349Z" fill="#FFB573"/>
<path d="M70.0636 43.396C68.6122 43.6011 68.1639 45.7934 68.1639 45.7934C68.1639 45.7934 64.6799 43.3276 63.5781 41.5913C64.0162 41.344 64.4411 41.0739 64.8509 40.782C64.8509 40.782 69.2163 42.5525 70.0636 43.396Z" fill="#2825A4"/>
<path d="M71.4428 43.1604C71.4428 43.1604 72.5826 43.4112 73.1715 45.0145C73.5021 41.8193 71.9899 41.5267 71.9899 41.5267C71.7994 41.3913 71.5828 41.297 71.3538 41.2499C71.1249 41.2028 70.8887 41.2039 70.6602 41.2532C71.8114 41.8611 71.4428 43.1604 71.4428 43.1604Z" fill="#2825A4"/>
<path opacity="0.2" d="M70.5992 38.776L68.2246 36.5192C68.2664 36.8992 68.331 37.3741 68.4184 37.8338C68.6892 39.0102 69.3777 40.0483 70.356 40.7555C70.2421 40.2996 70.356 39.6499 70.5992 38.776Z" fill="black"/>
<path d="M67.4728 29.7982C66.542 33.2746 66.0746 34.7373 67.1613 37.1233C68.795 40.7365 73.1414 41.3026 75.0563 38.2441C76.785 35.4744 78.016 30.2655 75.2348 27.6288C74.6571 27.0437 73.9333 26.6239 73.1386 26.4129C72.3438 26.2018 71.5071 26.2072 70.7152 26.4286C69.9233 26.6499 69.205 27.0791 68.6349 27.6716C68.0647 28.2641 67.6635 28.9984 67.4728 29.7982Z" fill="#FFB573"/>
<path d="M68.875 26.413C69.4145 30.5694 74.8856 28.1455 78.21 32.9592C77.8946 28.8559 73.8673 23.0316 68.875 26.413Z" fill="#263238"/>
<path d="M69.2166 26.2572C73.8898 29.3803 68.7759 31.9106 65.3223 31.7244C64.1825 28.2746 69.2166 26.2572 69.2166 26.2572Z" fill="#263238"/>
<path opacity="0.2" d="M71.5756 32.4121C71.4305 32.2241 71.2498 32.0666 71.0438 31.9486C70.8378 31.8306 70.6105 31.7544 70.375 31.7244C70.728 32.0276 71.1354 32.261 71.5756 32.4121Z" fill="black"/>
<path opacity="0.2" d="M71.3937 32.6743C71.2283 32.5349 71.0346 32.4332 70.826 32.3762C70.6174 32.3191 70.3989 32.308 70.1855 32.3437C70.5604 32.538 70.9722 32.6506 71.3937 32.6743Z" fill="black"/>
<path d="M72.267 32.7503C72.1759 33.039 72.2481 33.3316 72.4266 33.4C72.6052 33.4684 72.8256 33.2936 72.9167 33.02C73.0079 32.7465 72.9357 32.4425 72.7572 32.3703C72.5786 32.2982 72.3582 32.4653 72.267 32.7503Z" fill="#263238"/>
<path d="M75.6186 34.1218C75.5274 34.4106 75.5996 34.6993 75.7782 34.7715C75.9568 34.8437 76.1581 34.6651 76.2645 34.3916C76.3709 34.118 76.2835 33.8103 76.1049 33.7419C75.9264 33.6735 75.706 33.8331 75.6186 34.1218Z" fill="#263238"/>
<path d="M76.0244 33.7115L76.7425 33.7685C76.7425 33.7685 76.2334 34.194 76.0244 33.7115Z" fill="#263238"/>
<path d="M74.5313 34.2282C74.5626 34.9823 74.6903 35.7292 74.9112 36.4508C74.7353 36.5002 74.5504 36.5087 74.3707 36.4758C74.1909 36.4429 74.0211 36.3694 73.874 36.2609L74.5313 34.2282Z" fill="#ED893E"/>
<path d="M71.9825 36.7091C72.1235 36.7961 72.2724 36.8699 72.427 36.9295C72.4362 36.9339 72.4462 36.9365 72.4564 36.9369C72.4666 36.9374 72.4768 36.9358 72.4864 36.9323C72.4959 36.9288 72.5047 36.9233 72.5121 36.9163C72.5196 36.9093 72.5255 36.9009 72.5296 36.8915C72.537 36.8693 72.5357 36.8451 72.5258 36.8239C72.5159 36.8027 72.4982 36.7861 72.4764 36.7775C72.1257 36.6408 71.8102 36.4272 71.5531 36.1523C71.296 35.8775 71.1039 35.5484 70.9909 35.1894C70.9854 35.1672 70.9719 35.1479 70.9529 35.1352C70.9339 35.1226 70.9108 35.1175 70.8883 35.121C70.8664 35.1288 70.8482 35.1443 70.837 35.1646C70.8258 35.1849 70.8224 35.2086 70.8275 35.2312C71.0202 35.8478 71.4308 36.3731 71.9825 36.7091Z" fill="#263238"/>
<path d="M65.7672 32.112C65.7599 32.4555 65.8237 32.7968 65.9544 33.1145C66.0852 33.4322 66.2801 33.7195 66.527 33.9585C67.1691 34.517 67.9062 33.8255 68.0734 32.8605C68.2291 31.9904 68.0734 30.6492 67.2641 30.4783C66.4548 30.3073 65.7672 31.1849 65.7672 32.112Z" fill="#FFB573"/>
<path d="M72.1645 30.8696C72.187 30.8755 72.2105 30.8765 72.2334 30.8725C72.2564 30.8686 72.2782 30.8598 72.2975 30.8468C72.4745 30.7268 72.6784 30.6523 72.8911 30.6298C73.1038 30.6072 73.3188 30.6374 73.517 30.7176C73.5362 30.7274 73.5572 30.7333 73.5787 30.735C73.6002 30.7367 73.6218 30.7341 73.6423 30.7274C73.6627 30.7207 73.6817 30.71 73.698 30.6959C73.7144 30.6818 73.7277 30.6647 73.7374 30.6454C73.7536 30.6008 73.7529 30.5518 73.7354 30.5077C73.7179 30.4636 73.6848 30.4274 73.6424 30.4061C73.3934 30.2998 73.1218 30.2577 72.8523 30.2835C72.5828 30.3094 72.3241 30.4025 72.0999 30.5542C72.0627 30.5823 72.0377 30.6235 72.0299 30.6694C72.0221 30.7153 72.0322 30.7625 72.0581 30.8012C72.084 30.8362 72.1219 30.8605 72.1645 30.8696Z" fill="#263238"/>
<path d="M72.6699 32.3399L73.3918 32.4007C73.3918 32.4007 72.8827 32.8072 72.6699 32.3399Z" fill="#263238"/>
<path d="M61.5151 47.3511L60.3753 49.7067C59.9954 50.5007 59.6154 51.2986 59.2697 52.0927C58.924 52.8867 58.582 53.6884 58.2895 54.4748C58.004 55.2191 57.7655 55.9804 57.5752 56.7544L57.503 55.816C57.5356 55.978 57.603 56.131 57.7006 56.2643C57.8577 56.5174 58.0397 56.7541 58.2439 56.971C58.718 57.4996 59.2256 57.997 59.7636 58.4603C60.3183 58.9543 60.9034 59.4368 61.5113 59.9155C62.1192 60.3942 62.7423 60.8691 63.3388 61.3326L63.3768 61.3592C63.5952 61.5225 63.7479 61.7587 63.8071 62.0249C63.8662 62.2911 63.828 62.5698 63.6993 62.8102C63.5705 63.0506 63.3599 63.2369 63.1055 63.3353C62.8512 63.4337 62.57 63.4376 62.313 63.3463C61.5235 63.0765 60.7487 62.7658 59.9916 62.4155C59.2286 62.0652 58.4842 61.6759 57.7614 61.2491C56.998 60.8025 56.2724 60.2942 55.5919 59.7293C55.213 59.408 54.8598 59.0573 54.5357 58.6807C54.1202 58.2029 53.7957 57.6531 53.5783 57.0584C53.4875 56.8081 53.4563 56.5402 53.4871 56.2757V56.1162C53.6212 55.0968 53.8398 54.0903 54.1406 53.1071C54.4103 52.1573 54.7333 51.2568 55.079 50.364C55.4248 49.4711 55.8009 48.6049 56.1922 47.7462C56.5836 46.8876 56.9977 46.0593 57.4802 45.1969C57.7684 44.6772 58.2481 44.2905 58.8171 44.1193C59.3862 43.9481 59.9996 44.0059 60.5267 44.2803C61.0537 44.5547 61.4528 45.0242 61.6389 45.5885C61.8249 46.1529 61.7832 46.7676 61.5227 47.3017L61.5151 47.3511Z" fill="#FFB573"/>
<path d="M62.127 41.6901C59.6574 41.6901 58.5746 42.2676 55.8467 46.8002C56.4546 48.7492 60.3679 51.1352 60.3679 51.1352C60.3679 51.1352 64.5889 45.6946 62.127 41.6901Z" fill="white"/>
<path d="M66.2489 64.3835L66.1235 63.2741C66.0991 63.068 66.0261 62.8706 65.9106 62.6982C65.795 62.5258 65.6401 62.3833 65.4587 62.2825L63.7376 61.3289C63.399 61.1415 63.0204 61.0382 62.6337 61.0276C62.2469 61.0171 61.8632 61.0995 61.5149 61.2681L61.0742 61.477C61.1616 63.3349 62.6206 65.2764 62.6206 65.2764L62.9777 65.8767C63.1184 66.1279 63.3528 66.3132 63.6297 66.3922C63.9066 66.4712 64.2035 66.4375 64.4556 66.2984L65.6524 65.6107C65.8604 65.4863 66.0276 65.304 66.1335 65.086C66.2395 64.868 66.2796 64.6239 66.2489 64.3835Z" fill="#FFB573"/>
<path d="M85.4545 57.5181H72.4303C72.3675 57.5207 72.3047 57.5108 72.2456 57.489C72.1866 57.4673 72.1324 57.4341 72.0862 57.3914C72.0399 57.3487 72.0026 57.2973 71.9762 57.2402C71.9499 57.1831 71.9351 57.1213 71.9326 57.0584C71.9325 57.0031 71.9401 56.9481 71.9554 56.895L73.7943 49.2052C73.8403 49.0348 73.9382 48.8829 74.0743 48.7706C74.2104 48.6583 74.3781 48.5911 74.5542 48.5783H87.5783C87.6412 48.5757 87.7039 48.5856 87.763 48.6073C87.822 48.6291 87.8762 48.6622 87.9225 48.7049C87.9687 48.7476 88.006 48.799 88.0324 48.8562C88.0587 48.9133 88.0735 48.9751 88.076 49.038C88.0799 49.0947 88.0722 49.1516 88.0532 49.2052L86.2105 56.895C86.1661 57.0652 86.0691 57.2171 85.9333 57.3289C85.7976 57.4408 85.63 57.507 85.4545 57.5181Z" fill="#5CC9FC"/>
<path d="M72.4799 56.8988C72.4676 56.8961 72.456 56.891 72.4457 56.8838C72.4355 56.8766 72.4267 56.8675 72.42 56.8569C72.4133 56.8463 72.4088 56.8344 72.4066 56.8221C72.4045 56.8097 72.4049 56.797 72.4077 56.7848L74.125 49.6117C74.1753 49.4177 74.2867 49.245 74.4427 49.1191C74.5986 48.9932 74.791 48.9208 74.9912 48.9126H87.3885C87.4136 48.9126 87.4378 48.9226 87.4556 48.9404C87.4734 48.9582 87.4834 48.9824 87.4834 49.0076C87.4834 49.0328 87.4734 49.0569 87.4556 49.0747C87.4378 49.0926 87.4136 49.1026 87.3885 49.1026H74.9722C74.8152 49.1123 74.6651 49.1706 74.5426 49.2692C74.4201 49.3679 74.3313 49.5022 74.2883 49.6535L72.5748 56.8266C72.569 56.8474 72.5566 56.8656 72.5395 56.8787C72.5223 56.8917 72.5014 56.8988 72.4799 56.8988Z" fill="white"/>
<path d="M87.4723 50.8579L87.3013 50.9377C87.0382 51.0566 86.8111 51.243 86.643 51.4778C86.4749 51.7126 86.3717 51.9876 86.3439 52.275L86.2413 53.8974C86.2288 54.0465 86.2458 54.1967 86.2914 54.3393C86.3369 54.4819 86.4101 54.6142 86.5068 54.7285C86.6035 54.8428 86.7217 54.9369 86.8548 55.0056C86.9878 55.0742 87.1331 55.1159 87.2823 55.1283H87.5103C87.6962 55.1175 87.8716 55.0387 88.0033 54.9071C88.1349 54.7754 88.2137 54.6 88.2245 54.4141L88.3537 51.4468C88.3664 51.2863 88.3152 51.1272 88.2114 51.0042C88.1075 50.8811 87.9594 50.804 87.799 50.7895C87.686 50.7833 87.5733 50.8068 87.4723 50.8579Z" fill="#FFB573"/>
<path d="M127.342 120.682C126.096 115.112 128.585 101.75 129.622 98.7257C130.659 95.7015 137.859 92.0845 142.228 90.1278C146.597 88.1712 154.599 93.4979 154.599 93.4979C154.599 93.4979 146.294 92.6278 143.908 93.817C141.522 95.0062 136.434 98.6498 134.789 101.773C133.144 104.896 127.608 114.147 127.342 120.682Z" fill="#263238"/>
<path d="M112.172 99.2044C117.89 99.8047 122.578 103.714 124.068 104.903C125.557 106.093 126.15 110.876 126.37 113.729C126.59 116.583 121.997 120.04 121.997 120.04C121.997 120.04 124.163 115.542 123.973 113.961C123.783 112.38 122.753 108.786 121.313 107.217C119.873 105.648 116.754 101.526 112.172 99.2044Z" fill="#263238"/>
<path d="M125.758 117.069C126.294 109.265 122.563 104.125 123.099 97.9469C123.634 91.7691 130.595 77.9852 131.199 74.087C132.339 77.5368 127.32 94.1285 127.54 98.6269C127.76 103.125 130.127 112.202 125.758 117.069Z" fill="#2825A4"/>
<path opacity="0.6" d="M125.758 117.069C126.294 109.265 122.563 104.125 123.099 97.9469C123.634 91.7691 130.595 77.9852 131.199 74.087C132.339 77.5368 127.32 94.1285 127.54 98.6269C127.76 103.125 130.127 112.202 125.758 117.069Z" fill="white"/>
<path d="M120.059 86.811C120.994 86.9652 121.866 87.3789 122.577 88.005C123.288 88.6311 123.808 89.4443 124.079 90.352C123.461 91.0921 122.656 91.6531 121.748 91.9765C120.84 92.2999 119.862 92.3739 118.916 92.1908C116.378 91.7197 115.496 90.2912 115.804 88.8208C116.112 87.3505 117.521 86.3399 120.059 86.811Z" fill="#2825A4"/>
<path d="M127.981 90.6863C127.709 91.2507 127.285 91.7277 126.756 92.0634C126.226 92.3991 125.614 92.5802 124.987 92.586C124.629 92.0566 124.419 91.4412 124.378 90.8033C124.338 90.1655 124.468 89.5283 124.756 88.9576C125.516 87.4379 126.587 87.115 127.476 87.5861C128.365 88.0572 128.745 89.1514 127.981 90.6863Z" fill="#2825A4"/>
<path d="M126.264 103.866C126.717 104.303 127.037 104.857 127.19 105.467C127.342 106.077 127.32 106.718 127.126 107.316C126.509 107.486 125.858 107.488 125.24 107.322C124.622 107.156 124.06 106.827 123.612 106.37C122.404 105.158 122.449 104.049 123.183 103.357C123.916 102.666 125.056 102.65 126.264 103.866Z" fill="#2825A4"/>
<path d="M129.315 110.994C129.013 111.239 128.649 111.395 128.264 111.444C127.878 111.493 127.487 111.433 127.134 111.271C127.074 110.88 127.12 110.481 127.267 110.114C127.414 109.747 127.657 109.427 127.97 109.185C128.802 108.532 129.489 108.638 129.85 109.14C130.211 109.641 130.147 110.34 129.315 110.994Z" fill="#2825A4"/>
<path d="M131.686 100.158C131.114 100.827 130.365 101.321 129.525 101.584C128.685 101.846 127.788 101.867 126.937 101.644C126.647 100.799 126.59 99.8921 126.769 99.0175C126.949 98.143 127.36 97.3325 127.959 96.6703C129.547 94.8884 131.097 94.8618 132.138 95.823C133.179 96.7842 133.274 98.3838 131.686 100.158Z" fill="#2825A4"/>
<path d="M126.081 117.327H126.043C125.994 117.318 125.95 117.29 125.922 117.248C125.893 117.207 125.882 117.156 125.891 117.107C128.589 103.019 126.085 90.7851 118.448 80.7473C118.413 80.7111 118.394 80.6627 118.394 80.6124C118.394 80.562 118.413 80.5137 118.448 80.4775C118.466 80.4598 118.486 80.4458 118.509 80.4362C118.532 80.4266 118.556 80.4216 118.581 80.4216C118.606 80.4216 118.63 80.4266 118.653 80.4362C118.676 80.4458 118.697 80.4598 118.714 80.4775V80.4965C126.419 90.6255 128.95 102.958 126.233 117.16C126.229 117.201 126.212 117.239 126.185 117.269C126.157 117.299 126.121 117.319 126.081 117.327Z" fill="#263238"/>
<path d="M119.338 76.3666C120.025 77.229 120.457 78.2673 120.582 79.363C120.708 80.4588 120.523 81.5677 120.048 82.5633C118.937 82.7194 117.804 82.5752 116.767 82.1456C115.73 81.716 114.827 81.0167 114.152 80.1204C112.328 77.7344 112.666 75.8157 114.095 74.7785C115.523 73.7413 117.507 73.973 119.338 76.3666Z" fill="#2825A4"/>
<path d="M117.835 117.345L117.417 123.318L117.796 123.345L118.214 117.372L117.835 117.345Z" fill="#2825A4"/>
<path d="M117.234 125.408L117.056 127.954L117.436 127.981L117.614 125.435L117.234 125.408Z" fill="#2825A4"/>
<path d="M135.803 113.156H119.189L117.472 137.262H137.525L135.803 113.156Z" fill="#2825A4"/>
<path d="M139.96 134.39C138.115 134.39 136.31 133.843 134.776 132.817C133.241 131.792 132.045 130.335 131.339 128.63C130.633 126.925 130.448 125.049 130.808 123.238C131.168 121.428 132.057 119.766 133.362 118.461C134.667 117.156 136.33 116.267 138.14 115.907C139.95 115.547 141.826 115.732 143.531 116.438C145.236 117.144 146.693 118.34 147.719 119.875C148.744 121.409 149.291 123.213 149.291 125.059C149.288 127.533 148.304 129.904 146.555 131.654C144.806 133.403 142.434 134.387 139.96 134.39ZM139.96 116.488C138.265 116.488 136.608 116.99 135.198 117.932C133.789 118.874 132.69 120.213 132.041 121.779C131.392 123.345 131.223 125.068 131.553 126.731C131.884 128.394 132.701 129.921 133.899 131.12C135.098 132.318 136.625 133.135 138.288 133.465C139.951 133.796 141.674 133.626 143.24 132.978C144.806 132.329 146.145 131.23 147.087 129.821C148.029 128.411 148.531 126.754 148.531 125.059C148.527 122.787 147.623 120.609 146.016 119.003C144.41 117.396 142.232 116.492 139.96 116.488Z" fill="#2825A4"/>
</svg>
