<svg width="26" height="26" viewBox="0 0 26 26" fill="none" xmlns="http://www.w3.org/2000/svg">
<path d="M3.63965 19.3701C3.63965 20.3836 4.44606 21.1901 5.45965 21.1901H20.5396C21.5532 21.1901 22.3596 20.3836 22.3596 19.3701V9.49006C22.3596 8.47647 21.5532 7.67006 20.5396 7.67006H17.0296V6.37006C17.0296 5.51185 16.3279 4.81006 15.4696 4.81006H10.5296C9.67144 4.81006 8.96965 5.51185 8.96965 6.37006V7.67006H5.45965C4.44606 7.67006 3.63965 8.47647 3.63965 9.49006V19.3701ZM20.5396 19.6301H5.45965C5.30324 19.6301 5.19965 19.5265 5.19965 19.3701V13.9883H10.0096V15.2101C10.0096 16.0683 10.7114 16.7701 11.5696 16.7701H14.4296C15.2879 16.7701 15.9896 16.0683 15.9896 15.2101V13.9883H20.7997V19.3701C20.7997 19.5265 20.6961 19.6301 20.5396 19.6301ZM11.5696 13.9883H14.4296V15.2101H11.5696V13.9883ZM10.5296 6.37006H15.4696V7.67006H10.5296V6.37006ZM5.45965 9.23006H20.5396C20.6961 9.23006 20.7997 9.33365 20.7997 9.49006V12.4283H5.19965V9.49006C5.19965 9.33365 5.30324 9.23006 5.45965 9.23006Z" fill="#031838"/>
</svg>
