<svg width="48" height="42" viewBox="0 0 48 42" fill="none" xmlns="http://www.w3.org/2000/svg">
<mask id="mask0" mask-type="alpha" maskUnits="userSpaceOnUse" x="0" y="0" width="48" height="42">
<rect width="48" height="42" fill="#C4C4C4"/>
</mask>
<g mask="url(#mask0)">
<path d="M24.2732 15.77C25.0655 15.77 25.8205 15.9412 26.507 16.249C26.5584 15.0916 26.9445 14.0212 27.5638 13.1351C27.1278 13.041 26.678 12.9908 26.2174 12.9908H21.8537C21.3942 12.9908 20.9444 13.0405 20.5117 13.1336C21.1717 14.0799 21.5661 15.2349 21.5725 16.4855C22.3746 16.0298 23.2947 15.77 24.2732 15.77Z" fill="#354660"/>
<path d="M24.0343 12.6287C26.8745 12.6287 29.177 10.2494 29.177 7.31435C29.177 4.37932 26.8745 2 24.0343 2C21.1941 2 18.8916 4.37932 18.8916 7.31435C18.8916 10.2494 21.1941 12.6287 24.0343 12.6287Z" fill="#354660"/>
<path d="M32.1115 21.697C34.7289 21.697 36.8495 19.5047 36.8495 16.8009C36.8495 14.0961 34.7289 11.9048 32.1115 11.9048C29.5186 11.9048 27.4162 14.0572 27.377 16.727C28.8709 17.6951 29.9184 19.3325 30.1095 21.2332C30.718 21.5279 31.3947 21.697 32.1115 21.697Z" fill="#354660"/>
<path d="M15.9592 11.9043C13.3413 11.9043 11.2207 14.0962 11.2207 16.8004C11.2207 19.5047 13.3413 21.696 15.9592 21.696C16.8862 21.696 17.7481 21.416 18.4791 20.9406C18.7118 19.3756 19.5237 18.007 20.6835 17.0754C20.6884 16.9837 20.6967 16.8931 20.6967 16.8004C20.6967 14.0962 18.5751 11.9043 15.9592 11.9043Z" fill="#354660"/>
<path d="M35.1914 11.7994C36.6853 12.7674 37.7329 14.4049 37.9235 16.3061C38.5315 16.6003 39.2087 16.7699 39.9255 16.7699C42.5429 16.7699 44.6635 14.578 44.6635 11.8738C44.6635 9.16952 42.5429 6.97766 39.9255 6.97766C37.3331 6.97715 35.2306 9.13003 35.1914 11.7994Z" fill="#354660"/>
<path d="M24.2736 26.7519C26.8906 26.7519 29.0121 24.5596 29.0121 21.8553C29.0121 19.1509 26.8906 16.9586 24.2736 16.9586C21.6566 16.9586 19.5352 19.1509 19.5352 21.8553C19.5352 24.5596 21.6566 26.7519 24.2736 26.7519Z" fill="#354660"/>
<path d="M34.121 22.0299H30.1307C30.0871 23.6795 29.4061 25.165 28.3281 26.2329C31.3012 27.1473 33.4772 29.9969 33.4772 33.3629V34.9284C37.4165 34.7781 39.687 33.6257 39.8365 33.5467L40.153 33.3806H40.1858V28.2992C40.1868 24.842 37.4655 22.0299 34.121 22.0299Z" fill="#354660"/>
<path d="M41.934 17.1036H37.9447C37.9016 18.7532 37.22 20.2388 36.1426 21.3066C39.1157 22.221 41.2912 25.0701 41.2912 28.4361V30.0017C45.23 29.8518 47.501 28.6994 47.6505 28.6199L47.967 28.4543H48.0008V23.3729C48.0008 19.9163 45.2795 17.1036 41.934 17.1036Z" fill="#354660"/>
<path d="M20.2138 26.2329C19.1413 25.1701 18.4622 23.6927 18.4122 22.0537C18.2647 22.0426 18.1182 22.0299 17.9673 22.0299H13.9481C10.6026 22.0299 7.88086 24.8425 7.88086 28.2997V33.3816L7.89311 33.4601L8.23168 33.5705C10.7927 34.3973 13.0789 34.7771 15.0638 34.8976V33.3629C15.0648 29.9974 17.2397 27.1478 20.2138 26.2329Z" fill="#354660"/>
<path d="M26.2833 27.0852H22.2626C18.9171 27.0852 16.1953 29.8988 16.1953 33.3545V38.4364L16.2081 38.5159L16.5461 38.6253C19.7388 39.6556 22.5125 39.9999 24.7947 39.9999C29.2539 39.9999 31.838 38.686 31.9978 38.6025L32.3143 38.4364H32.3476V33.3545C32.3491 29.8978 29.6278 27.0852 26.2833 27.0852Z" fill="#354660"/>
<path d="M8.07832 16.9269C8.79515 16.9269 9.47179 16.7573 10.0803 16.4631C10.2714 14.5619 11.3185 12.9239 12.8124 11.9559C12.7732 9.28703 10.6707 7.13416 8.07832 7.13416C5.46042 7.13416 3.33984 9.32602 3.33984 12.0308C3.33984 14.7351 5.46042 16.9269 8.07832 16.9269Z" fill="#354660"/>
<path d="M11.8582 21.4639C10.7813 20.396 10.0997 18.91 10.0566 17.2599H6.06678C2.72128 17.2604 0 20.073 0 23.5297V28.6116H0.0338078L0.350327 28.7772C0.500257 28.8552 2.77028 30.0091 6.70962 30.1584V28.5929C6.70962 25.2274 8.88459 22.3778 11.8582 21.4639Z" fill="#354660"/>
</g>
</svg>
