<svg width="49" height="54" viewBox="0 0 49 54" fill="none" xmlns="http://www.w3.org/2000/svg">
<path d="M24.7808 53.4694L24.1732 53.1591C23.3976 52.7583 5.2601 43.1014 2.68749 30.4194C1.1474 22.2926 0.514392 14.0199 0.800067 5.75341V4.61578L1.93769 4.53821C2.07989 4.53821 15.6022 3.46521 24.3284 0.659914L24.7291 0.53064L25.117 0.659914C33.8431 3.43936 47.3654 4.53821 47.5076 4.53821L48.6453 4.61578V5.75341C48.9736 14.0151 48.3839 22.2877 46.8871 30.4194C44.3016 43.1014 26.2029 52.7583 25.4014 53.1591L24.7808 53.4694ZM3.34682 7.04618C3.18302 14.7182 3.81554 22.3866 5.23424 29.9281C7.30267 40.1927 21.6394 48.8025 24.7808 50.6123C27.9093 48.8542 42.2461 40.2702 44.3145 29.9281C45.74 22.3875 46.3726 14.7184 46.202 7.04618C38.9626 6.45637 31.7924 5.2058 24.7808 3.31009C17.7647 5.20496 10.5903 6.45551 3.34682 7.04618Z" fill="#7DDD81"/>
<path d="M24.7824 46.2816C19.3657 42.9722 10.2388 36.1205 8.84258 29.1783C7.65594 22.9735 7.04143 16.6729 7.00684 10.3557C13.0063 9.73695 18.9491 8.65645 24.7824 7.12378C30.611 8.65745 36.5496 9.73798 42.545 10.3557C42.5055 16.6726 41.8911 22.9728 40.7092 29.1783C39.313 36.1205 30.1861 42.9722 24.7824 46.2816Z" fill="#2825A4"/>
<path fill-rule="evenodd" clip-rule="evenodd" d="M32.7033 16.3441C30.7497 14.3906 27.5823 14.3906 25.6288 16.3441L22.4895 19.4834C22.2404 19.7325 22.4444 20.1208 22.7964 20.1057L24.3234 20.0402C24.6176 20.0276 24.8962 19.9051 25.1044 19.6969L27.043 17.7583C28.2155 16.5858 30.1165 16.5858 31.289 17.7583C32.4615 18.9308 32.4615 20.8319 31.289 22.0044L28.1497 25.1437C26.9772 26.3162 25.0762 26.3162 23.9037 25.1437C23.6352 24.8752 23.2852 24.6802 22.9058 24.6965L22.8805 24.6976C22.1178 24.7303 21.6173 25.5063 22.0889 26.1065C22.2118 26.2629 22.3453 26.4137 22.4895 26.5579C24.443 28.5114 27.6104 28.5114 29.564 26.5579L32.7033 23.4186C34.6568 21.465 34.6568 18.2977 32.7033 16.3441Z" fill="white"/>
<path fill-rule="evenodd" clip-rule="evenodd" d="M25.8838 24.2878C26.6953 24.2602 27.2079 23.4189 26.662 22.8179C26.6068 22.7571 26.5499 22.6974 26.4912 22.6388C24.5097 20.6572 21.297 20.6572 19.3154 22.6388L16.2775 25.6767C14.2959 27.6582 14.2959 30.871 16.2775 32.8525C18.259 34.8341 21.4717 34.8341 23.4533 32.8525L26.4912 29.8146C26.6801 29.6257 26.5303 29.3254 26.2634 29.3345L24.5178 29.3939C24.2289 29.4037 23.9545 29.5229 23.7501 29.7273L22.0391 31.4383C20.8386 32.6388 18.8922 32.6388 17.6917 31.4383C16.4912 30.2378 16.4912 28.2914 17.6917 27.0909L20.7296 24.053C21.9301 22.8525 23.8765 22.8525 25.077 24.053C25.2292 24.2051 25.4317 24.3032 25.6468 24.2958L25.8838 24.2878Z" fill="white"/>
</svg>
