<svg width="257" height="191" viewBox="0 0 257 191" fill="none" xmlns="http://www.w3.org/2000/svg">
<path d="M231.332 175.982H214.364V176.11H231.332V175.982Z" fill="#EBEBEB"/>
<path d="M170.528 177.375H166.076V177.503H170.528V177.375Z" fill="#EBEBEB"/>
<path d="M213.851 171.227H204.02V171.355H213.851V171.227Z" fill="#EBEBEB"/>
<path d="M49.8377 172.088H27.71V172.216H49.8377V172.088Z" fill="#EBEBEB"/>
<path d="M57.6454 172.088H54.4023V172.216H57.6454V172.088Z" fill="#EBEBEB"/>
<path d="M116.185 174.25H68.1899V174.378H116.185V174.25Z" fill="#EBEBEB"/>
<path d="M122.973 144.888H24.0416C23.2658 144.888 22.5217 144.58 21.973 144.031C21.4244 143.483 21.1162 142.738 21.1162 141.963V2.89981C21.123 2.12839 21.4342 1.39086 21.9821 0.847761C22.5299 0.304666 23.2702 -2.95749e-05 24.0416 2.15311e-09H122.973C123.357 2.15311e-09 123.738 0.0756677 124.093 0.222684C124.448 0.369701 124.77 0.585187 125.042 0.856838C125.314 1.12849 125.529 1.45099 125.676 1.80591C125.823 2.16084 125.899 2.54125 125.899 2.92543V141.963C125.899 142.347 125.823 142.727 125.676 143.082C125.529 143.437 125.314 143.76 125.042 144.031C124.77 144.303 124.448 144.518 124.093 144.665C123.738 144.812 123.357 144.888 122.973 144.888ZM24.0416 0.102467C23.3002 0.103821 22.5894 0.398975 22.0651 0.923285C21.5408 1.4476 21.2456 2.15832 21.2443 2.89981V141.963C21.2456 142.704 21.5408 143.415 22.0651 143.939C22.5894 144.463 23.3002 144.759 24.0416 144.76H122.973C123.715 144.759 124.426 144.463 124.95 143.939C125.474 143.415 125.769 142.704 125.771 141.963V2.89981C125.769 2.15832 125.474 1.4476 124.95 0.923285C124.426 0.398975 123.715 0.103821 122.973 0.102467H24.0416Z" fill="#EBEBEB"/>
<path d="M233.791 144.888H134.86C134.084 144.888 133.34 144.58 132.791 144.031C132.242 143.483 131.934 142.738 131.934 141.963V2.89981C131.941 2.12839 132.252 1.39086 132.8 0.847761C133.348 0.304666 134.088 -2.95749e-05 134.86 2.15311e-09H233.791C234.567 2.15311e-09 235.311 0.308214 235.86 0.856838C236.408 1.40546 236.717 2.14955 236.717 2.92543V141.963C236.717 142.738 236.408 143.483 235.86 144.031C235.311 144.58 234.567 144.888 233.791 144.888ZM134.86 0.102467C134.118 0.103821 133.407 0.398975 132.883 0.923285C132.359 1.4476 132.064 2.15832 132.062 2.89981V141.963C132.064 142.704 132.359 143.415 132.883 143.939C133.407 144.463 134.118 144.759 134.86 144.76H233.791C234.533 144.759 235.243 144.463 235.768 143.939C236.292 143.415 236.587 142.704 236.589 141.963V2.89981C236.587 2.15832 236.292 1.4476 235.768 0.923285C235.243 0.398975 234.533 0.103821 233.791 0.102467H134.86Z" fill="#EBEBEB"/>
<path d="M257 167.738H0.833008V167.866H257V167.738Z" fill="#EBEBEB"/>
<path d="M53.7727 108.692L43.3877 105.479L54.9869 106.094C52.4253 101.667 51.3033 99.4901 49.2898 95.2428C52.1896 98.5474 53.7061 100.228 56.8723 103.63C57.7 98.7152 58.9093 93.8727 60.4894 89.1461C59.7208 93.3547 59.3877 97.6314 59.4955 101.908L59.7107 101.949C63.1525 98.0282 66.888 94.375 70.8847 91.0212C67.0775 95.1141 63.6879 99.5764 60.7661 104.342C65.0902 102.713 69.445 101.16 73.8306 99.6848C69.4347 102.093 65.1209 104.562 60.8583 107.165L71.6173 110.587L60.5099 109.916C62.8513 112.652 64.0655 114.015 66.5862 116.812C63.4609 114.763 61.9188 113.738 58.8704 111.689C59.2119 114.545 59.7251 117.378 60.4074 120.173C58.8704 116.71 58.2198 114.988 57.0465 111.586C54.8691 122.017 55.4327 132.131 57.5589 142.501L54.946 142.024C53.4082 131.838 53.8238 121.453 56.1704 111.422C53.537 114.138 52.3074 115.521 50.0224 118.293C51.3406 115.736 52.8138 113.262 54.4336 110.884C50.6936 111.704 48.8389 112.119 45.1757 112.934C48.4803 111.217 50.2274 110.367 53.7727 108.692Z" fill="#EBEBEB"/>
<path d="M50.0884 112.293L59.6947 107.201L48.4233 109.967C50.0936 105.146 50.8057 102.795 52.0097 98.2451C49.781 102.036 48.6027 103.968 46.123 107.903C44.3958 103.224 42.3042 98.6876 39.8674 94.336C41.4057 98.3278 42.5302 102.467 43.2232 106.688L43.0182 106.765C38.9033 103.561 34.5532 100.67 30.0049 98.117C34.51 101.426 38.6721 105.178 42.429 109.317C37.8624 108.507 33.2873 107.795 28.7036 107.18C33.4734 108.717 38.1459 110.352 42.8389 112.109L32.9252 117.473L43.6843 114.742C41.9013 117.867 40.9638 119.451 39.0066 122.653C41.6913 120.045 43.0131 118.749 45.626 116.167C45.8281 119.036 45.8555 121.916 45.708 124.789C46.5533 121.1 46.8915 119.282 47.4089 115.726C51.5076 125.568 52.8294 135.604 52.6911 146.184L55.1708 145.236C54.7825 134.941 52.4351 124.814 48.2543 115.398C51.3283 117.575 52.814 118.697 55.5755 121.003C53.8031 118.735 51.8918 116.579 49.8528 114.548C53.685 114.655 55.5806 114.717 59.3361 114.85C55.7395 113.794 53.8848 113.282 50.0884 112.293Z" fill="#E6E6E6"/>
<path d="M59.4851 118.011L52.4814 114.297L60.6788 116.315C59.4594 112.801 58.942 111.084 58.0761 107.77C59.7002 110.531 60.561 111.94 62.3695 114.809C63.6269 111.398 65.1516 108.092 66.9293 104.921C65.8051 107.829 64.9844 110.846 64.4803 113.923L64.6289 113.984C67.6287 111.646 70.8005 109.538 74.1173 107.677C70.8335 110.089 67.7991 112.823 65.0592 115.839C68.3792 115.262 71.7093 114.749 75.0498 114.302C71.571 115.424 68.164 116.607 64.7416 117.888L71.9706 121.797L64.1063 119.804C65.4076 122.084 66.089 123.242 67.5184 125.573C65.5613 123.672 64.5981 122.725 62.6923 120.844C62.5458 122.937 62.5253 125.036 62.6308 127.131C62.016 124.441 61.7701 123.119 61.3961 120.522C58.4143 127.694 57.4408 135.015 57.5433 142.726L55.7348 142.034C56.0195 134.531 57.7304 127.15 60.7761 120.286C58.9302 121.561 57.1501 122.929 55.4427 124.385C56.7338 122.732 58.1249 121.159 59.608 119.676C56.8209 119.758 55.4376 119.799 52.6966 119.902C55.3659 119.102 56.7184 118.728 59.4851 118.011Z" fill="#E6E6E6"/>
<path d="M62.2003 167.738H45.3189L43.6641 140.851H63.85L62.2003 167.738Z" fill="#E0E0E0"/>
<path d="M65.1566 142.234H42.1887L41.7788 138.658H65.5716L65.1566 142.234Z" fill="#F5F5F5"/>
<path d="M56.5132 23.7673H37.521V48.4361H56.5132V23.7673Z" fill="#F5F5F5"/>
<path d="M55.0482 25.6629H38.9814V46.5405H55.0482V25.6629Z" fill="#EBEBEB"/>
<path d="M54.0492 26.9692H39.9907V45.2339H54.0492V26.9692Z" fill="#FAFAFA"/>
<path d="M74.0406 51.7505H55.0483V67.9352H74.0406V51.7505Z" fill="#EBEBEB"/>
<path d="M72.5805 52.9957H56.5137V66.6904H72.5805V52.9957Z" fill="#F5F5F5"/>
<path d="M71.576 53.8514H57.5176V65.8349H71.576V53.8514Z" fill="#FAFAFA"/>
<path d="M76.751 47.0425V33.9832H59.7825V47.0425H76.751Z" fill="#E6E6E6"/>
<path d="M75.4492 46.0384V34.9874H61.0936V46.0384H75.4492Z" fill="#F0F0F0"/>
<path d="M74.5474 45.3467V35.679H61.9901V45.3467H74.5474Z" fill="#EBEBEB"/>
<path d="M210.47 141.317H223.406C224.522 141.317 225.593 140.874 226.382 140.085C227.172 139.297 227.616 138.227 227.618 137.111V118.196C227.618 117.992 227.537 117.796 227.392 117.652C227.248 117.508 227.053 117.427 226.849 117.427C226.645 117.427 226.45 117.508 226.306 117.652C226.162 117.796 226.081 117.992 226.081 118.196V137.111C226.079 137.819 225.797 138.498 225.295 138.999C224.794 139.499 224.115 139.78 223.406 139.78H210.47V141.317Z" fill="#E0E0E0"/>
<path d="M206.791 159.444V141.829L205.766 141.507C205.2 141.328 204.705 140.973 204.354 140.494C204.003 140.015 203.814 139.437 203.814 138.843H213.574C213.574 139.437 213.383 140.016 213.032 140.495C212.68 140.974 212.184 141.328 211.617 141.507L210.593 141.829V159.444L218.708 163.091V164.628L208.702 161.129L198.696 164.628V163.091L206.791 159.444Z" fill="#E0E0E0"/>
<path d="M195.904 139.78H221.423C221.787 139.78 222.147 139.708 222.483 139.569C222.819 139.43 223.125 139.226 223.382 138.968C223.638 138.711 223.842 138.405 223.981 138.069C224.12 137.733 224.191 137.372 224.19 137.008C224.19 136.275 223.899 135.571 223.38 135.052C222.861 134.533 222.157 134.242 221.423 134.242H195.904C195.17 134.242 194.466 134.533 193.946 135.052C193.426 135.571 193.134 136.274 193.132 137.008C193.132 137.372 193.204 137.733 193.343 138.069C193.483 138.405 193.687 138.711 193.944 138.968C194.202 139.226 194.507 139.43 194.843 139.569C195.18 139.709 195.54 139.78 195.904 139.78Z" fill="#F0F0F0"/>
<path d="M225.927 124.851L227.285 105.157C227.334 104.426 227.092 103.706 226.612 103.153C226.132 102.6 225.453 102.259 224.723 102.206C223.991 102.153 223.269 102.394 222.715 102.874C222.16 103.355 221.819 104.036 221.767 104.767L220.394 124.461C220.342 125.193 220.582 125.915 221.063 126.47C221.543 127.024 222.224 127.365 222.955 127.418C223.319 127.445 223.685 127.4 224.031 127.286C224.378 127.171 224.698 126.99 224.974 126.751C225.25 126.513 225.476 126.222 225.64 125.896C225.803 125.57 225.901 125.215 225.927 124.851Z" fill="#EBEBEB"/>
<path d="M216.92 165.709C216.92 166.056 217.023 166.395 217.216 166.683C217.409 166.971 217.683 167.196 218.003 167.328C218.324 167.461 218.676 167.495 219.016 167.427C219.356 167.359 219.669 167.192 219.913 166.946C220.158 166.701 220.325 166.388 220.392 166.048C220.459 165.708 220.423 165.355 220.29 165.035C220.157 164.715 219.931 164.442 219.642 164.25C219.354 164.058 219.014 163.956 218.667 163.957C218.438 163.957 218.21 164.002 217.998 164.09C217.785 164.179 217.593 164.308 217.43 164.47C217.268 164.633 217.139 164.826 217.052 165.039C216.964 165.252 216.92 165.479 216.92 165.709Z" fill="#E0E0E0"/>
<path d="M196.908 165.709C196.908 166.056 197.011 166.395 197.204 166.683C197.397 166.971 197.671 167.196 197.991 167.328C198.312 167.461 198.664 167.495 199.004 167.427C199.344 167.359 199.656 167.192 199.901 166.946C200.146 166.701 200.313 166.388 200.38 166.048C200.447 165.708 200.411 165.355 200.278 165.035C200.144 164.715 199.919 164.442 199.63 164.25C199.341 164.058 199.002 163.956 198.655 163.957C198.425 163.957 198.198 164.002 197.986 164.09C197.773 164.179 197.58 164.308 197.418 164.47C197.256 164.633 197.127 164.826 197.04 165.039C196.952 165.252 196.908 165.479 196.908 165.709Z" fill="#E0E0E0"/>
<path d="M155.491 168.035H165.487L166.512 149.089H154.467L155.491 168.035Z" fill="#EBEBEB"/>
<path d="M163.182 168.035H167.28V167.19L163.182 166.678V168.035Z" fill="#E0E0E0"/>
<path d="M166.511 149.089H154.467C154.467 148.681 154.628 148.29 154.917 148.002C155.205 147.714 155.596 147.552 156.004 147.552H164.99C165.397 147.552 165.788 147.714 166.077 148.002C166.365 148.29 166.527 148.681 166.527 149.089H166.511Z" fill="#E0E0E0"/>
<path d="M175.99 118.897H191.98V116.981L175.99 115.957V118.897Z" fill="#E0E0E0"/>
<path d="M152.335 127.402H199.639V120.854H152.335V127.402Z" fill="#F0F0F0"/>
<path d="M142.53 122.807L209.276 122.807V118.903L142.53 118.903V122.807Z" fill="#FAFAFA"/>
<path d="M148.728 168.035H145.716L150.931 122.801H154.466L148.728 168.035Z" fill="#E6E6E6"/>
<path d="M197.338 122.801H200.873L206.094 168.035H203.077L197.338 122.801Z" fill="#E6E6E6"/>
<path d="M159.789 117.924C161.156 111.141 162.522 104.354 163.888 97.5638C164.083 96.5955 165.569 97.0053 165.374 97.9736L161.47 117.36H169.903C170.107 117.36 170.302 117.441 170.446 117.585C170.59 117.73 170.671 117.925 170.671 118.129C170.671 118.333 170.59 118.528 170.446 118.672C170.302 118.816 170.107 118.897 169.903 118.897H160.532C160.414 118.896 160.298 118.867 160.193 118.814C160.088 118.761 159.996 118.685 159.924 118.591C159.853 118.497 159.803 118.389 159.78 118.273C159.757 118.157 159.76 118.038 159.789 117.924Z" fill="#E0E0E0"/>
<path d="M169.36 112.462L166.727 74.8008C165.754 75.4947 164.976 76.427 164.468 77.508C163.959 78.5891 163.737 79.7827 163.822 80.9744L165.62 106.735C165.699 107.93 166.085 109.085 166.74 110.088C167.395 111.091 168.298 111.909 169.36 112.462Z" fill="#FAFAFA"/>
<path d="M128.916 190.593C183.778 190.593 228.253 187.997 228.253 184.794C228.253 181.591 183.778 178.994 128.916 178.994C74.0545 178.994 29.5801 181.591 29.5801 184.794C29.5801 187.997 74.0545 190.593 128.916 190.593Z" fill="#F5F5F5"/>
<path d="M123.568 86.5844C123.568 86.5844 114.633 87.5578 110.58 86.7381C106.528 85.9183 102.68 79.1914 102.68 79.1914L107.05 76.3787L112.01 82.788L123.368 83.8126L126.442 81.2971L129.675 82.0758C129.675 82.0758 129.747 86.0976 128.369 86.3128C126.99 86.528 123.568 86.5844 123.568 86.5844Z" fill="#F0C8A3"/>
<path d="M101.568 69.2471C101.568 69.2471 104.258 69.1856 107.117 73.7095C107.772 74.7102 108.313 75.7807 108.731 76.9013C109.115 77.926 107.163 79.1402 105.759 80.0471C104.668 80.7489 103.51 81.5021 102.828 81.3945C102.274 80.6784 101.816 79.893 101.466 79.0582C100.282 76.2404 99.0423 69.1292 101.568 69.2471Z" fill="#2825A4"/>
<path opacity="0.2" d="M100.958 77.7726L102.193 74.7396L103.095 74.007C103.095 74.007 105.042 77.747 104.898 80.6263C103.361 81.5536 102.465 81.4512 101.466 79.0586C101.312 78.6948 101.138 78.2593 100.958 77.7726Z" fill="black"/>
<path d="M103.3 69.8056C103.3 69.8056 103.208 73.9504 102.952 76.0612C102.634 78.7099 101.901 80.9796 99.7853 84.7709C97.2595 89.305 94.4366 94.4283 94.4366 94.4283L78.2212 87.7117C79.9171 83.6152 81.3695 79.4221 82.5709 75.1544C83.108 73.2528 83.4833 71.3093 83.6929 69.3445C83.7595 68.3475 83.9647 67.3646 84.3026 66.4242C85.5886 63.1247 88.4935 63.2067 91.3933 64.1289C91.3882 64.192 91.3882 64.2554 91.3933 64.3185C91.4548 66.6906 94.2009 70.7329 94.9796 71.0352C95.9479 71.4194 98.9707 69.7595 99.0066 67.5052C99.0091 67.4591 99.0091 67.413 99.0066 67.3669C100.789 68.2327 103.3 69.8056 103.3 69.8056Z" fill="#2825A4"/>
<path opacity="0.9" d="M93.2938 63.7139L89.9892 63.8369L87.8887 67.4796L90.9422 67.9612L94.6207 71.901L99.5238 70.8866L101.717 71.4194L100.974 68.0124L97.4744 65.379L93.2938 63.7139Z" fill="white"/>
<path d="M99.0117 67.5103C98.9759 69.7646 95.9377 71.4245 94.9848 71.0403C94.2112 70.738 91.465 66.6957 91.3984 64.3236C91.7013 64.3644 92.0095 64.3323 92.2973 64.2298C92.5852 64.1273 92.8444 63.9574 93.0533 63.7344C94.4161 62.1154 95.2614 59.2002 95.6406 57.3661L98.3047 62.72C97.9611 63.1727 97.725 63.6976 97.614 64.255C97.5031 64.8124 97.5203 65.3877 97.6643 65.9374C97.695 65.9784 97.7975 66.7469 99.0117 67.5103Z" fill="#F0C8A3"/>
<path opacity="0.1" d="M97.6641 61.4084L98.3147 62.7199C97.9185 63.2706 97.6666 63.9117 97.5821 64.5848C95.9426 62.8941 95.5737 60.0046 95.5737 60.0046L97.6641 61.4084Z" fill="black"/>
<path opacity="0.2" d="M87.3867 67.9717C86.0915 70.5544 84.477 72.9641 82.5811 75.1444C83.1181 73.2428 83.4935 71.2993 83.7031 69.3345C83.7697 68.3375 83.9749 67.3546 84.3127 66.4142L85.983 66.0197L87.3867 67.9717Z" fill="black"/>
<path d="M78.7079 67.3104C78.7079 67.3104 73.436 71.4654 71.8478 73.0383C69.4808 75.3797 63.1944 83.1569 63.1944 83.1569L59.1982 85.7186L59.3724 88.3417L61.4218 89.5662C61.5724 89.6562 61.7395 89.7152 61.9132 89.74C62.0869 89.7647 62.2638 89.7546 62.4336 89.7102C62.6034 89.6659 62.7626 89.5882 62.902 89.4817C63.0415 89.3751 63.1583 89.2419 63.2457 89.0897L65.5102 85.1601C65.5102 85.1601 71.3406 79.0582 73.518 77.2856C75.3573 75.7844 81.4028 71.9983 81.4028 71.9983L78.7079 67.3104Z" fill="#F0C8A3"/>
<path d="M88.4421 63.5857C88.4421 63.5857 85.0402 61.9769 82.1096 63.7855C79.1791 65.594 77.4986 65.9424 78.3337 68.4785C78.9332 70.3382 81.2335 74.0475 81.2335 74.0475C83.1702 73.2636 89.8254 66.1832 88.4421 63.5857Z" fill="#2825A4"/>
<path d="M80.0757 172.329C80.1679 175.812 80.2499 178.569 80.2499 178.569L84.1385 178.748C84.1385 178.748 84.3486 176.376 84.6508 172.738L80.0757 172.329Z" fill="#F0C8A3"/>
<path d="M85.2089 178.195C85.1874 178.191 85.1674 178.181 85.1512 178.167C85.1349 178.152 85.1229 178.134 85.1166 178.113C85.1148 178.091 85.1191 178.07 85.1291 178.051C85.1391 178.032 85.1543 178.016 85.173 178.005C85.2447 177.969 86.8688 177.109 87.6424 177.298C87.7838 177.328 87.9085 177.41 87.9908 177.529C88.0394 177.591 88.0658 177.668 88.0658 177.747C88.0658 177.825 88.0394 177.902 87.9908 177.964C87.5867 178.23 87.1041 178.349 86.6229 178.302C86.1495 178.302 85.6768 178.266 85.2089 178.195ZM85.5624 178.056C86.4282 178.144 87.6117 178.128 87.8166 177.852C87.8474 177.816 87.8781 177.754 87.8166 177.631C87.7939 177.593 87.7627 177.561 87.7253 177.537C87.688 177.513 87.6456 177.498 87.6015 177.493C87.533 177.474 87.4623 177.466 87.3914 177.467C86.7521 177.556 86.1332 177.755 85.5624 178.056Z" fill="#2825A4"/>
<path d="M85.1476 178.19C85.1321 178.18 85.1195 178.167 85.1114 178.15C85.1032 178.134 85.0998 178.116 85.1015 178.098C85.1015 178.046 85.2347 176.899 85.8239 176.448C85.9996 176.315 86.2191 176.252 86.4387 176.274C86.741 176.299 86.8383 176.438 86.8486 176.55C86.9459 177.027 85.8239 177.959 85.2706 178.19H85.2245C85.1994 178.197 85.1727 178.197 85.1476 178.19ZM86.367 176.463C86.2283 176.463 86.0932 176.508 85.9827 176.591C85.6412 176.951 85.424 177.411 85.3628 177.903C85.9417 177.585 86.6744 176.878 86.6488 176.571C86.6488 176.545 86.6488 176.474 86.4285 176.458L86.367 176.463Z" fill="#2825A4"/>
<path d="M84.7326 177.606L80.1216 177.57C80.0314 177.568 79.9431 177.596 79.8707 177.65C79.7983 177.704 79.7459 177.78 79.7219 177.867L78.7946 181.643C78.7761 181.726 78.7749 181.811 78.7911 181.894C78.8073 181.977 78.8405 182.055 78.8887 182.125C78.9369 182.194 78.9989 182.253 79.0709 182.297C79.1429 182.341 79.2233 182.369 79.307 182.381C79.3546 182.386 79.4027 182.386 79.4504 182.381C81.2794 182.335 82.4629 182.309 84.7377 182.294C87.4275 182.294 86.7409 182.565 89.902 182.581C91.8079 182.581 92.1563 180.603 91.3519 180.531C87.6375 180.142 85.1322 177.585 84.7326 177.606Z" fill="#263238"/>
<path d="M76.8838 90.2374L77.9084 87.6757C77.975 87.3478 78.1236 87.1634 78.4208 87.271L94.6259 94.1157C94.923 94.2387 94.964 94.3924 94.8001 94.6691L93.9189 97.6406C93.9189 97.6406 91.7209 125.711 90.6502 135.041C89.5589 144.576 85.2758 173.164 85.2758 173.164C85.2629 173.265 85.2115 173.357 85.1322 173.421C85.053 173.485 84.952 173.516 84.8505 173.507L80.009 173.051C79.9176 173.044 79.8317 173.004 79.7669 172.94C79.7021 172.875 79.6625 172.789 79.6555 172.698C79.4352 170.3 78.4464 155.119 79.2507 144.278C79.5376 140.405 80.6238 137.244 80.9158 135.102C81.2437 132.735 80.4035 131.224 79.7118 125.629C78.4361 115.127 76.6583 98.5064 76.8838 90.2374Z" fill="#2825A4"/>
<path opacity="0.7" d="M76.8838 90.2374L77.9084 87.6757C77.975 87.3478 78.1236 87.1634 78.4208 87.271L94.6259 94.1157C94.923 94.2387 94.964 94.3924 94.8001 94.6691L93.9189 97.6406C93.9189 97.6406 91.7209 125.711 90.6502 135.041C89.5589 144.576 85.2758 173.164 85.2758 173.164C85.2629 173.265 85.2115 173.357 85.1322 173.421C85.053 173.485 84.952 173.516 84.8505 173.507L80.009 173.051C79.9176 173.044 79.8317 173.004 79.7669 172.94C79.7021 172.875 79.6625 172.789 79.6555 172.698C79.4352 170.3 78.4464 155.119 79.2507 144.278C79.5376 140.405 80.6238 137.244 80.9158 135.102C81.2437 132.735 80.4035 131.224 79.7118 125.629C78.4361 115.127 76.6583 98.5064 76.8838 90.2374Z" fill="black"/>
<path opacity="0.5" d="M79.7324 125.66C79.3123 122.135 78.8256 117.934 78.3799 113.59L82.6066 105.228L84.4101 100.336L86.6028 102.933C86.6028 102.933 84.0412 118.119 80.0347 127.827C79.9066 127.177 79.8042 126.465 79.7324 125.66Z" fill="black"/>
<path d="M45.7796 161.298C43.9711 164.275 42.7979 166.227 42.7979 166.227L45.9692 168.481C45.9692 168.481 47.4293 166.601 49.6631 163.711L45.7796 161.298Z" fill="#F0C8A3"/>
<path d="M47.322 167.851C47.3107 167.832 47.3047 167.811 47.3047 167.789C47.3047 167.768 47.3107 167.746 47.322 167.728C47.3312 167.707 47.3464 167.69 47.3656 167.678C47.3847 167.666 47.407 167.66 47.4296 167.661C47.5116 167.661 49.356 167.754 49.8939 168.348C49.9948 168.456 50.0499 168.599 50.0476 168.747C50.0524 168.833 50.0308 168.917 49.9859 168.989C49.941 169.062 49.8749 169.119 49.7966 169.152C49.5045 169.26 48.9512 169.029 48.4645 168.722C48.0592 168.465 47.6769 168.174 47.322 167.851ZM47.7011 167.918C48.3672 168.471 49.3508 169.091 49.689 168.942C49.7351 168.942 49.7966 168.886 49.8017 168.727C49.8044 168.682 49.797 168.637 49.7802 168.596C49.7634 168.554 49.7375 168.517 49.7043 168.486C49.6572 168.432 49.6019 168.385 49.5404 168.348C48.9597 168.09 48.3358 167.944 47.7011 167.918Z" fill="#2825A4"/>
<path d="M47.276 167.815C47.266 167.799 47.2607 167.78 47.2607 167.761C47.2607 167.742 47.266 167.724 47.276 167.707C47.3119 167.661 48.0804 166.683 48.813 166.585C48.9211 166.572 49.0307 166.581 49.1354 166.611C49.24 166.641 49.3377 166.691 49.4227 166.76C49.6635 166.944 49.6584 167.123 49.602 167.236C49.4073 167.723 47.9318 167.969 47.3375 167.882C47.324 167.884 47.31 167.884 47.2965 167.882C47.2841 167.861 47.277 167.839 47.276 167.815ZM49.2946 166.893C49.1784 166.816 49.0378 166.785 48.9001 166.806C48.3967 166.955 47.9514 167.256 47.6244 167.666C48.2853 167.666 49.3202 167.42 49.4637 167.154C49.4637 167.123 49.5047 167.052 49.3458 166.934L49.2946 166.903V166.893Z" fill="#2825A4"/>
<path d="M46.9943 166.934L43.6436 164.751C43.5655 164.699 43.4717 164.676 43.3782 164.685C43.2848 164.694 43.1975 164.736 43.1313 164.803L40.1597 167.764C40.034 167.891 39.9634 168.062 39.9634 168.24C39.9634 168.419 40.034 168.59 40.1597 168.717C40.1919 168.752 40.228 168.783 40.2673 168.809C41.8043 169.757 42.3167 170.018 44.2379 171.232C46.4819 172.667 45.739 172.575 48.3366 174.306C49.9146 175.331 51.3594 173.722 50.7445 173.2C47.9267 170.833 47.3375 167.134 46.9943 166.934Z" fill="#263238"/>
<path d="M89.3797 96.1292C89.3797 96.1292 78.7488 125.998 73.3846 135.067C68.6251 143.1 49.8839 164.111 49.8839 164.111C49.746 164.281 49.5474 164.392 49.3297 164.42C49.112 164.448 48.892 164.39 48.7158 164.259L45.775 162.082C45.6119 161.962 45.497 161.788 45.451 161.59C45.4049 161.393 45.4308 161.186 45.5239 161.006C47.0609 158.106 53.4702 146.031 59.2801 138.064C61.5958 134.887 63.8911 132.52 64.9516 130.783C66.3759 128.488 65.8892 126.757 66.7243 120.593C68.2613 109.137 71.6581 92.2098 78.3235 89.0846L89.3797 96.1292Z" fill="#2825A4"/>
<path opacity="0.7" d="M89.3799 96.1292C89.3799 96.1292 78.7489 125.998 73.3848 135.067C68.6252 143.1 50.0839 164.234 50.0839 164.234C49.9468 164.404 49.7492 164.515 49.5323 164.542C49.3155 164.57 49.0963 164.513 48.9209 164.382L45.5856 161.944C45.4743 161.863 45.3959 161.745 45.3649 161.611C45.3338 161.478 45.3521 161.337 45.4165 161.216C46.7076 158.736 53.3167 146.241 59.2803 138.064C61.596 134.887 63.8913 132.52 64.9518 130.783C66.3761 128.488 65.8894 126.757 66.7245 120.593C68.2615 109.137 71.6582 92.2098 78.3237 89.0846L89.3799 96.1292Z" fill="black"/>
<path d="M101.865 48.2622C102.085 49.707 103.802 50.5011 104.596 52.1406C104.596 52.1406 106.86 50.1886 105.272 48.7182C103.684 47.2478 101.527 45.9977 101.865 48.2622Z" fill="#263238"/>
<path d="M104.637 49.9478C106.379 50.6753 107.276 54.113 105.15 55.3888C105.18 55.5732 105.308 55.691 105.421 55.6244C107.844 54.2258 106.958 49.8402 104.827 48.3237L104.637 49.9478Z" fill="#263238"/>
<path d="M100.467 51.336C98.8323 52.929 97.8886 55.0998 97.8384 57.3815C97.8025 59.6307 96.742 61.1165 98.3046 62.7354C103.715 64.1853 103.756 64.8462 104.535 65.2049C104.883 64.1085 104.98 60.9628 103.571 59.892C102.547 59.1081 101.568 58.2423 101.251 56.987C100.826 55.3145 100.681 53.5835 100.82 51.8637L100.467 51.336Z" fill="#263238"/>
<path d="M94.1085 53.9283C94.4261 57.8426 94.4723 59.5025 96.5062 61.4801C99.5392 64.4466 104.289 63.2118 105.129 59.2822C105.908 55.7523 105.262 49.9578 101.389 48.4617C100.735 48.2047 100.037 48.0791 99.3342 48.0922C98.6317 48.1053 97.9387 48.2568 97.2949 48.5381C96.651 48.8193 96.0689 49.2248 95.582 49.7313C95.095 50.2377 94.7127 50.8352 94.4569 51.4896C94.1502 52.2637 94.0308 53.0993 94.1085 53.9283Z" fill="#F0C8A3"/>
<path d="M102.936 55.358C103.197 56.0881 103.559 56.7779 104.012 57.4073C103.846 57.5185 103.658 57.5921 103.46 57.6231C103.263 57.6541 103.061 57.6416 102.869 57.5866L102.936 55.358Z" fill="#D9A279"/>
<path d="M100.407 58.1404C100.257 58.112 100.105 58.0961 99.9531 58.0931C99.9295 58.092 99.9064 58.0999 99.8885 58.1153C99.8706 58.1307 99.8593 58.1523 99.8569 58.1758C99.8556 58.1998 99.8633 58.2235 99.8785 58.2422C99.8937 58.2609 99.9152 58.2734 99.939 58.2771C100.335 58.3003 100.72 58.4175 101.062 58.6188C101.403 58.8201 101.692 59.0999 101.905 59.435C101.918 59.4562 101.938 59.4719 101.962 59.4792C101.986 59.4864 102.012 59.4847 102.034 59.4743C102.053 59.4581 102.065 59.4354 102.067 59.4107C102.07 59.3861 102.063 59.3615 102.048 59.3418C101.868 59.0423 101.63 58.7818 101.349 58.5755C101.067 58.3692 100.746 58.2212 100.407 58.1404Z" fill="#263238"/>
<path d="M94.7385 47.3192C91.8387 49.4352 89.1387 56.5412 95.3687 60.102C96.6956 59.4718 95.8247 58.0526 95.5275 55.824C95.3328 54.369 97.8894 51.8636 99.1138 51.0695C100.338 50.2754 101.599 49.0202 102.951 49.5633C103.282 49.7619 103.662 49.8615 104.048 49.8502C105.277 49.5991 104.893 48.8255 104.437 48.2107C103.701 47.3547 102.736 46.7271 101.655 46.4022C100.512 45.9952 99.2887 45.8661 98.086 46.0255C96.8833 46.185 95.7359 46.6285 94.7385 47.3192Z" fill="#263238"/>
<path d="M98.289 51.6383C98.1898 52.4062 97.8933 53.1352 97.4283 53.7543C96.9088 54.3605 96.1738 54.7408 95.3789 54.8148C94.5856 54.8712 93.7883 54.8247 93.0068 54.6765C93.5558 54.981 94.1605 55.1715 94.7849 55.2367C95.4092 55.3018 96.0403 55.2402 96.6402 55.0555C97.2402 54.8708 97.7966 54.5669 98.2763 54.162C98.7559 53.757 99.1489 53.2593 99.4315 52.6988C99.7133 52.1455 99.8772 51.5461 100.123 50.9723C100.336 50.3863 100.722 49.8788 101.23 49.5173C101.488 49.3439 101.794 49.2552 102.106 49.2635C102.417 49.2718 102.718 49.3766 102.967 49.5634C103.078 49.5591 103.186 49.5224 103.277 49.4578C103.368 49.3932 103.438 49.3035 103.479 49.1997C103.519 49.0959 103.529 48.9824 103.506 48.8732C103.484 48.764 103.43 48.6638 103.351 48.5848C102.608 48.5182 98.8269 47.5704 98.289 51.6383Z" fill="#263238"/>
<path d="M93.335 48.7743C91.7161 50.3113 90.1739 53.2931 90.133 55.5422C90.1057 57.8176 90.97 60.0133 92.5409 61.6595C94.4519 61.9444 96.257 62.7173 97.7821 63.9035C98.3918 62.2435 97.2698 59.1183 95.8557 58.0527C94.8311 57.2637 93.8525 56.3978 93.5348 55.1426C93.1112 53.47 92.9641 51.7394 93.0994 50.0193L93.335 48.7743Z" fill="#263238"/>
<path d="M93.0021 56.9001C93.141 57.2512 93.3485 57.5711 93.6124 57.8411C93.8763 58.1112 94.1913 58.326 94.5391 58.473C95.4664 58.8675 96.0402 58.0682 95.907 57.1306C95.7687 56.2853 95.1283 55.0813 94.1446 55.0813C93.931 55.0873 93.7223 55.1464 93.5372 55.2532C93.3522 55.3601 93.1967 55.5114 93.0849 55.6935C92.973 55.8755 92.9083 56.0826 92.8965 56.2959C92.8847 56.5093 92.9263 56.7222 93.0175 56.9155L93.0021 56.9001Z" fill="#F0C8A3"/>
<path d="M99.001 53.4978C99.0373 53.5102 99.0765 53.5109 99.1133 53.4999C99.15 53.4888 99.1824 53.4666 99.2059 53.4364C99.4181 53.2153 99.6751 53.0421 99.9595 52.9281C100.244 52.8141 100.549 52.7621 100.856 52.7754C100.9 52.7681 100.94 52.7453 100.969 52.711C100.998 52.6768 101.014 52.6333 101.014 52.5884C101.014 52.5436 100.998 52.5001 100.969 52.4659C100.94 52.4316 100.9 52.4088 100.856 52.4014C100.488 52.3882 100.123 52.4541 99.7833 52.5946C99.4438 52.7352 99.1386 52.9471 98.8882 53.2161C98.8586 53.2551 98.8452 53.3042 98.8509 53.3529C98.8566 53.4016 98.881 53.4462 98.919 53.4773L99.001 53.4978Z" fill="#263238"/>
<path d="M104.96 53.2009C104.991 53.2091 105.024 53.2093 105.055 53.2012C105.087 53.1931 105.115 53.1771 105.139 53.1547C105.157 53.138 105.171 53.1177 105.181 53.0953C105.19 53.0728 105.195 53.0486 105.195 53.0241C105.195 52.9996 105.19 52.9754 105.181 52.9529C105.171 52.9305 105.157 52.9102 105.139 52.8935C104.937 52.6759 104.686 52.5092 104.408 52.4068C104.129 52.3044 103.83 52.2693 103.535 52.3043C103.486 52.3142 103.443 52.3427 103.414 52.3837C103.386 52.4247 103.374 52.4751 103.382 52.5246C103.386 52.549 103.395 52.5723 103.409 52.5932C103.422 52.614 103.44 52.6318 103.46 52.6457C103.481 52.6596 103.504 52.6692 103.528 52.6739C103.553 52.6786 103.578 52.6783 103.602 52.6732C103.835 52.6479 104.071 52.6783 104.29 52.7621C104.509 52.8458 104.705 52.9804 104.862 53.1547C104.892 53.1758 104.925 53.1914 104.96 53.2009Z" fill="#263238"/>
<path d="M104.453 54.6198C104.668 54.6198 104.832 54.9118 104.811 55.2397C104.791 55.5676 104.606 55.8392 104.391 55.8238C104.176 55.8084 104.012 55.5317 104.027 55.2039C104.043 54.876 104.237 54.6095 104.453 54.6198Z" fill="#263238"/>
<path d="M105.164 54.4509L104.355 54.6405C104.719 55.0504 105.164 54.4509 105.164 54.4509Z" fill="#263238"/>
<path d="M100.677 54.5278C100.892 54.5278 101.056 54.8199 101.035 55.1529C101.015 55.4859 100.83 55.7472 100.615 55.737C100.4 55.7267 100.236 55.4449 100.251 55.1119C100.267 54.7789 100.462 54.5227 100.677 54.5278Z" fill="#263238"/>
<path d="M101.389 54.364L100.574 54.5535C100.943 54.9634 101.389 54.364 101.389 54.364Z" fill="#263238"/>
<path d="M78.1647 88.7209L81.2643 90.012L80.8084 91.0931L77.7241 89.7969L78.1647 88.7209Z" fill="#5CC9FC"/>
<path d="M82.0887 90.3614L81.6387 91.4394L84.6881 92.7125L85.1382 91.6346L82.0887 90.3614Z" fill="#5CC9FC"/>
<path d="M90.2302 93.7522L92.3 94.6129L91.8543 95.6939L89.7793 94.8281L90.2302 93.7522Z" fill="#5CC9FC"/>
<path d="M93.1236 94.9526L92.6729 96.0303L93.5803 96.4099L94.0311 95.3322L93.1236 94.9526Z" fill="#5CC9FC"/>
<path d="M137.294 64.2267C135.327 64.2224 133.443 63.4387 132.053 62.0473C130.663 60.6559 129.881 58.7702 129.879 56.8035V42.4267C129.923 42.2517 130.024 42.0963 130.166 41.9853C130.308 41.8743 130.484 41.814 130.664 41.814C130.845 41.814 131.02 41.8743 131.162 41.9853C131.304 42.0963 131.405 42.2517 131.449 42.4267V56.8035C131.42 57.5899 131.55 58.3741 131.83 59.1092C132.111 59.8444 132.537 60.5153 133.083 61.082C133.629 61.6487 134.284 62.0994 135.008 62.4073C135.732 62.7152 136.511 62.8739 137.298 62.8739C138.085 62.8739 138.864 62.7152 139.588 62.4073C140.312 62.0994 140.967 61.6487 141.513 61.082C142.059 60.5153 142.485 59.8444 142.766 59.1092C143.046 58.3741 143.176 57.5899 143.147 56.8035V41.682C143.117 41.5626 143.115 41.438 143.14 41.3176C143.165 41.1972 143.218 41.0842 143.294 40.9872C143.369 40.8902 143.466 40.8117 143.577 40.7577C143.687 40.7037 143.809 40.6757 143.932 40.6757C144.055 40.6757 144.176 40.7037 144.287 40.7577C144.398 40.8117 144.494 40.8902 144.57 40.9872C144.646 41.0842 144.698 41.1972 144.724 41.3176C144.749 41.438 144.747 41.5626 144.717 41.682V56.8035C144.715 58.7716 143.932 60.6585 142.541 62.0502C141.149 63.4418 139.262 64.2246 137.294 64.2267Z" fill="#263238"/>
<path d="M163.416 38.6225L128.08 44.1433C126.159 44.4435 124.844 46.2445 125.145 48.166L133.215 99.8173C133.515 101.739 135.316 103.053 137.237 102.753L172.573 97.2321C174.494 96.9319 175.808 95.1309 175.508 93.2094L167.438 41.5581C167.138 39.6366 165.337 38.3223 163.416 38.6225Z" fill="#2825A4"/>
<path opacity="0.6" d="M163.416 38.6225L128.08 44.1433C126.159 44.4435 124.844 46.2445 125.145 48.166L133.215 99.8173C133.515 101.739 135.316 103.053 137.237 102.753L172.573 97.2321C174.494 96.9319 175.808 95.1309 175.508 93.2094L167.438 41.5581C167.138 39.6366 165.337 38.3223 163.416 38.6225Z" fill="white"/>
<path opacity="0.2" d="M165.509 66.5284L137.099 71.1199C136.656 71.1914 136.355 71.6082 136.427 72.0508L136.468 72.3072C136.54 72.7499 136.957 73.0507 137.399 72.9791L165.809 68.3876C166.252 68.3161 166.553 67.8993 166.481 67.4567L166.44 67.2002C166.368 66.7576 165.951 66.4568 165.509 66.5284Z" fill="black"/>
<path opacity="0.2" d="M165.935 73.8201L137.604 78.3884C137.163 78.4596 136.863 78.8751 136.934 79.3165L136.975 79.5722C137.046 80.0136 137.462 80.3137 137.903 80.2425L166.234 75.6742C166.676 75.603 166.976 75.1875 166.905 74.7461L166.863 74.4904C166.792 74.049 166.377 73.7489 165.935 73.8201Z" fill="black"/>
<path opacity="0.2" d="M167.16 81.4051L138.829 85.9734C138.388 86.0446 138.087 86.4601 138.159 86.9015L138.2 87.1572C138.271 87.5986 138.687 87.8987 139.128 87.8275L167.459 83.2592C167.9 83.188 168.2 82.7725 168.129 82.3312L168.088 82.0754C168.017 81.634 167.601 81.3339 167.16 81.4051Z" fill="black"/>
<path d="M162.655 40.4504L127.127 44.5549C125.196 44.7781 123.81 46.5251 124.034 48.4571L130.033 100.39C130.256 102.322 132.003 103.707 133.935 103.484L169.463 99.3791C171.395 99.156 172.78 97.4089 172.557 95.4769L166.557 43.5444C166.334 41.6125 164.587 40.2273 162.655 40.4504Z" fill="#5CC9FC"/>
<path opacity="0.2" d="M162.864 68.1065L134.374 71.5392C133.93 71.5926 133.613 71.9958 133.667 72.4397L133.698 72.6969C133.751 73.1407 134.154 73.4572 134.598 73.4037L163.089 69.9711C163.533 69.9176 163.849 69.5144 163.796 69.0706L163.765 68.8134C163.712 68.3695 163.308 68.053 162.864 68.1065Z" fill="black"/>
<path opacity="0.2" d="M163.778 75.7294L135.287 79.1621C134.843 79.2156 134.527 79.6187 134.58 80.0626L134.611 80.3198C134.665 80.7636 135.068 81.0801 135.512 81.0266L164.003 77.594C164.447 77.5405 164.763 77.1373 164.71 76.6935L164.679 76.4363C164.625 75.9924 164.222 75.6759 163.778 75.7294Z" fill="black"/>
<path opacity="0.2" d="M164.699 83.3438L136.208 86.7765C135.765 86.8299 135.448 87.2331 135.502 87.677L135.533 87.9342C135.586 88.378 135.989 88.6945 136.433 88.641L164.924 85.2084C165.368 85.1549 165.684 84.7517 165.631 84.3079L165.6 84.0507C165.546 83.6068 165.143 83.2903 164.699 83.3438Z" fill="black"/>
<path d="M169.65 56.5444L169.731 100.509C169.731 100.781 169.623 101.043 169.43 101.236C169.237 101.428 168.976 101.537 168.703 101.537L128.05 101.61C127.915 101.611 127.781 101.585 127.657 101.534C127.532 101.484 127.419 101.409 127.323 101.314C127.228 101.219 127.152 101.106 127.1 100.982C127.048 100.858 127.021 100.724 127.021 100.59L126.924 43.3981C126.923 43.2634 126.949 43.1299 127 43.0052C127.05 42.8805 127.125 42.7672 127.22 42.6716C127.315 42.576 127.428 42.5002 127.552 42.4484C127.676 42.3966 127.81 42.37 127.944 42.37L155.338 42.3214L169.65 56.5444Z" fill="#2825A4"/>
<path d="M162.673 69.78L133.976 69.9202C133.529 69.9224 133.169 70.2866 133.171 70.7337L133.172 70.9927C133.174 71.4398 133.539 71.8005 133.986 71.7983L162.682 71.658C163.129 71.6559 163.49 71.2917 163.488 70.8446L163.487 70.5855C163.484 70.1385 163.12 69.7778 162.673 69.78Z" fill="#263238"/>
<path d="M162.679 77.4951L133.982 77.6303C133.535 77.6324 133.174 77.9966 133.176 78.4437L133.177 78.7027C133.18 79.1498 133.544 79.5105 133.991 79.5084L162.687 79.3731C163.134 79.371 163.495 79.0069 163.493 78.5598L163.492 78.3008C163.49 77.8537 163.126 77.493 162.679 77.4951Z" fill="#263238"/>
<path d="M162.748 85.1359L134.051 85.2761C133.604 85.2783 133.243 85.6425 133.246 86.0896L133.247 86.3486C133.249 86.7957 133.613 87.1563 134.06 87.1542L162.757 87.0139C163.204 87.0117 163.565 86.6475 163.563 86.2005L163.561 85.9414C163.559 85.4944 163.195 85.1337 162.748 85.1359Z" fill="#263238"/>
<path d="M155.362 42.2889V55.5487C155.362 55.8199 155.47 56.0802 155.661 56.2728C155.852 56.4653 156.111 56.5746 156.382 56.5767H169.61L155.362 42.2889Z" fill="#2825A4"/>
<path opacity="0.9" d="M155.362 42.2889V55.5487C155.362 55.8199 155.47 56.0802 155.661 56.2728C155.852 56.4653 156.111 56.5746 156.382 56.5767H169.61L155.362 42.2889Z" fill="white"/>
<path d="M162.673 69.78L133.976 69.9202C133.529 69.9224 133.169 70.2866 133.171 70.7337L133.172 70.9927C133.174 71.4398 133.539 71.8005 133.986 71.7983L162.682 71.658C163.129 71.6559 163.49 71.2917 163.488 70.8446L163.487 70.5855C163.484 70.1385 163.12 69.7778 162.673 69.78Z" fill="white"/>
<path d="M162.679 77.4951L133.982 77.6303C133.535 77.6324 133.174 77.9966 133.176 78.4437L133.177 78.7027C133.18 79.1498 133.544 79.5105 133.991 79.5084L162.687 79.3731C163.134 79.371 163.495 79.0069 163.493 78.5598L163.492 78.3008C163.49 77.8537 163.126 77.493 162.679 77.4951Z" fill="white"/>
<path d="M162.748 85.1359L134.051 85.2761C133.604 85.2783 133.243 85.6425 133.246 86.0896L133.247 86.3486C133.249 86.7957 133.613 87.1563 134.06 87.1542L162.757 87.0139C163.204 87.0117 163.565 86.6475 163.563 86.2005L163.561 85.9414C163.559 85.4944 163.195 85.1337 162.748 85.1359Z" fill="white"/>
<path d="M140.621 43.2281H139.051V40.5324C139.005 39.5548 138.585 38.6321 137.878 37.9562C137.17 37.2803 136.229 36.9032 135.25 36.9032C134.271 36.9032 133.33 37.2803 132.622 37.9562C131.915 38.6321 131.494 39.5548 131.449 40.5324V42.4428H129.879V40.5324C129.933 39.144 130.522 37.8304 131.524 36.8671C132.525 35.9039 133.861 35.3658 135.25 35.3658C136.639 35.3658 137.975 35.9039 138.976 36.8671C139.978 37.8304 140.567 39.144 140.621 40.5324V43.2281Z" fill="#7DDD81"/>
<path d="M137.254 57.4998C136.362 57.4977 135.508 57.1419 134.878 56.5106C134.248 55.8793 133.894 55.024 133.894 54.1323V41.7387C133.864 41.6194 133.862 41.4947 133.888 41.3743C133.913 41.254 133.966 41.1409 134.041 41.0439C134.117 40.9469 134.214 40.8684 134.325 40.8145C134.435 40.7605 134.557 40.7324 134.68 40.7324C134.803 40.7324 134.924 40.7605 135.035 40.8145C135.145 40.8684 135.242 40.9469 135.318 41.0439C135.394 41.1409 135.446 41.254 135.472 41.3743C135.497 41.4947 135.495 41.6194 135.465 41.7387V54.1727C135.448 54.4183 135.482 54.6647 135.565 54.8966C135.648 55.1285 135.777 55.3409 135.945 55.5207C136.113 55.7005 136.317 55.8438 136.542 55.9418C136.768 56.0398 137.012 56.0904 137.258 56.0904C137.504 56.0904 137.748 56.0398 137.973 55.9418C138.199 55.8438 138.402 55.7005 138.571 55.5207C138.739 55.3409 138.868 55.1285 138.951 54.8966C139.033 54.6647 139.067 54.4183 139.051 54.1727V42.443C139.021 42.3236 139.019 42.199 139.044 42.0786C139.07 41.9582 139.122 41.8452 139.198 41.7482C139.274 41.6512 139.37 41.5727 139.481 41.5187C139.592 41.4648 139.713 41.4367 139.836 41.4367C139.959 41.4367 140.081 41.4648 140.191 41.5187C140.302 41.5727 140.399 41.6512 140.474 41.7482C140.55 41.8452 140.603 41.9582 140.628 42.0786C140.654 42.199 140.651 42.3236 140.621 42.443V54.1323C140.621 55.0254 140.267 55.8819 139.635 56.5135C139.004 57.145 138.147 57.4998 137.254 57.4998Z" fill="#7DDD81"/>
</svg>
