<svg width="120" height="38" viewBox="0 0 120 38" fill="none" xmlns="http://www.w3.org/2000/svg">
<g opacity="0.25" filter="url(#filter0_f)">
<path d="M60 33.0158C90.9279 33.0158 116 31.898 116 30.519C116 29.1401 90.9279 28.0222 60 28.0222C29.0721 28.0222 4 29.1401 4 30.519C4 31.898 29.0721 33.0158 60 33.0158Z" fill="url(#paint0_radial)"/>
</g>
<path d="M18.7741 26.5027L22.2197 24.6337H32.5209L35.2388 26.5027L39.676 24.384H77.0926L78.7191 26.5027L81.9863 24.5053H92.5372L95.1981 26.4742L97.9374 24.2556V14.3325H19.459L15.7637 23.0856L18.7741 26.5027Z" fill="#192A32"/>
<path d="M105.285 15.6023C105.899 8.25453 101.904 8.25453 101.904 8.25453L96.8247 8.39721C95.1845 7.36154 93.4836 6.42534 91.7312 5.59364C88.4092 4.025 84.9456 2.77572 81.3872 1.86269C76.9215 0.728419 72.149 0.749819 67.5691 0.735551C64.202 0.735551 60.7707 0.514405 57.4535 1.17071C54.7345 1.73164 52.0977 2.63534 49.6063 3.86014C46.6635 5.29806 43.8741 7.03093 41.2812 9.03212C40.7533 9.43161 40.2397 9.84536 39.7332 10.2591L22.7263 11.6074C17.0193 12.2209 15.3785 15.7878 14.8792 18.1205C14.4491 18.1743 14.0534 18.3827 13.7659 18.707C13.4784 19.0313 13.3188 19.4492 13.3169 19.8826V24.7264C13.3169 25.1994 13.5048 25.653 13.8393 25.9875C14.1737 26.3219 14.6273 26.5098 15.1003 26.5098H18.7814C18.5957 25.8116 18.5021 25.0922 18.5031 24.3697C18.5031 22.1126 19.3998 19.9479 20.9958 18.3518C22.5919 16.7558 24.7566 15.8591 27.0137 15.8591C29.2709 15.8591 31.4355 16.7558 33.0316 18.3518C34.6276 19.9479 35.5243 22.1126 35.5243 24.3697C35.5217 25.0919 35.4282 25.8109 35.2461 26.5098H78.762C78.5823 25.8106 78.4912 25.0916 78.4909 24.3697C78.458 23.2318 78.6536 22.0989 79.0663 21.038C79.479 19.977 80.1003 19.0097 80.8935 18.1932C81.6868 17.3767 82.6357 16.7276 83.6842 16.2844C84.7328 15.8411 85.8596 15.6127 86.9979 15.6127C88.1363 15.6127 89.2631 15.8411 90.3116 16.2844C91.3601 16.7276 92.3091 17.3767 93.1023 18.1932C93.8955 19.0097 94.5168 19.977 94.9295 21.038C95.3422 22.0989 95.5379 23.2318 95.5049 24.3697C95.5011 25.0698 95.4125 25.7668 95.241 26.4456L104.451 24.7264C104.451 24.7264 106.862 24.1985 106.862 22.1654V18.3559C106.862 18.3559 107.062 15.9305 105.285 15.6023Z" fill="url(#paint1_linear)"/>
<path d="M16.2202 18.2704C16.2202 18.2704 16.9336 12.4991 25.5868 13.0699C22.9525 15.5646 19.7306 17.3535 16.2202 18.2704Z" fill="#CACCCF"/>
<path d="M16.812 17.6498C16.812 17.6498 17.3399 13.5407 23.9458 13.9474C21.9054 15.7448 19.4563 17.0159 16.812 17.6498Z" fill="#FBB040"/>
<path d="M15.0931 26.5098H18.7741C18.5884 25.8116 18.4949 25.0921 18.4959 24.3697C18.4945 22.6683 19.004 21.0057 19.9583 19.5972H13.3168C13.3098 19.6826 13.3098 19.7685 13.3168 19.854V24.6978C13.313 24.9338 13.3561 25.1682 13.4436 25.3874C13.5311 25.6066 13.6612 25.8063 13.8264 25.9748C13.9917 26.1434 14.1887 26.2775 14.4061 26.3693C14.6236 26.4611 14.8571 26.5089 15.0931 26.5098Z" fill="#E2E3E5"/>
<path d="M95.4618 24.3983C95.458 25.0984 95.3694 25.7954 95.1979 26.4742L104.408 24.7549C104.408 24.7549 106.819 24.227 106.819 22.1939V19.1335C105.906 19.4721 104.939 19.639 103.965 19.6258H93.978C94.9399 21.0319 95.4569 22.6946 95.4618 24.3983Z" fill="#E2E3E5"/>
<path d="M78.7187 26.5098C78.5389 25.8106 78.4479 25.0916 78.4476 24.3697C78.4326 22.6716 78.9298 21.0084 79.8743 19.5972H34.0542C35.0085 21.0057 35.518 22.6683 35.5166 24.3697C35.514 25.0919 35.4205 25.8109 35.2384 26.5098H78.7187Z" fill="#E2E3E5"/>
<path d="M31.8216 29.2049C34.4794 26.5471 34.4794 22.238 31.8216 19.5803C29.1639 16.9225 24.8548 16.9225 22.1971 19.5803C19.5393 22.238 19.5393 26.5471 22.1971 29.2049C24.8548 31.8626 29.1639 31.8626 31.8216 29.2049Z" fill="#30373E"/>
<path d="M27.0067 28.757C29.4139 28.757 31.3654 26.8055 31.3654 24.3983C31.3654 21.991 29.4139 20.0396 27.0067 20.0396C24.5994 20.0396 22.6479 21.991 22.6479 24.3983C22.6479 26.8055 24.5994 28.757 27.0067 28.757Z" fill="#94A6A5"/>
<path d="M31.2013 25.5468L28.2979 24.7335C28.3646 24.515 28.3646 24.2815 28.2979 24.063L31.2013 23.264C31.2013 23.1641 31.1442 23.0643 31.1086 22.9644L29.2467 23.4923L30.9374 22.5506C30.8874 22.4579 30.8446 22.3651 30.7876 22.2724L28.1552 23.7206C28.0394 23.5249 27.8747 23.3626 27.6772 23.2497L29.1611 20.6102L28.8828 20.4676L27.9341 22.1583L28.4548 20.2964C28.3578 20.257 28.2575 20.2259 28.1552 20.2036L27.342 23.1071C27.1221 23.05 26.8913 23.05 26.6714 23.1071L25.851 20.2036C25.7492 20.228 25.6491 20.259 25.5514 20.2964L26.0793 22.1583L25.1305 20.4676L24.8523 20.6102L26.3361 23.264C26.1387 23.3769 25.974 23.5391 25.8581 23.7348L23.2258 22.2581C23.1687 22.3509 23.1259 22.4436 23.076 22.5364L24.7667 23.4851L22.9048 22.9572C22.8674 23.055 22.8364 23.1551 22.812 23.2569L25.7155 24.0772C25.6584 24.2971 25.6584 24.5279 25.7155 24.7478L22.812 25.5468C22.8343 25.6491 22.8654 25.7494 22.9048 25.8464L24.7667 25.3257L23.076 26.2744C23.1259 26.3672 23.1687 26.4599 23.2258 26.5527L25.8581 25.0688C25.9738 25.2665 26.1384 25.4312 26.3361 25.5468L24.8523 28.1792C24.945 28.2362 25.0377 28.279 25.1305 28.329L26.0793 26.6383L25.5514 28.5002L25.851 28.5929L26.6714 25.6823C26.8899 25.749 27.1234 25.749 27.342 25.6823L28.1552 28.5929L28.4548 28.5002L27.9341 26.6383L28.8828 28.329C28.9756 28.279 29.0683 28.2362 29.1611 28.1792L27.6772 25.5468C27.8749 25.4312 28.0396 25.2665 28.1552 25.0688L30.7876 26.5527C30.8446 26.4599 30.8874 26.3672 30.9374 26.2744L29.2467 25.3257L31.1086 25.8464C31.1447 25.7482 31.1757 25.6482 31.2013 25.5468Z" fill="#E2E3E5"/>
<path d="M93.6233 25.8267C94.4118 22.1517 92.0718 18.5333 88.3968 17.7448C84.7219 16.9563 81.1035 19.2962 80.315 22.9712C79.5264 26.6462 81.8664 30.2646 85.5414 31.0531C89.2163 31.8416 92.8347 29.5017 93.6233 25.8267Z" fill="#30373E"/>
<path d="M86.9657 28.757C89.3729 28.757 91.3244 26.8055 91.3244 24.3983C91.3244 21.991 89.3729 20.0396 86.9657 20.0396C84.5584 20.0396 82.6069 21.991 82.6069 24.3983C82.6069 26.8055 84.5584 28.757 86.9657 28.757Z" fill="#94A6A5"/>
<path d="M91.1606 25.5467L88.2215 24.7335C88.2882 24.5149 88.2882 24.2814 88.2215 24.0629L91.1606 23.2639C91.1606 23.164 91.1035 23.0642 91.0679 22.9643L89.2059 23.4922L90.8895 22.5505C90.8476 22.455 90.8 22.3621 90.7468 22.2723L88.1145 23.749C87.9967 23.5549 87.8324 23.3931 87.6365 23.2782L89.1203 20.6387L88.8421 20.496L87.8933 22.1867L88.4141 20.3248C88.317 20.2854 88.2168 20.2544 88.1145 20.2321L87.3012 23.1355C87.0814 23.0784 86.8505 23.0784 86.6307 23.1355L85.8103 20.2321C85.7085 20.2564 85.6084 20.2874 85.5107 20.3248L86.0386 22.1867L85.0898 20.496L84.8115 20.6387L86.2882 23.2782C86.0946 23.3935 85.9328 23.5553 85.8174 23.749L83.1779 22.2723L83.0352 22.5505L84.7188 23.4993L82.864 22.9714C82.8284 23.0713 82.7927 23.1712 82.7642 23.271L85.6747 24.0914C85.6176 24.3113 85.6176 24.5421 85.6747 24.762L82.7642 25.5752C82.7921 25.6768 82.8254 25.7768 82.864 25.8749L84.7188 25.3541L83.0352 26.3029L83.1779 26.5811L85.8174 25.0973C85.9323 25.2932 86.0941 25.4574 86.2882 25.5752L84.8115 28.2076C84.9043 28.2647 84.997 28.3075 85.0898 28.3574L86.0386 26.6667L85.5107 28.5286L85.8103 28.6214L86.6307 25.7108C86.8492 25.7775 87.0827 25.7775 87.3012 25.7108L88.1145 28.6214L88.4141 28.5286L87.8933 26.6667L88.8421 28.3574C88.9349 28.3075 89.0276 28.2647 89.1203 28.2076L87.6365 25.5752C87.8318 25.4565 87.9957 25.2926 88.1145 25.0973L90.7468 26.5811C90.8 26.4913 90.8476 26.3984 90.8895 26.3029L89.2059 25.3541L91.0679 25.8749C91.105 25.7673 91.136 25.6578 91.1606 25.5467Z" fill="#E2E3E5"/>
<path d="M41.2949 24.3839L73.0829 22.9572C73.7147 22.8374 74.3049 22.5565 74.7961 22.1415C75.2873 21.7265 75.6629 21.1917 75.8865 20.5887C75.8865 20.5887 76.2432 23.6634 72.1128 23.749L41.2949 24.3839Z" fill="white"/>
<path d="M62.8824 11.8073H59.2228C58.8209 11.8073 58.4951 12.133 58.4951 12.5349V12.542C58.4951 12.9439 58.8209 13.2697 59.2228 13.2697H62.8824C63.2842 13.2697 63.61 12.9439 63.61 12.542V12.5349C63.61 12.133 63.2842 11.8073 62.8824 11.8073Z" fill="#ECECED"/>
<path d="M58.502 12.5634C58.502 12.7526 58.5771 12.934 58.7109 13.0678C58.8447 13.2016 59.0261 13.2767 59.2153 13.2767H62.8678C63.057 13.2767 63.2385 13.2016 63.3722 13.0678C63.506 12.934 63.5812 12.7526 63.5812 12.5634H58.502Z" fill="#E0E1E2"/>
<path d="M81.5939 12.699H77.9414C77.7522 12.699 77.5708 12.6238 77.437 12.49C77.3032 12.3562 77.228 12.1748 77.228 11.9856C77.228 11.7964 77.3032 11.6149 77.437 11.4812C77.5708 11.3474 77.7522 11.2722 77.9414 11.2722H81.5939C81.7831 11.2722 81.9645 11.3474 82.0983 11.4812C82.2321 11.6149 82.3073 11.7964 82.3073 11.9856C82.3073 12.1748 82.2321 12.3562 82.0983 12.49C81.9645 12.6238 81.7831 12.699 81.5939 12.699Z" fill="#ECECED"/>
<path d="M77.2139 11.9998C77.2139 12.189 77.289 12.3704 77.4228 12.5042C77.5566 12.638 77.738 12.7131 77.9272 12.7131H81.5797C81.7689 12.7131 81.9504 12.638 82.0842 12.5042C82.2179 12.3704 82.2931 12.189 82.2931 11.9998H77.2139Z" fill="#E0E1E2"/>
<path d="M15.457 21.5163H13.3169V24.0345H15.457C15.6303 24.0475 15.8045 24.0247 15.9686 23.9673C16.1326 23.9099 16.2831 23.8193 16.4105 23.7011C16.538 23.5829 16.6396 23.4397 16.7091 23.2804C16.7787 23.1211 16.8145 22.9492 16.8145 22.7754C16.8145 22.6016 16.7787 22.4296 16.7091 22.2703C16.6396 22.111 16.538 21.9678 16.4105 21.8496C16.2831 21.7314 16.1326 21.6408 15.9686 21.5834C15.8045 21.5261 15.6303 21.5032 15.457 21.5163Z" fill="#30373E"/>
<path d="M76.3576 25.2471H40.2323V25.1758C38.8055 18.2774 40.2323 11.0081 40.2323 10.9083C40.7816 10.4517 41.2809 10.0522 41.7517 9.69553C44.3147 7.72826 47.0677 6.02195 49.9698 4.60203C52.3909 3.40864 54.9532 2.52656 57.5958 1.97681C59.5457 1.63681 61.5236 1.48393 63.5026 1.52025C64.2159 1.52025 64.9721 1.52025 65.6427 1.52025H65.7925H67.5759H67.954C72.377 1.52025 76.9497 1.52024 81.1943 2.62598C82.8993 3.06827 84.5828 3.5819 86.1879 4.15974C86.2521 4.15974 87.8287 4.7019 88.114 5.95744C88.3138 6.84203 87.8287 7.84789 86.6873 8.95362C86.6873 8.95362 84.0407 10.8441 83.5199 13.5264V13.5692H83.4771C83.42 13.5692 77.7701 15.8163 76.4004 25.1401L76.3576 25.2471ZM40.3678 25.0759H76.2149C77.5489 16.1444 82.8065 13.6619 83.3487 13.4693C83.9051 10.7371 86.5446 8.86088 86.5731 8.84662C87.6789 7.79082 88.1497 6.8349 87.9642 5.99311C87.7003 4.83031 86.1665 4.32381 86.1523 4.31668C84.5329 3.73885 82.8493 3.22521 81.1586 2.78292C76.9426 1.71286 72.377 1.69859 67.9612 1.69145H67.5331H65.7568H65.607C64.9579 1.69145 64.2231 1.69145 63.4669 1.69145C61.4974 1.65521 59.529 1.8081 57.5887 2.14802C54.9804 2.68668 52.4496 3.54943 50.0554 4.71617C47.1573 6.13235 44.4088 7.83638 41.8516 9.80254C41.3879 10.1592 40.9028 10.5159 40.3607 10.9939C40.2751 11.4932 38.9981 18.4487 40.3678 25.0759Z" fill="#CACCCF"/>
<path d="M63.9661 25.1473C63.8504 19.9096 64.329 14.6756 65.3929 9.54578L65.5498 9.58858C64.4878 14.7018 64.0091 19.919 64.1231 25.1402L63.9661 25.1473Z" fill="#CACCCF"/>
<path d="M83.085 9.132L42.3584 10.4232C44.8677 8.49111 47.5661 6.81804 50.4124 5.42957C52.7589 4.27302 55.2421 3.41733 57.803 2.88282C59.6869 2.55424 61.5979 2.40614 63.51 2.44053C64.2234 2.44053 64.9367 2.44053 65.6144 2.44053H67.5548H67.9401C72.3059 2.44053 76.8144 2.44053 80.9378 3.51059C82.5357 3.92435 84.1028 4.39993 85.6389 4.93734C85.6389 4.93734 87.351 5.65072 86.0598 7.58397C86.0812 7.6553 85.3678 8.99646 83.085 9.132Z" fill="#30373E"/>
<path d="M48.1652 10.4231C48.1652 11.5146 46.7385 12.3992 45.0264 12.3992C43.3143 12.3992 42.979 11.5217 42.979 10.4231C42.979 9.32454 43.2858 8.45422 45.0264 8.45422C46.767 8.45422 48.1652 9.34594 48.1652 10.4231Z" fill="#E2E3E5"/>
<path d="M67.9116 2.5119H67.5335H65.5931C64.8798 2.5119 64.1664 2.5119 63.4887 2.5119C61.613 2.47987 59.7384 2.62076 57.8887 2.93279L64.7513 9.70986L74.8028 9.38884L67.9116 2.5119Z" fill="#43474D"/>
<path d="M63.6382 9.75979L67.362 9.63852L68.6318 2.50476H67.5332H65.9139L63.6382 9.75979Z" fill="#192A32"/>
<defs>
<filter id="filter0_f" x="0" y="24.0222" width="120" height="12.9936" filterUnits="userSpaceOnUse" color-interpolation-filters="sRGB">
<feFlood flood-opacity="0" result="BackgroundImageFix"/>
<feBlend mode="normal" in="SourceGraphic" in2="BackgroundImageFix" result="shape"/>
<feGaussianBlur stdDeviation="2" result="effect1_foregroundBlur"/>
</filter>
<radialGradient id="paint0_radial" cx="0" cy="0" r="1" gradientUnits="userSpaceOnUse" gradientTransform="translate(59.4079 30.5138) scale(56.0051 2.49471)">
<stop stop-color="#393F42"/>
<stop offset="0.27" stop-color="#3D4346"/>
<stop offset="0.57" stop-color="#4A5053"/>
<stop offset="0.87" stop-color="#5F6669"/>
<stop offset="1" stop-color="#6A7174"/>
</radialGradient>
<linearGradient id="paint1_linear" x1="60.0928" y1="5.89415" x2="60.0928" y2="105.373" gradientUnits="userSpaceOnUse">
<stop stop-color="#FCFCFC"/>
<stop offset="1" stop-color="#031838"/>
</linearGradient>
</defs>
</svg>
