<svg width="138" height="51" viewBox="0 0 138 51" fill="none" xmlns="http://www.w3.org/2000/svg">
<g opacity="0.25" filter="url(#filter0_f)">
<path d="M68.9998 46.8469C104.611 46.8469 133.479 45.3944 133.479 43.6026C133.479 41.8109 104.611 40.3584 68.9998 40.3584C33.3889 40.3584 4.52051 41.8109 4.52051 43.6026C4.52051 45.3944 33.3889 46.8469 68.9998 46.8469Z" fill="url(#paint0_radial)"/>
</g>
<path d="M20.0278 35.6462L23.8155 33.3995H38.2199L42.2265 35.6462L50.9535 32.5642H86.0724L91.8147 35.5326L95.4726 33.2779H109.042L114.005 35.1028L115.709 31.015L112.132 22.9207L20.847 24.3562L18.8193 31.3719L20.0278 35.6462Z" fill="#192A32"/>
<path d="M37.6682 42.0764C41.2822 38.4624 41.2822 32.603 37.6682 28.989C34.0542 25.375 28.1948 25.375 24.5808 28.989C20.9668 32.603 20.9668 38.4624 24.5808 42.0764C28.1948 45.6904 34.0542 45.6904 37.6682 42.0764Z" fill="#30373E"/>
<path d="M35.3107 39.7193C37.6229 37.4071 37.623 33.6583 35.3108 31.3461C32.9986 29.0339 29.2498 29.0339 26.9376 31.3461C24.6254 33.6583 24.6254 37.4071 26.9376 39.7193C29.2498 42.0315 32.9986 42.0315 35.3107 39.7193Z" fill="#94A6A5"/>
<path d="M36.8334 37.0979L32.8754 35.9868C32.9184 35.8392 32.9403 35.6863 32.9403 35.5326C32.9392 35.379 32.9174 35.2262 32.8754 35.0784L36.8334 33.9672C36.8334 33.8294 36.7523 33.6915 36.7036 33.5617L34.1731 34.2673L36.4684 32.9859L36.2737 32.6047L32.6889 34.6161C32.5306 34.3508 32.3072 34.1303 32.04 33.9754L34.0514 30.3905C33.9305 30.3192 33.806 30.2543 33.6784 30.1958L32.3888 32.5154L33.1025 29.9849L32.6889 29.8633L31.5777 33.8131C31.4292 33.7745 31.2769 33.7528 31.1235 33.7483C30.9702 33.7534 30.8179 33.7751 30.6693 33.8131L29.5582 29.8633C29.4203 29.8633 29.2905 29.9444 29.1526 29.9849L29.8664 32.5154L28.5768 30.2283C28.4465 30.2867 28.3193 30.3516 28.1956 30.4229L30.207 34.0078C29.9423 34.1633 29.7217 34.3838 29.5663 34.6485L25.9814 32.6371C25.9084 32.7588 25.8516 32.8885 25.7867 33.0183L28.0901 34.2673L25.5678 33.5617C25.516 33.694 25.4727 33.8295 25.438 33.9672L29.3959 35.0784C29.3539 35.2262 29.3321 35.379 29.3311 35.5326C29.3311 35.6863 29.3529 35.8392 29.3959 35.9868L25.438 37.0979C25.4727 37.2357 25.516 37.3712 25.5678 37.5035L28.0901 36.7978L25.803 38.0793C25.8678 38.2091 25.9246 38.3389 25.9976 38.4605L29.5825 36.4491C29.738 36.7138 29.9585 36.9344 30.2232 37.0898L28.2118 40.6747L28.593 40.8775L29.8826 38.5822L29.1688 41.1127L29.5744 41.2424L30.6855 37.2845C30.8333 37.3265 30.9861 37.3483 31.1397 37.3494C31.2934 37.3494 31.4464 37.3275 31.5939 37.2845L32.7051 41.2424L33.1187 41.1127L32.405 38.5822L33.6946 40.8775L34.0677 40.6747L32.0562 37.0898C32.3235 36.9349 32.5468 36.7143 32.7051 36.4491L36.2899 38.4605L36.4846 38.0793L34.1893 36.7978L36.7198 37.5116C36.7523 37.3818 36.7928 37.2358 36.8334 37.0979Z" fill="#E2E3E5"/>
<path d="M106.425 44.0569C111.152 42.1142 113.41 36.7071 111.467 31.9797C109.524 27.2524 104.117 24.995 99.3897 26.9377C94.6624 28.8803 92.4049 34.2875 94.3476 39.0148C96.2903 43.7422 101.697 45.9996 106.425 44.0569Z" fill="#30373E"/>
<path d="M108.709 36.9114C109.463 33.7296 107.495 30.5391 104.313 29.7851C101.131 29.0312 97.9403 30.9994 97.1864 34.1813C96.4325 37.3631 98.4007 40.5537 101.583 41.3076C104.764 42.0615 107.955 40.0933 108.709 36.9114Z" fill="#94A6A5"/>
<path d="M108.628 37.0979L104.67 35.9868C104.713 35.8392 104.735 35.6863 104.735 35.5326C104.734 35.379 104.712 35.2262 104.67 35.0784L108.628 33.9672C108.588 33.8294 108.547 33.6915 108.499 33.5617L105.968 34.2673L108.255 32.9859C108.199 32.8548 108.134 32.7275 108.061 32.6047L104.476 34.6161C104.323 34.3495 104.102 34.1284 103.835 33.9754L105.846 30.3905C105.724 30.3176 105.596 30.2526 105.465 30.1958L104.184 32.5154L104.889 29.9849C104.76 29.9849 104.622 29.8957 104.484 29.8633L103.373 33.8131C103.224 33.7745 103.072 33.7528 102.919 33.7483C102.765 33.7534 102.613 33.7751 102.464 33.8131L101.353 29.8633C101.215 29.8633 101.077 29.9444 100.948 29.9849L101.653 32.5154L100.372 30.2283C100.241 30.285 100.113 30.35 99.9906 30.4229L102.002 34.0078C101.735 34.1609 101.514 34.382 101.361 34.6485L97.7764 32.6371C97.7035 32.7599 97.6385 32.8872 97.5818 33.0183L99.869 34.2998L97.3385 33.5942C97.2979 33.7239 97.2492 33.8618 97.2168 33.9997L101.167 35.1108C101.129 35.2594 101.107 35.4117 101.102 35.565C101.106 35.7184 101.128 35.8707 101.167 36.0192L97.2168 37.1304C97.2168 37.2683 97.2979 37.4061 97.3385 37.5359L99.869 36.8303L97.5818 38.1118C97.6385 38.2428 97.7035 38.3701 97.7764 38.493L101.361 36.4815C101.514 36.7481 101.735 36.9692 102.002 37.1223L99.9906 40.7071C100.112 40.7801 100.242 40.845 100.372 40.9099L101.653 38.6146L100.948 41.1451L101.353 41.2749L102.464 37.3169C102.612 37.3589 102.765 37.3808 102.919 37.3818C103.072 37.3818 103.225 37.36 103.373 37.3169L104.484 41.2749L104.889 41.1451L104.184 38.6146L105.465 40.9099C105.595 40.845 105.725 40.7801 105.846 40.7071L103.835 37.1223C104.102 36.9692 104.323 36.7481 104.476 36.4815L108.061 38.493C108.134 38.3701 108.199 38.2428 108.255 38.1118L105.952 36.7978L108.482 37.5116C108.547 37.3818 108.588 37.2358 108.628 37.0979Z" fill="#E2E3E5"/>
<path d="M122.927 24.0317V17.0566C122.927 17.0566 123.26 15.8968 121.767 12.5796L116.496 4.60686C116.496 4.60686 114.338 1.62216 111.353 1.28962C111.353 1.28962 69.1784 -1.69508 56.5826 4.93939L44.2951 12.2389L23.5563 15.0614C23.5563 15.0614 16.0458 15.8725 15.8836 28.0384C15.5032 28.1875 15.1762 28.4473 14.9449 28.7842C14.7136 29.1211 14.5885 29.5195 14.5859 29.9281V33.6185C14.5881 34.1548 14.8026 34.6685 15.1827 35.047C15.5627 35.4255 16.0772 35.638 16.6136 35.638H19.3874H20.0525C20.0525 35.638 20.0525 35.565 20.0525 35.5245C20.0525 32.5796 21.2223 29.7555 23.3046 27.6732C25.3869 25.5909 28.2111 24.421 31.1559 24.421C34.1007 24.421 36.9249 25.5909 39.0072 27.6732C41.0895 29.7555 42.2593 32.5796 42.2593 35.5245V35.638H91.8556C91.8556 35.638 91.8556 35.565 91.8556 35.5245C91.7997 32.5818 92.915 29.7374 94.9562 27.6171C96.9974 25.4968 99.7974 24.2742 102.74 24.2183C105.683 24.1623 108.527 25.2777 110.647 27.3189C112.768 29.3601 113.99 32.16 114.046 35.1027L120.981 34.6404C121.831 34.5534 122.625 34.176 123.229 33.5717C123.834 32.9674 124.211 32.1733 124.298 31.3232C124.298 31.3232 126.228 25.5241 122.927 24.0317Z" fill="url(#paint1_linear)"/>
<path d="M18.0166 24.1534C18.0166 24.1534 18.8277 16.5456 28.6658 17.2999C25.7916 20.4942 22.1146 22.8607 18.0166 24.1534Z" fill="#CACCCF"/>
<path d="M18.6978 23.3666C18.6978 23.3666 19.2898 17.9487 26.8084 18.5002C24.574 20.8001 21.7785 22.4774 18.6978 23.3666Z" fill="#FBB040"/>
<path d="M45.4951 24.5345C45.4951 24.5345 46.3467 20.6333 50.3615 20.755L113.462 17.5107L50.3615 19.7006C50.3615 19.7006 45.7384 19.4167 45.4951 24.5345Z" fill="#E2E3E5"/>
<path d="M16.5729 35.6299H19.3467H20.0118C20.0118 35.6299 20.0118 35.5569 20.0118 35.5163C20.0104 33.3511 20.645 31.2331 21.8367 29.4253H14.602C14.5595 29.5813 14.5377 29.7421 14.5371 29.9038V33.5941C14.5361 33.8618 14.588 34.127 14.6899 34.3745C14.7918 34.6219 14.9417 34.8468 15.131 35.036C15.3202 35.2253 15.5451 35.3752 15.7926 35.4771C16.04 35.579 16.3052 35.631 16.5729 35.6299Z" fill="#E2E3E5"/>
<path d="M121.362 28.9306L112.051 29.2713C113.246 31.0034 113.924 33.0401 114.005 35.1433L120.94 34.681C121.79 34.594 122.584 34.2166 123.189 33.6123C123.793 33.0081 124.17 32.2139 124.257 31.3638C124.612 30.2393 124.808 29.071 124.841 27.8925C123.6 29.1334 121.362 28.9306 121.362 28.9306Z" fill="#E2E3E5"/>
<path d="M91.823 35.6461C91.823 35.6461 91.823 35.5731 91.823 35.5326C91.8217 33.3673 92.4562 31.2493 93.6479 29.4415H40.4019C41.5935 31.2493 42.2281 33.3673 42.2267 35.5326V35.6461H91.823Z" fill="#E2E3E5"/>
<path d="M122.927 19.3114H119.342C118.728 19.3135 118.139 19.5586 117.704 19.9932C117.27 20.4277 117.025 21.0165 117.022 21.631V21.6959C117.025 22.3105 117.27 22.8992 117.704 23.3338C118.139 23.7683 118.728 24.0134 119.342 24.0155H122.927V19.3114Z" fill="#EF4136"/>
<path d="M16.1184 30.358H14.5449V33.4482H16.1184C16.5278 33.446 16.9198 33.2819 17.2085 32.9916C17.4973 32.7013 17.6594 32.3085 17.6594 31.899C17.6573 31.491 17.4942 31.1003 17.2057 30.8117C16.9172 30.5232 16.5264 30.3602 16.1184 30.358Z" fill="#30373E"/>
<path d="M90.2251 34.0645H44.53V33.9996C41.4885 23.9182 44.53 13.3014 44.53 13.196V13.1554L57.0122 5.75043C62.2273 3.00094 73.8255 1.55725 90.5576 1.55725C101.539 1.55725 110.834 2.19799 111.248 2.22232C111.296 2.22232 116.22 2.56296 116.974 11.4035V16.8863C116.974 18.7679 114.541 21.7526 114.419 21.8905L110.607 25.7025L110.542 25.6457C107.574 22.88 102.821 22.7827 102.78 22.7827H102.651C91.4903 22.7827 90.2413 33.8861 90.2332 33.9996L90.2251 34.0645ZM44.6679 33.878H90.0872C90.2251 32.8317 91.8716 22.5718 102.683 22.5718H102.813C102.861 22.5718 107.566 22.6854 110.631 25.4267L114.314 21.7445C114.314 21.7445 116.82 18.6868 116.82 16.8782V11.4278C116.43 6.90213 114.938 4.68794 113.762 3.63356C113.077 2.97863 112.203 2.55585 111.264 2.42508C110.875 2.42508 101.531 1.76002 90.5901 1.76002C73.8904 1.76002 62.3165 3.19559 57.1339 5.92886L44.7084 13.3095C44.4894 13.9665 41.7643 24.1615 44.6679 33.878Z" fill="#CACCCF"/>
<path d="M68.2537 16.6916H64.1011C63.886 16.6916 63.6797 16.6061 63.5276 16.454C63.3755 16.3019 63.29 16.0956 63.29 15.8805C63.29 15.6654 63.3755 15.4591 63.5276 15.307C63.6797 15.1549 63.886 15.0695 64.1011 15.0695H68.2537C68.4688 15.0695 68.6751 15.1549 68.8272 15.307C68.9793 15.4591 69.0648 15.6654 69.0648 15.8805C69.0648 16.0956 68.9793 16.3019 68.8272 16.454C68.6751 16.6061 68.4688 16.6916 68.2537 16.6916Z" fill="#ECECED"/>
<path d="M63.2817 15.8969C63.2817 16.112 63.3672 16.3183 63.5193 16.4704C63.6714 16.6225 63.8777 16.7079 64.0928 16.7079H68.2454C68.4605 16.7079 68.6668 16.6225 68.8189 16.4704C68.971 16.3183 69.0565 16.112 69.0565 15.8969H63.2817Z" fill="#E0E1E2"/>
<path d="M97.4437 15.7751H93.291C93.0759 15.7751 92.8696 15.6896 92.7175 15.5375C92.5654 15.3854 92.48 15.1791 92.48 14.964C92.48 14.7489 92.5654 14.5426 92.7175 14.3905C92.8696 14.2384 93.0759 14.153 93.291 14.153H97.4437C97.6588 14.153 97.8651 14.2384 98.0172 14.3905C98.1693 14.5426 98.2547 14.7489 98.2547 14.964C98.2547 15.1791 98.1693 15.3854 98.0172 15.5375C97.8651 15.6896 97.6588 15.7751 97.4437 15.7751Z" fill="#ECECED"/>
<path d="M92.4639 14.9803C92.4639 15.1955 92.5493 15.4017 92.7014 15.5539C92.8535 15.706 93.0598 15.7914 93.2749 15.7914H97.4275C97.6427 15.7914 97.849 15.706 98.0011 15.5539C98.1532 15.4017 98.2386 15.1955 98.2386 14.9803H92.4639Z" fill="#E0E1E2"/>
<path d="M70.6136 33.951C69.5511 23.1396 72.4547 12.4498 72.479 12.3444L72.6656 12.393C72.6656 12.4985 69.7376 23.1558 70.8082 33.9348L70.6136 33.951Z" fill="#CACCCF"/>
<path d="M100.396 22.7828H100.209C100.303 19.0873 100.754 15.4096 101.556 11.801L101.742 11.8497C100.935 15.4409 100.484 19.103 100.396 22.7828Z" fill="#CACCCF"/>
<path d="M114.062 5.88017C113.608 5.27188 112.075 3.51188 110.404 3.301C109.69 3.25234 100.534 2.64404 89.8356 2.64404C73.3306 2.64404 61.9108 4.04718 56.8093 6.69934L45.9897 13.1392L114.427 11.7036C114.427 11.7036 117.671 11.144 114.062 5.88017Z" fill="#30373E"/>
<path d="M68.3753 12.6931L88.4896 12.2714L79.0894 2.87122C71.2708 3.26052 65.0419 3.95804 60.873 5.19085L68.3753 12.6931Z" fill="#43474D"/>
<path d="M97.6299 2.72522L106.762 11.8821L112.44 11.7685L103.567 2.91176C101.799 2.84688 99.7954 2.77388 97.6299 2.72522Z" fill="#43474D"/>
<path d="M70.4272 12.6445L74.8394 12.5553L76.5589 3.00098C75.4558 3.07397 74.4339 3.14697 73.4119 3.23618L70.4272 12.6445Z" fill="#192A32"/>
<path d="M99.9824 12.028L103.154 11.9631L105.1 3.04146C104.395 3.04146 103.665 2.95224 102.87 2.9198L99.9824 12.028Z" fill="#192A32"/>
<path d="M53.8818 12.5228C53.8818 13.9097 52.0894 15.029 49.8752 15.029C47.661 15.029 47.2798 13.9097 47.2798 12.5228C47.2798 11.1359 47.6691 10.0085 49.8752 10.0085C52.0812 10.0085 53.8818 11.1359 53.8818 12.5228Z" fill="#E2E3E5"/>
<path d="M41.8781 30.0822C41.8781 30.0822 40.1667 23.1395 30.2231 23.1395C30.2231 23.1395 39.8261 21.1686 42.8189 30.0822H41.8781Z" fill="#E2E3E5"/>
<path d="M114.135 29.766C114.135 29.766 112.513 27.0084 111.208 26.1567C111.208 26.1567 113.957 26.3433 115.482 29.766H114.135Z" fill="#E2E3E5"/>
<defs>
<filter id="filter0_f" x="0.520508" y="36.3584" width="136.958" height="14.4885" filterUnits="userSpaceOnUse" color-interpolation-filters="sRGB">
<feFlood flood-opacity="0" result="BackgroundImageFix"/>
<feBlend mode="normal" in="SourceGraphic" in2="BackgroundImageFix" result="shape"/>
<feGaussianBlur stdDeviation="2" result="effect1_foregroundBlur"/>
</filter>
<radialGradient id="paint0_radial" cx="0" cy="0" r="1" gradientUnits="userSpaceOnUse" gradientTransform="translate(-222673 432.898) scale(10241.4 82.1182)">
<stop stop-color="#393F42"/>
<stop offset="0.27" stop-color="#3D4346"/>
<stop offset="0.57" stop-color="#4A5053"/>
<stop offset="0.87" stop-color="#5F6669"/>
<stop offset="1" stop-color="#6A7174"/>
</radialGradient>
<linearGradient id="paint1_linear" x1="69.7224" y1="7.66769" x2="69.7224" y2="142.636" gradientUnits="userSpaceOnUse">
<stop stop-color="#FCFCFC"/>
<stop offset="1" stop-color="#031838"/>
</linearGradient>
</defs>
</svg>
