<svg width="24" height="24" viewBox="0 0 24 24" fill="none"
     xmlns="http://www.w3.org/2000/svg">
    <path fill-rule="evenodd" clip-rule="evenodd"
          d="M17.4012 8.1802C17.025 6.84276 15.9045 6.09927 14.3484 5.7288C13.4286 5.51022 12.4934 5.44846 11.7181 5.4696C11.6442 5.47204 11.6442 5.47204 11.6215 5.47285C10.8357 5.44847 9.90051 5.51023 8.9816 5.7288C7.42477 6.0985 6.30431 6.8428 5.94195 8.12508L4.84503 13.2546C4.71909 13.847 4.69634 14.4531 4.78165 15.0446C5.13999 17.5472 6.03377 19.334 7.99853 19.334C8.10903 19.334 8.21873 19.3129 8.32111 19.2723C8.35849 19.2568 8.44218 19.2259 8.56731 19.1837C8.78264 19.1122 9.02884 19.0391 9.29859 18.9708C10.0697 18.7766 10.8741 18.6604 11.6647 18.6604C12.4553 18.6604 13.2605 18.7766 14.0308 18.9708C14.3014 19.0391 14.5468 19.1122 14.7621 19.1837C14.8872 19.2259 14.9709 19.2568 15.0083 19.2723C15.1107 19.3129 15.2204 19.334 15.3309 19.334C17.2956 19.334 18.1894 17.5472 18.5478 15.0446C18.6331 14.4531 18.6103 13.847 18.4844 13.2546L17.4012 8.1802ZM16.8324 14.7982C16.6065 16.3754 16.0962 17.4626 15.456 17.5885C15.2098 17.5007 14.8701 17.3951 14.4541 17.2903C13.5546 17.0636 12.6121 16.9271 11.6647 16.9271C10.7181 16.9271 9.77554 17.0636 8.87528 17.2903C8.45926 17.3951 8.11962 17.5007 7.87342 17.5885C7.23314 17.4625 6.72287 16.3754 6.49697 14.7982C6.44172 14.4107 6.45635 14.0101 6.54085 13.616L7.62396 8.54159C7.76128 8.06057 8.37232 7.65512 9.38229 7.41541C9.80399 7.31465 10.2623 7.25209 10.7311 7.22121C11.0553 7.20009 11.3413 7.19602 11.5648 7.20252C11.6176 7.20415 11.6176 7.20415 11.6216 7.20415C11.7118 7.20415 11.7118 7.20415 11.7647 7.20252C11.9881 7.19602 12.2741 7.20008 12.5983 7.22121C13.0672 7.25209 13.5262 7.31547 13.9479 7.41541C14.9571 7.6551 15.5682 8.06057 15.7201 8.59603L16.7886 13.6159C16.8731 14.0108 16.8877 14.4106 16.8325 14.7982L16.8324 14.7982Z"
          fill="#053565" />
    <path fill-rule="evenodd" clip-rule="evenodd"
          d="M15.0805 5.46716H8.05124C8.14712 5.46716 8.21213 5.54841 8.19831 5.62966L8.70696 3.7332H14.6028L14.8969 5.49479L14.9327 5.62886C14.9197 5.54842 14.9839 5.46716 15.0806 5.46716L15.0805 5.46716ZM16.2709 3.19444L16.2287 3.03599C15.9979 2.4144 15.4064 2 14.7441 2H8.5883C7.92689 2 7.33619 2.41359 7.10461 3.03356L6.54152 5.12905C6.18156 6.08948 6.94373 7.20021 8.05122 7.20021H15.0805C16.1555 7.20021 16.9038 6.15367 16.5959 5.14368L16.2709 3.19444Z"
          fill="#053565" />
    <path fill-rule="evenodd" clip-rule="evenodd"
          d="M14.4542 17.2905C13.5547 17.0638 12.6122 16.9272 11.6656 16.9272C10.7182 16.9272 9.77568 17.0638 8.87539 17.2905C8.4618 17.3945 8.12297 17.5001 7.87758 17.587C7.35999 17.5196 6.89929 17.9226 6.89929 18.4467V21.9342C6.89929 22.4128 7.28688 22.8012 7.76628 22.8012H15.5667C16.0452 22.8012 16.4328 22.4128 16.4328 21.9342V18.4467C16.4328 17.9218 15.9713 17.5188 15.4529 17.5878C15.2075 17.5001 14.8687 17.3945 14.4543 17.2905H14.4542ZM14.6996 21.0679H8.63237V19.1625C8.83225 19.0975 9.05488 19.0325 9.29865 18.9716C10.0689 18.7774 10.8742 18.6612 11.6656 18.6612C12.4562 18.6612 13.2606 18.7774 14.0309 18.9716C14.2755 19.0325 14.4997 19.0983 14.6996 19.1633L14.6996 21.0679Z"
          fill="#053565" />
    <path fill-rule="evenodd" clip-rule="evenodd"
          d="M16.6531 16.3723C16.4637 16.7834 16.246 17.0767 16.0176 17.236L15.8958 17.3384C15.7511 17.4863 15.6049 17.5651 15.4416 17.5886C15.0158 17.6504 14.6997 18.016 14.6997 18.4467V21.9342C14.6997 22.4128 15.0881 22.8012 15.5667 22.8012C17.507 22.8012 18.8664 22.0195 19.657 20.7292C20.1266 19.9638 20.3054 19.2081 20.3322 18.6613C20.3338 17.4067 19.757 16.5714 18.8412 16.1685C18.4463 15.9946 18.0563 15.9223 17.7118 15.9109C17.3014 15.7752 16.8407 15.9637 16.653 16.3724L16.6531 16.3723ZM18.1424 17.7544C18.4455 17.8877 18.5999 18.1119 18.5999 18.6189C18.5983 18.6303 18.582 18.7595 18.5398 18.9366C18.4675 19.2413 18.3496 19.5452 18.179 19.8239C17.815 20.4187 17.2625 20.8282 16.4337 20.9899V19.0699C16.6661 18.9529 16.8806 18.7977 17.0756 18.61C17.4006 18.3687 17.6777 18.055 17.9141 17.6796C17.9905 17.6975 18.0685 17.7219 18.1424 17.7544L18.1424 17.7544Z"
          fill="#053565" />
    <path fill-rule="evenodd" clip-rule="evenodd"
          d="M4.49183 16.1682C3.5761 16.5712 3 17.4065 3 18.6187C3.02763 19.2078 3.20639 19.9627 3.67522 20.729C4.46583 22.0193 5.82604 22.801 7.76636 22.801C8.24495 22.801 8.63335 22.4126 8.63335 21.934V18.4473C8.63335 18.0167 8.31728 17.651 7.89069 17.5893C7.72331 17.5649 7.57462 17.4837 7.42591 17.3309L7.30891 17.2301C7.08222 17.0676 6.86607 16.7759 6.68082 16.3721C6.49312 15.9634 6.0316 15.7749 5.62209 15.9098C5.27675 15.9219 4.88673 15.9934 4.49185 16.1681L4.49183 16.1682ZM6.23715 18.5936C6.43785 18.7902 6.65966 18.9511 6.90019 19.0714V20.9898C6.07058 20.8281 5.51806 20.4186 5.15405 19.8238C4.98341 19.5451 4.8656 19.2412 4.79327 18.9373C4.75102 18.7593 4.73477 18.6301 4.73233 18.5765C4.73315 18.1117 4.88834 17.8875 5.1906 17.7542C5.26454 17.7217 5.34255 17.6974 5.41893 17.6795C5.65051 18.0459 5.9219 18.3539 6.23716 18.5936L6.23715 18.5936Z"
          fill="#053565" />
</svg>
