<svg width="250" height="227" viewBox="30 10 250 225" fill="none"
     xmlns="http://www.w3.org/2000/svg">
    <path d="M317 207.572H0V207.73H317V207.572Z" fill="#EBEBEB" />
    <path d="M285.236 217.773H264.238V217.931H285.236V217.773Z"
          fill="#EBEBEB" />
    <path d="M191.113 217.855H185.604V218.014H191.113V217.855Z"
          fill="#EBEBEB" />
    <path d="M263.597 211.889H224.645V212.048H263.597V211.889Z"
          fill="#EBEBEB" />
    <path d="M142.739 215.63H134.693V215.788H142.739V215.63Z" fill="#EBEBEB" />
    <path d="M129.05 215.63H105.7V215.788H129.05V215.63Z" fill="#EBEBEB" />
    <path d="M49.3824 212.954H33.2598V213.113H49.3824V212.954Z"
          fill="#EBEBEB" />
    <path d="M100.667 212.954H53.1865V213.113H100.667V212.954Z"
          fill="#EBEBEB" />
    <path d="M150.258 179.295H27.8394C26.8804 179.294 25.9612 178.911 25.2837 178.233C24.6061 177.554 24.2256 176.634 24.2256 175.675V3.58844C24.2339 2.63492 24.6182 1.7232 25.2948 1.05131C25.9714 0.379422 26.8858 0.00163343 27.8394 0H150.258C151.219 0 152.139 0.381407 152.818 1.06031C153.497 1.73922 153.879 2.66002 153.879 3.62014V175.675C153.879 176.635 153.497 177.556 152.818 178.235C152.139 178.914 151.219 179.295 150.258 179.295ZM27.8394 0.1268C26.9224 0.12848 26.0435 0.493927 25.3957 1.14293C24.7479 1.79193 24.3841 2.67145 24.3841 3.58844V175.675C24.3841 176.592 24.7479 177.472 25.3957 178.121C26.0435 178.77 26.9224 179.135 27.8394 179.137H150.258C151.176 179.135 152.056 178.77 152.704 178.121C153.353 177.472 153.718 176.593 153.72 175.675V3.58844C153.718 2.67087 153.353 1.79136 152.704 1.14254C152.056 0.493721 151.176 0.128476 150.258 0.1268H27.8394Z"
          fill="#EBEBEB" />
    <path d="M287.398 179.295H164.973C164.013 179.294 163.093 178.912 162.415 178.233C161.736 177.554 161.354 176.635 161.353 175.675V3.58844C161.363 2.63434 161.748 1.72263 162.426 1.05091C163.103 0.379201 164.019 0.00161562 164.973 0H287.398C288.351 0.00329965 289.263 0.381826 289.939 1.05354C290.614 1.72524 290.997 2.63601 291.006 3.58844V175.675C291.006 176.633 290.626 177.552 289.95 178.23C289.274 178.909 288.356 179.292 287.398 179.295ZM164.973 0.1268C164.055 0.128476 163.176 0.493721 162.527 1.14254C161.878 1.79136 161.513 2.67087 161.511 3.58844V175.675C161.513 176.593 161.878 177.472 162.527 178.121C163.176 178.77 164.055 179.135 164.973 179.137H287.398C288.316 179.135 289.195 178.77 289.844 178.121C290.493 177.472 290.858 176.593 290.86 175.675V3.58844C290.858 2.67087 290.493 1.79136 289.844 1.14254C289.195 0.493721 288.316 0.128476 287.398 0.1268H164.973Z"
          fill="#EBEBEB" />
    <path d="M120.955 123.319L275.042 123.319V10.7654L120.955 10.7654V123.319Z"
          fill="#E6E6E6" />
    <path d="M114.145 123.319L273.463 123.319V10.7654L114.145 10.7654V123.319Z"
          fill="#F0F0F0" />
    <path d="M263.922 113.784V20.3006L123.675 20.3006V113.784L263.922 113.784Z"
          fill="#FAFAFA" />
    <path d="M229.831 113.778L197.903 20.3006H167.414L199.342 113.778H229.831Z"
          fill="white" />
    <path d="M192.794 113.778L160.866 20.3006H148.984L180.913 113.778H192.794Z"
          fill="white" />
    <path d="M124.892 113.784V20.3006H123.681V113.784H124.892Z"
          fill="#E6E6E6" />
    <path d="M40.9368 92.7034H95.3467L95.3467 15.5646H40.9368L40.9368 92.7034Z"
          fill="#E0E0E0" />
    <path d="M37.0892 92.7034H93.1729L93.1729 15.5646H37.0892L37.0892 92.7034Z"
          fill="#F5F5F5" />
    <path d="M87.6377 86.6171V21.6384L42.6237 21.6384L42.6237 86.6171H87.6377Z"
          fill="white" />
    <path d="M62.0874 146.708C66.126 136.741 75.7311 133.032 79.0533 126.737C83.3962 118.495 83.3708 106.125 79.6873 101.668C76.4665 97.7882 65.8153 124.01 64.6171 126.939C61.3296 134.845 59.2728 143.207 58.518 151.735C58.6068 145.579 58.6892 139.924 58.7589 135.562C58.9872 121.335 59.2661 116.757 59.3929 115.35C59.8367 114.659 60.3629 113.86 60.6609 113.448C63.2413 109.815 68.96 105.485 71.8193 100.204C75.991 92.4879 75.319 83.2569 72.3899 79.8206C69.3277 76.2258 63.9197 84.7214 61.0477 93.1346C58.1756 101.548 59.3993 109.619 58.5941 116.593C58.4292 117.962 58.2517 123.167 58.0932 130.395C57.2183 122.622 55.4811 117.417 52.2668 112.56C48.3106 106.594 44.8933 99.3288 41.6346 100.267C38.3758 101.205 40.1257 110.823 42.706 117.569C45.0138 123.579 56.3307 129.577 57.9981 134.408C57.8016 144.197 57.6241 156.598 57.5036 168.156C56.6097 162.19 57.2246 161.689 53.5601 152.553C51.3855 147.126 42.4778 140.431 41.4 144.159C40.3222 147.887 41.9516 154.937 45.3181 159.882C48.038 163.864 54.0673 163.857 55.4621 166.33C55.7855 166.907 56.8633 169.12 57.4782 170.388C57.3324 184.488 57.269 196.939 57.3388 201.181L57.922 201.225C57.922 200.128 57.9664 192.983 58.0805 183.473C59.5451 178.401 69.4038 175.479 72.447 170.223C75.617 164.726 77.9247 158.31 76.5553 154.018C75.4141 150.436 66.4113 155.286 62.7912 161.239C60.3629 165.195 58.8794 169.411 58.1883 175.079C58.2707 168.612 58.3658 161.664 58.4546 155.108C59.1964 153.46 60.8638 149.694 62.0874 146.708Z"
          fill="#E6E6E6" />
    <path d="M67.8762 207.572H47.157C46.6095 207.571 46.0789 207.381 45.655 207.035C45.2311 206.688 44.9398 206.206 44.8303 205.67L43.3594 198.442H71.6802L70.2093 205.689C70.0935 206.222 69.7991 206.699 69.3747 207.041C68.9503 207.384 68.4215 207.571 67.8762 207.572Z"
          fill="#F0F0F0" />
    <path d="M72.2764 201.225H42.7637C42.4219 201.224 42.0922 201.098 41.8374 200.87C41.5827 200.642 41.4204 200.329 41.3816 199.989L40.7476 194.632C40.7262 194.437 40.746 194.24 40.8057 194.054C40.8654 193.868 40.9636 193.696 41.0939 193.55C41.2243 193.404 41.3839 193.287 41.5623 193.207C41.7407 193.127 41.9341 193.085 42.1297 193.085H72.8407C73.0366 193.084 73.2304 193.125 73.4093 193.205C73.5883 193.285 73.7483 193.402 73.8788 193.548C74.0093 193.694 74.1075 193.866 74.1668 194.053C74.2261 194.24 74.2452 194.437 74.2228 194.632L73.5888 199.989C73.5517 200.317 73.3995 200.621 73.1592 200.848C72.9189 201.074 72.6061 201.208 72.2764 201.225Z"
          fill="#F0F0F0" />
    <path d="M257.169 202.95H263.503V134.801H257.169V202.95Z" fill="#F0F0F0" />
    <path d="M128.106 207.489L261.075 207.489V202.95L128.106 202.95V207.489Z"
          fill="#F0F0F0" />
    <path d="M257.177 134.801H125.679V202.95H257.177V134.801Z" fill="#F5F5F5" />
    <path d="M258.666 134.801H265.209V130.503H258.666V134.801Z"
          fill="#E0E0E0" />
    <path d="M258.666 130.503H123.973V134.801H258.666V130.503Z"
          fill="#EBEBEB" />
    <path d="M247.736 164.206H135.112C133.767 164.206 132.477 163.672 131.526 162.72C130.574 161.769 130.04 160.479 130.04 159.134V144.552C130.04 143.207 130.574 141.917 131.526 140.966C132.477 140.014 133.767 139.48 135.112 139.48H247.736C249.081 139.48 250.371 140.014 251.322 140.966C252.273 141.917 252.808 143.207 252.808 144.552V159.134C252.808 160.479 252.273 161.769 251.322 162.72C250.371 163.672 249.081 164.206 247.736 164.206ZM135.112 140.748C134.103 140.748 133.136 141.149 132.422 141.862C131.709 142.576 131.308 143.543 131.308 144.552V159.134C131.308 160.143 131.709 161.11 132.422 161.824C133.136 162.537 134.103 162.938 135.112 162.938H247.736C248.745 162.938 249.712 162.537 250.426 161.824C251.139 161.11 251.54 160.143 251.54 159.134V144.552C251.54 143.543 251.139 142.576 250.426 141.862C249.712 141.149 248.745 140.748 247.736 140.748H135.112Z"
          fill="white" />
    <path d="M247.736 194.758H135.112C133.767 194.758 132.477 194.224 131.526 193.273C130.574 192.322 130.04 191.032 130.04 189.686V175.104C130.04 173.759 130.574 172.469 131.526 171.518C132.477 170.567 133.767 170.032 135.112 170.032H247.736C249.081 170.032 250.371 170.567 251.322 171.518C252.273 172.469 252.808 173.759 252.808 175.104V189.686C252.808 191.032 252.273 192.322 251.322 193.273C250.371 194.224 249.081 194.758 247.736 194.758ZM135.112 171.25C134.103 171.25 133.136 171.65 132.422 172.364C131.709 173.077 131.308 174.045 131.308 175.054V189.636C131.308 190.645 131.709 191.612 132.422 192.325C133.136 193.039 134.103 193.44 135.112 193.44H247.736C248.745 193.44 249.712 193.039 250.426 192.325C251.139 191.612 251.54 190.645 251.54 189.636V175.054C251.54 174.045 251.139 173.077 250.426 172.364C249.712 171.65 248.745 171.25 247.736 171.25H135.112Z"
          fill="white" />
    <path d="M222.141 154.062H160.706C160.27 154.062 159.852 153.889 159.543 153.581C159.234 153.274 159.059 152.856 159.058 152.42V151.215C159.059 150.779 159.234 150.362 159.543 150.054C159.852 149.746 160.27 149.573 160.706 149.573H222.141C222.577 149.573 222.995 149.746 223.304 150.054C223.613 150.362 223.787 150.779 223.789 151.215V152.42C223.787 152.856 223.613 153.274 223.304 153.581C222.995 153.889 222.577 154.062 222.141 154.062ZM160.706 150.892C160.607 150.894 160.512 150.933 160.441 151.003C160.37 151.073 160.329 151.167 160.326 151.266V152.471C160.329 152.57 160.37 152.664 160.441 152.734C160.512 152.803 160.607 152.843 160.706 152.845H222.141C222.24 152.845 222.336 152.806 222.407 152.736C222.479 152.666 222.519 152.57 222.521 152.471V151.266C222.519 151.166 222.479 151.071 222.407 151.001C222.336 150.931 222.24 150.892 222.141 150.892H160.706Z"
          fill="white" />
    <path d="M222.141 184.614H160.706C160.27 184.614 159.852 184.442 159.543 184.134C159.234 183.826 159.059 183.408 159.058 182.972V181.768C159.059 181.332 159.234 180.914 159.543 180.606C159.852 180.298 160.27 180.126 160.706 180.126H222.141C222.577 180.126 222.995 180.298 223.304 180.606C223.613 180.914 223.787 181.332 223.789 181.768V182.972C223.787 183.408 223.613 183.826 223.304 184.134C222.995 184.442 222.577 184.614 222.141 184.614ZM160.706 181.394C160.607 181.395 160.512 181.435 160.441 181.505C160.37 181.574 160.329 181.668 160.326 181.768V182.972C160.329 183.072 160.37 183.166 160.441 183.235C160.512 183.305 160.607 183.345 160.706 183.346H222.141C222.24 183.346 222.336 183.307 222.407 183.237C222.479 183.167 222.519 183.072 222.521 182.972V181.768C222.519 181.668 222.479 181.573 222.407 181.503C222.336 181.433 222.24 181.394 222.141 181.394H160.706Z"
          fill="white" />
    <path d="M155.33 236.203C223.22 236.203 278.256 232.99 278.256 229.026C278.256 225.063 223.22 221.849 155.33 221.849C87.4393 221.849 32.4033 225.063 32.4033 229.026C32.4033 232.99 87.4393 236.203 155.33 236.203Z"
          fill="#F5F5F5" />
    <path d="M237.617 71.4852L237.376 75.218L238.009 75.2589L238.25 71.5261L237.617 71.4852Z"
          fill="#30659A" />
    <path d="M238.579 56.3245L237.788 68.5923L238.421 68.6331L239.212 56.3653L238.579 56.3245Z"
          fill="#30659A" />
    <path d="M231.055 38.5091H156.528C154.614 38.5427 152.782 39.2881 151.388 40.5998C149.994 41.9115 149.139 43.6955 148.99 45.6036L139.359 194.277C139.289 195.188 139.409 196.104 139.711 196.966C140.014 197.829 140.493 198.619 141.117 199.287C141.741 199.955 142.497 200.485 143.337 200.845C144.178 201.205 145.083 201.386 145.997 201.377H220.511C222.429 201.346 224.265 200.6 225.662 199.287C227.06 197.975 227.918 196.188 228.069 194.277L237.693 45.6036C237.763 44.6926 237.643 43.7769 237.341 42.9147C237.038 42.0525 236.559 41.2627 235.935 40.5954C235.311 39.9282 234.555 39.3982 233.714 39.039C232.874 38.6798 231.969 38.4994 231.055 38.5091Z"
          fill="#30659A" />
    <path opacity="0.7"
          d="M228.69 38.5091H156.528C154.614 38.5427 152.782 39.2881 151.388 40.5998C149.994 41.9115 149.139 43.6955 148.99 45.6036L139.359 194.277C139.289 195.188 139.409 196.104 139.711 196.966C140.014 197.829 140.493 198.619 141.117 199.287C141.741 199.955 142.497 200.485 143.337 200.845C144.178 201.205 145.083 201.386 145.997 201.377H218.147C220.064 201.346 221.9 200.6 223.297 199.287C224.695 197.975 225.553 196.188 225.704 194.277L235.328 45.6036C235.398 44.6926 235.278 43.7769 234.976 42.9147C234.673 42.0525 234.195 41.2627 233.57 40.5954C232.946 39.9282 232.19 39.3982 231.35 39.039C230.509 38.6798 229.604 38.4994 228.69 38.5091Z"
          fill="white" />
    <path d="M222.604 190.39H143.227C142.931 190.391 142.637 190.33 142.364 190.213C142.092 190.095 141.846 189.923 141.643 189.707C141.439 189.49 141.283 189.234 141.182 188.955C141.082 188.676 141.04 188.379 141.059 188.082L149.77 53.5476C149.806 52.9981 150.049 52.4827 150.45 52.1059C150.852 51.7292 151.382 51.5192 151.932 51.5188H231.315C231.613 51.519 231.907 51.5802 232.179 51.6985C232.452 51.8168 232.697 51.9897 232.9 52.2065C233.104 52.4234 233.26 52.6796 233.361 52.9593C233.461 53.239 233.503 53.5363 233.484 53.8329L224.773 188.361C224.737 188.912 224.493 189.428 224.09 189.805C223.687 190.182 223.156 190.391 222.604 190.39Z"
          fill="white" />
    <path d="M204.966 47.1189H176.112C175.964 47.1202 175.817 47.0907 175.68 47.0321C175.544 46.9736 175.421 46.8873 175.32 46.7789C175.218 46.6704 175.141 46.542 175.092 46.4019C175.042 46.2618 175.023 46.113 175.034 45.965C175.064 45.6575 175.204 45.3713 175.429 45.16C175.655 44.9487 175.949 44.8269 176.258 44.8175H205.111C205.26 44.8153 205.407 44.844 205.543 44.9018C205.679 44.9596 205.802 45.0453 205.904 45.1533C206.005 45.2613 206.083 45.3893 206.132 45.529C206.181 45.6688 206.201 45.8173 206.189 45.965C206.161 46.2736 206.022 46.5614 205.796 46.774C205.571 46.9866 205.275 47.1093 204.966 47.1189Z"
          fill="white" />
    <path d="M182.447 196.039C182.4 196.799 182.068 197.513 181.516 198.038C180.964 198.562 180.234 198.859 179.473 198.867C179.107 198.87 178.745 198.798 178.409 198.655C178.072 198.512 177.768 198.302 177.517 198.036C177.265 197.771 177.071 197.457 176.946 197.113C176.821 196.77 176.769 196.404 176.791 196.039C176.839 195.28 177.172 194.568 177.724 194.045C178.275 193.521 179.004 193.226 179.765 193.218C180.13 193.214 180.492 193.285 180.829 193.427C181.165 193.569 181.469 193.779 181.721 194.044C181.972 194.309 182.167 194.623 182.292 194.966C182.416 195.309 182.469 195.675 182.447 196.039Z"
          fill="white" />
    <path opacity="0.2"
          d="M213.956 88.76H146.175L141.864 155.267H213.956C215.838 155.263 217.641 154.515 218.972 153.185C220.302 151.856 221.052 150.053 221.057 148.172V95.8798C221.059 93.9943 220.312 92.1853 218.98 90.8502C217.649 89.5152 215.842 88.7634 213.956 88.76Z"
          fill="#30659A" />
    <path d="M207.641 82.8701H124.574C120.653 82.8701 117.474 86.0492 117.474 89.9709V142.282C117.474 146.204 120.653 149.383 124.574 149.383H207.641C211.563 149.383 214.742 146.204 214.742 142.282V89.9709C214.742 86.0492 211.563 82.8701 207.641 82.8701Z"
          fill="#30659A" />
    <path d="M115.205 82.1031C115.039 82.1024 114.879 82.0364 114.761 81.9192L113.62 80.7844C113.501 80.665 113.434 80.5031 113.434 80.3342C113.434 80.1654 113.501 80.0035 113.62 79.8841C113.739 79.7647 113.901 79.6976 114.07 79.6976C114.239 79.6976 114.401 79.7647 114.52 79.8841L115.655 81.0253C115.773 81.1441 115.84 81.3048 115.84 81.4723C115.84 81.6398 115.773 81.8004 115.655 81.9192C115.596 81.978 115.526 82.0245 115.448 82.056C115.371 82.0876 115.288 82.1036 115.205 82.1031Z"
          fill="#30659A" />
    <path d="M113.486 86.0846H111.882C111.714 86.0846 111.553 86.0178 111.434 85.8989C111.315 85.78 111.248 85.6187 111.248 85.4506C111.248 85.2824 111.315 85.1212 111.434 85.0023C111.553 84.8834 111.714 84.8166 111.882 84.8166H113.486C113.654 84.8166 113.815 84.8834 113.934 85.0023C114.053 85.1212 114.12 85.2824 114.12 85.4506C114.12 85.6187 114.053 85.78 113.934 85.8989C113.815 86.0178 113.654 86.0846 113.486 86.0846Z"
          fill="#30659A" />
    <path d="M119.243 80.3913C119.082 80.3917 118.927 80.331 118.81 80.2215C118.692 80.1121 118.62 79.962 118.609 79.8016L118.495 78.1976C118.489 78.1143 118.499 78.0306 118.526 77.9514C118.552 77.8722 118.594 77.7989 118.649 77.7359C118.703 77.6729 118.77 77.6213 118.845 77.5841C118.92 77.5469 119.001 77.5249 119.084 77.5192C119.252 77.5088 119.416 77.5649 119.542 77.6754C119.668 77.7859 119.745 77.9417 119.756 78.1089L119.877 79.7129C119.883 79.7962 119.873 79.8799 119.846 79.9591C119.82 80.0383 119.778 80.1116 119.723 80.1746C119.668 80.2376 119.602 80.2892 119.527 80.3264C119.452 80.3636 119.371 80.3856 119.287 80.3913H119.243Z"
          fill="#30659A" />
    <path d="M173.202 142.542L198.708 168.042V142.542H173.202Z"
          fill="#30659A" />
    <path d="M166 137.84C153.937 137.84 144.16 128.063 144.16 116C144.16 103.937 153.937 94.16 166 94.16C178.063 94.16 187.84 103.937 187.84 116C187.84 128.063 178.063 137.84 166 137.84ZM158.096 116.81C157.469 116.222 156.482 116.256 155.89 116.884C155.302 117.511 155.336 118.498 155.964 119.089L162.204 124.939C162.874 125.567 163.937 125.482 164.501 124.757L175.421 110.717C175.951 110.037 175.829 109.056 175.147 108.529C174.467 107.999 173.486 108.121 172.959 108.803L163.091 121.491L158.096 116.81Z"
          fill="white" />
    <path d="M128.93 44.919H124.086C123.96 44.9222 123.84 44.9698 123.746 45.0533C123.652 45.1369 123.59 45.251 123.572 45.3755L122.558 55.0376C122.551 55.0959 122.556 55.1549 122.573 55.211C122.591 55.267 122.62 55.3186 122.659 55.3624C122.698 55.4062 122.746 55.4412 122.8 55.465C122.853 55.4888 122.911 55.5009 122.97 55.5005H127.814C127.94 55.497 128.062 55.4485 128.156 55.3637C128.25 55.2789 128.311 55.1633 128.327 55.0376L129.342 45.3755C129.349 45.3176 129.344 45.2587 129.326 45.203C129.309 45.1473 129.279 45.0961 129.24 45.0527C129.201 45.0094 129.153 44.975 129.099 44.9519C129.046 44.9289 128.988 44.9176 128.93 44.919Z"
          fill="#30659A" />
    <path opacity="0.4"
          d="M128.492 44.919H124.086C123.96 44.9222 123.84 44.9698 123.746 45.0533C123.652 45.1369 123.59 45.251 123.572 45.3755L122.558 55.0376C122.551 55.0958 122.556 55.1549 122.573 55.2109C122.591 55.267 122.62 55.3186 122.659 55.3624C122.698 55.4062 122.746 55.4412 122.8 55.465C122.853 55.4888 122.911 55.5009 122.97 55.5004H127.408C127.534 55.4968 127.654 55.4481 127.747 55.3632C127.84 55.2782 127.9 55.1627 127.915 55.0376L128.93 45.3755C128.939 45.3151 128.934 45.2534 128.915 45.1952C128.897 45.137 128.865 45.0839 128.823 45.0398C128.781 44.9957 128.729 44.9619 128.672 44.9409C128.614 44.92 128.553 44.9125 128.492 44.919Z"
          fill="white" />
    <path d="M104.653 223.58C105.287 223.58 105.921 223.485 106.143 223.193C106.197 223.115 106.226 223.022 106.226 222.927C106.226 222.832 106.197 222.739 106.143 222.661C106.05 222.519 105.908 222.417 105.743 222.376C104.881 222.141 103.131 223.168 103.055 223.212C103.035 223.225 103.02 223.243 103.011 223.265C103.002 223.286 103 223.31 103.004 223.333C103.009 223.358 103.021 223.381 103.039 223.399C103.058 223.417 103.081 223.43 103.106 223.434C103.617 223.526 104.134 223.575 104.653 223.58ZM105.426 222.585C105.504 222.575 105.583 222.575 105.661 222.585C105.762 222.609 105.85 222.67 105.908 222.756C105.997 222.908 105.972 222.984 105.908 223.022C105.686 223.358 104.387 223.365 103.429 223.232C104.044 222.883 104.724 222.663 105.426 222.585Z"
          fill="#30659A" />
    <path d="M103.094 223.434H103.144C103.778 223.155 104.932 222.046 104.812 221.463C104.812 221.329 104.679 221.158 104.343 221.127C104.224 221.113 104.103 221.125 103.989 221.16C103.874 221.194 103.768 221.252 103.677 221.329C103.043 221.868 102.973 223.231 102.967 223.308C102.966 223.33 102.971 223.352 102.981 223.372C102.991 223.392 103.006 223.409 103.024 223.422C103.046 223.432 103.07 223.437 103.094 223.434ZM104.26 221.355H104.33C104.552 221.355 104.571 221.463 104.571 221.488C104.647 221.837 103.848 222.712 103.233 223.092C103.272 222.51 103.494 221.955 103.867 221.507C103.977 221.413 104.116 221.359 104.26 221.355Z"
          fill="#30659A" />
    <path d="M102.575 211.426H97.4395V223.314H102.575V211.426Z"
          fill="#FF8B7B" />
    <path d="M60.1973 217.646L65.3263 218.204L68.6675 206.665L63.5384 206.107L60.1973 217.646Z"
          fill="#FF8B7B" />
    <path d="M67.7105 219.364C68.3445 219.529 68.9785 219.599 69.2638 219.364C69.3335 219.299 69.3808 219.214 69.3991 219.121C69.4173 219.027 69.4054 218.931 69.3652 218.844C69.3391 218.765 69.2977 218.692 69.2433 218.629C69.1889 218.566 69.1226 218.514 69.0482 218.477C68.2557 218.039 66.2903 218.591 66.2079 218.61C66.1837 218.616 66.1622 218.63 66.1463 218.649C66.1304 218.669 66.1209 218.693 66.1191 218.718C66.1191 218.743 66.1262 218.767 66.1397 218.789C66.1532 218.81 66.1724 218.827 66.1952 218.838C66.6844 219.056 67.1914 219.232 67.7105 219.364ZM68.7122 218.603C68.7891 218.622 68.8636 218.65 68.9341 218.686C69.028 218.731 69.1008 218.81 69.137 218.908C69.1877 219.079 69.137 219.142 69.137 219.18C68.8327 219.44 67.5583 219.13 66.6517 218.762C67.3221 218.577 68.022 218.526 68.7122 218.61V218.603Z"
          fill="#30659A" />
    <path d="M66.2216 218.851H66.2723C66.9063 218.73 68.3645 217.957 68.3899 217.373C68.3899 217.234 68.3391 217.044 68.0158 216.93C67.9019 216.889 67.781 216.871 67.6601 216.877C67.5392 216.884 67.4209 216.915 67.3121 216.968C66.5639 217.329 66.1455 218.635 66.1265 218.686C66.1159 218.704 66.1104 218.725 66.1104 218.746C66.1104 218.767 66.1159 218.788 66.1265 218.806C66.1372 218.821 66.1516 218.833 66.1683 218.841C66.1849 218.849 66.2033 218.852 66.2216 218.851ZM67.87 217.145H67.9461C68.1553 217.221 68.1489 217.31 68.1489 217.335C68.1489 217.69 67.1346 218.331 66.4372 218.54C66.6127 217.992 66.9593 217.514 67.4262 217.177C67.5654 217.113 67.7231 217.102 67.87 217.145Z"
          fill="#30659A" />
    <path d="M65.5994 217.728L59.9885 216.118C59.8921 216.089 59.7886 216.095 59.696 216.134C59.6033 216.174 59.5274 216.244 59.4813 216.334L57.4145 220.436C57.3662 220.539 57.3414 220.653 57.3418 220.767C57.3422 220.882 57.3678 220.995 57.4169 221.098C57.4659 221.202 57.5371 221.293 57.6254 221.366C57.7138 221.439 57.8171 221.491 57.928 221.52C59.8934 222.046 60.8761 222.211 63.3424 222.915C64.8576 223.352 67.9452 224.404 70.0438 225.007C72.1423 225.609 72.9158 223.637 72.1043 223.206C68.4651 221.272 67.2985 219.713 66.3349 218.267C66.162 218.006 65.9011 217.814 65.5994 217.728Z"
          fill="#263238" />
    <path d="M102.517 222.718H96.9125C96.8117 222.717 96.7139 222.752 96.637 222.817C96.5601 222.883 96.5094 222.973 96.4941 223.073L95.6762 227.606C95.6579 227.719 95.6643 227.835 95.695 227.945C95.7257 228.056 95.78 228.158 95.8542 228.246C95.9283 228.333 96.0205 228.403 96.1244 228.452C96.2283 228.5 96.3415 228.525 96.456 228.525C98.4785 228.487 101.395 228.367 103.937 228.367C106.911 228.367 108.534 228.532 112.021 228.532C114.126 228.532 114.62 226.402 113.726 226.205C109.675 225.33 107.335 225.235 103.772 223.092C103.394 222.86 102.961 222.731 102.517 222.718Z"
          fill="#263238" />
    <path opacity="0.2" d="M102.575 211.426H97.4395V217.557H102.575V211.426Z"
          fill="black" />
    <path opacity="0.2"
          d="M63.5389 206.114L68.668 206.665L66.8104 213.069L61.8145 212.061L63.5389 206.114Z"
          fill="black" />
    <path d="M94.1292 93.1981C94.1292 93.1981 91.2952 131.961 88.7592 146.657C85.9632 162.754 69.6948 212.041 69.6948 212.041L60.375 210.336C60.375 210.336 72.123 164.054 73.4227 148.115C74.8365 130.82 76.5357 95.1698 76.5357 95.1698L94.1292 93.1981Z"
          fill="#30659A" />
    <path opacity="0.3"
          d="M89.3556 109.302C89.8628 107.171 91.0294 109.853 92.3862 114.5C91.3591 126.001 90.0213 139.322 88.7407 146.663C88.4554 148.305 88.0242 150.296 87.4727 152.553C87.9608 136.145 87.9799 115.065 89.3556 109.302Z"
          fill="black" />
    <path d="M103.81 92.1457C103.81 92.1457 107.531 131.111 107.658 146.765C107.791 163.052 104.438 216.372 104.438 216.372H95.7327C95.7327 216.372 93.1206 164.003 92.0365 148.007C90.8509 130.572 85.8613 94.1174 85.8613 94.1174L103.81 92.1457Z"
          fill="#30659A" />
    <path d="M71.6413 208.903C71.6794 208.903 70.1768 212.282 70.1768 212.282L59.6904 210.38L60.3244 207.242L71.6413 208.903Z"
          fill="#263238" />
    <path d="M105.96 212.904C105.998 212.904 105.624 216.517 105.624 216.517H95.0493L94.6182 213.297L105.96 212.904Z"
          fill="#263238" />
    <path d="M76.7892 57.4152C76.0918 58.7656 75.3247 60.1857 74.6273 61.5869L72.4971 65.8093C71.806 67.2168 71.1276 68.6306 70.4746 70.0444C69.8216 71.4583 69.2066 72.8657 68.6804 74.2732L68.6297 72.0542C69.0002 73.1937 69.445 74.3077 69.9611 75.3891C70.2083 75.947 70.5253 76.4795 70.7979 77.0311C71.0706 77.5827 71.4319 78.1089 71.7553 78.6288C72.428 79.7035 73.1559 80.7425 73.9362 81.7417C74.3293 82.2426 74.7224 82.7561 75.1408 83.238C75.5593 83.7198 76.0158 84.2207 76.4088 84.6328L76.5356 84.7723C76.8277 85.093 76.9961 85.5072 77.0105 85.9408C77.025 86.3744 76.8846 86.7989 76.6145 87.1384C76.3445 87.4779 75.9624 87.7101 75.5367 87.7935C75.111 87.8769 74.6695 87.806 74.2913 87.5936C73.6359 87.2245 73.001 86.8202 72.3893 86.3826C71.7553 85.9642 71.1974 85.5267 70.6268 85.0639C69.4845 84.127 68.4123 83.1077 67.4187 82.0144C66.4044 80.9033 65.4821 79.7117 64.6608 78.4513C63.8169 77.1672 63.0831 75.8141 62.4672 74.4064C62.1959 73.8089 62.1486 73.1338 62.334 72.5044L62.4228 72.2064C62.9046 70.5516 63.4435 68.9476 64.0395 67.3753C64.6355 65.803 65.2695 64.2624 65.9415 62.7471C66.6135 61.2318 67.3173 59.7356 68.0591 58.2584C68.8008 56.7812 69.549 55.3356 70.4049 53.8584C70.8779 53.013 71.6654 52.3884 72.5963 52.1203C73.5272 51.8522 74.5263 51.9623 75.3765 52.4266C76.2268 52.891 76.8594 53.6721 77.137 54.6002C77.4145 55.5284 77.3146 56.5286 76.859 57.3835L76.7892 57.4152Z"
          fill="#FF8B7B" />
    <path d="M80.4288 55.1581C80.6824 59.9955 75.1919 68.8778 75.1919 68.8778L63.8877 63.2289C65.2615 59.2222 67.3875 55.5145 70.1516 52.3051C76.1302 45.6988 80.1942 50.7201 80.4288 55.1581Z"
          fill="#263238" />
    <path d="M72.7695 86.6869L75.0456 90.4909L79.7816 87.4604C78.9544 85.978 77.6589 84.8118 76.098 84.1445C75.7371 84.0293 75.3468 84.0471 74.9979 84.1948C74.649 84.3425 74.3645 84.6103 74.196 84.9497L72.7695 86.6869Z"
          fill="#FF8B7B" />
    <path d="M76.9416 92.114L79.1415 91.7019C79.3267 91.6676 79.5033 91.5971 79.6611 91.4943C79.8189 91.3914 79.9547 91.2584 80.0608 91.1028C80.1669 90.9471 80.2412 90.7721 80.2792 90.5876C80.3173 90.4032 80.3185 90.213 80.2827 90.0281L79.7819 87.4921L75.0459 90.5226L75.3629 91.2898C75.4926 91.5866 75.7199 91.8302 76.007 91.9801C76.2941 92.13 76.6239 92.1772 76.9416 92.114Z"
          fill="#FF8B7B" />
    <path d="M90.2997 30.8505C90.3441 31.2626 90.604 31.586 90.8703 31.5606C91.1366 31.5352 91.3141 31.1865 91.2634 30.7744C91.2126 30.3623 90.959 30.039 90.6928 30.058C90.4265 30.077 90.249 30.4321 90.2997 30.8505Z"
          fill="#263238" />
    <path d="M90.5664 31.586C91.2076 32.8174 92.0069 33.9598 92.9439 34.9842C92.3099 35.726 91.0419 35.5104 91.0419 35.5104L90.5664 31.586Z"
          fill="#FF5652" />
    <path d="M88.5242 28.6632C88.5571 28.6681 88.5908 28.6655 88.6226 28.6556C88.6544 28.6457 88.6836 28.6288 88.708 28.6061C88.9279 28.4002 89.1949 28.2515 89.4856 28.1731C89.7763 28.0946 90.0819 28.0887 90.3755 28.156C90.4054 28.1655 90.437 28.1688 90.4683 28.1656C90.4996 28.1624 90.5299 28.1527 90.5573 28.1373C90.5847 28.1218 90.6086 28.1008 90.6275 28.0757C90.6464 28.0505 90.6599 28.0217 90.6671 27.9911C90.683 27.9281 90.6741 27.8614 90.6422 27.8048C90.6104 27.7482 90.558 27.7059 90.4959 27.6868C90.1252 27.5983 89.7386 27.6018 89.3695 27.6968C89.0005 27.7918 88.6602 27.9756 88.3784 28.232C88.3548 28.2545 88.336 28.2816 88.3232 28.3116C88.3103 28.3415 88.3037 28.3738 88.3037 28.4064C88.3037 28.439 88.3103 28.4712 88.3232 28.5012C88.336 28.5312 88.3548 28.5582 88.3784 28.5807C88.3959 28.6035 88.4179 28.6225 88.4429 28.6367C88.468 28.6508 88.4956 28.6598 88.5242 28.6632Z"
          fill="#263238" />
    <path d="M77.5186 35.4407C78.7295 39.1115 80.3399 45.8763 78.0448 48.5898C78.0448 48.5898 79.5537 52.2861 86.5023 51.6964C94.1547 51.0624 89.6723 47.6071 89.6723 47.6071C85.3738 46.9731 85.0822 43.8729 85.4372 40.9121L77.5186 35.4407Z"
          fill="#FF8B7B" />
    <path d="M76.402 49.9275C75.6856 48.78 74.8868 47.4676 76.2435 46.9795C77.7334 46.4406 86.1022 45.5656 89.082 46.3011C92.0618 47.0365 91.4532 49.4711 91.4532 49.4711L76.402 49.9275Z"
          fill="#30659A" />
    <path d="M100.906 51.4745C101.997 52.4762 103.176 53.5857 104.349 54.6001C105.522 55.6145 106.707 56.6543 107.899 57.656C109.091 58.6577 110.309 59.6024 111.532 60.5217C112.756 61.441 113.998 62.2779 115.241 63.0577L112.705 62.8168C113.759 62.5357 114.756 62.0745 115.653 61.4537C116.701 60.7212 117.674 59.8866 118.557 58.9621C119.509 57.9881 120.4 56.957 121.226 55.8745C121.651 55.3229 122.076 54.765 122.494 54.188C122.912 53.6111 123.293 53.0024 123.642 52.4699L123.711 52.3685C123.952 52.0007 124.317 51.7317 124.74 51.6107C125.162 51.4896 125.614 51.5245 126.013 51.709C126.412 51.8935 126.732 52.2153 126.913 52.6157C127.095 53.0161 127.126 53.4684 127.002 53.8901C126.761 54.7143 126.507 55.418 126.216 56.1534C125.924 56.8889 125.62 57.6116 125.277 58.3217C124.583 59.7702 123.771 61.1591 122.849 62.4744C121.881 63.8692 120.754 65.1459 119.489 66.2784C118.089 67.528 116.465 68.5004 114.702 69.1441C114.324 69.2774 113.923 69.3343 113.522 69.3115C113.122 69.2886 112.73 69.1865 112.369 69.011L112.16 68.9032C110.586 68.1295 109.057 67.2658 107.582 66.3165C106.143 65.3845 104.748 64.4145 103.404 63.3747C102.06 62.3349 100.76 61.2825 99.4925 60.2047C98.2245 59.1269 97.0072 57.9984 95.7709 56.7367C95.113 56.0505 94.7465 55.1363 94.7481 54.1857C94.7496 53.2351 95.1193 52.322 95.7795 51.6381C96.4397 50.9541 97.339 50.5524 98.289 50.5172C99.2389 50.482 100.166 50.816 100.875 51.4491L100.906 51.4745Z"
          fill="#FF8B7B" />
    <path d="M97.0325 48.1841C97.0325 48.1841 103.423 54.3846 104.165 92.7353C93.945 95.2142 84.1116 96.1272 76.5163 95.1635C76.1549 90.3514 75.616 73.6519 70.7342 56.0457C70.5245 55.3041 70.4713 54.5271 70.5778 53.7639C70.6844 53.0007 70.9484 52.2679 71.3532 51.6121C71.758 50.9564 72.2947 50.3919 72.9292 49.9546C73.5637 49.5173 74.2822 49.2166 75.0391 49.0717C76.0091 48.8815 77.0298 48.7103 78.0442 48.5772C81.8979 48.0259 85.7803 47.6978 89.6718 47.5945C92.1363 47.6146 94.5962 47.8116 97.0325 48.1841Z"
          fill="#263238" />
    <path d="M92.0756 54.8665C92.7096 59.6659 100.952 68.8906 100.952 68.8906L110.734 58.7466C107.828 55.6957 104.687 52.8784 101.338 50.3207C94.1678 44.9634 91.505 50.4158 92.0756 54.8665Z"
          fill="#263238" />
    <path d="M126.367 55.5766L129.639 52.5778L125.721 48.5519C124.425 49.6555 123.533 51.1587 123.185 52.825C123.146 53.206 123.247 53.5879 123.469 53.9002C123.69 54.2126 124.017 54.4342 124.389 54.5242L126.367 55.5766Z"
          fill="#FF8B7B" />
    <path d="M130.844 50.3968L130.001 48.3236C129.93 48.1457 129.823 47.984 129.688 47.8479C129.553 47.7119 129.392 47.6044 129.215 47.5316C129.038 47.4589 128.848 47.4225 128.656 47.4246C128.464 47.4267 128.275 47.4672 128.099 47.5438L125.696 48.5518L129.614 52.5777L130.299 52.1149C130.574 51.9351 130.778 51.6659 130.878 51.3529C130.977 51.0399 130.965 50.7022 130.844 50.3968Z"
          fill="#FF8B7B" />
    <path d="M76.5429 31.0662C77.4622 36.1382 77.7412 39.1433 80.5942 41.5589C84.8864 45.1917 90.8079 42.364 91.3722 37.1843C91.9047 32.518 90.3134 25.0051 85.1526 23.3694C79.9919 21.7337 75.6236 25.9942 76.5429 31.0662Z"
          fill="#FF8B7B" />
    <path d="M86.5411 32.892C88.3226 33.2977 89.7111 31.2372 89.9013 30.6539C89.0327 30.7364 87.4921 30.2926 87.1877 29.8995C88.1387 29.9819 89.058 28.809 89.1721 28.3589C88.1632 28.164 87.2696 27.5842 86.6805 26.7422C88.2212 26.7105 90.0724 23.9969 88.3796 21.5687C86.6869 19.1405 79.6114 21.1756 78.6161 19.4448C77.1325 20.3071 78.4512 21.4546 78.4512 21.4546C78.4512 21.4546 68.4404 23.3566 73.0559 27.2177C69.6703 27.522 69.1948 31.5225 72.0161 33.5577C74.8374 35.5928 74.9832 36.9369 73.8611 36.772C74.3112 37.6343 76.321 37.7484 76.4351 36.9115C76.9106 38.6677 78.28 41.0452 81.4374 40.6585C84.5947 40.2717 87.6886 35.8527 86.5411 32.892Z"
          fill="#263238" />
    <path d="M73.9303 26.628C71.5465 26.9577 70.4623 25.6136 71.0583 24.428C68.1039 25.937 71.3309 29.2718 73.9303 26.628Z"
          fill="#263238" />
    <path d="M84.074 32.1185C84.4843 33.1811 85.2099 34.0926 86.1535 34.7306C87.4215 35.5675 88.569 34.7306 88.3535 33.4626C88.1569 32.2961 87.263 30.4511 85.9443 30.1214C85.6712 30.0318 85.3781 30.022 85.0997 30.0933C84.8212 30.1646 84.5689 30.3139 84.3724 30.5237C84.1759 30.7335 84.0435 30.9951 83.9906 31.2776C83.9377 31.5601 83.9667 31.8519 84.074 32.1185Z"
          fill="#FF8B7B" />
</svg>
