<svg width="360" height="258" viewBox="30 0 360 258" fill="none"
     xmlns="http://www.w3.org/2000/svg">
    <g opacity="0.4">
        <path d="M511.429 177.294V168.527H507.469V136.288H505.094V135.723H501.134V103.484H498.303V108.233H451.883V93.8113H443.962V42.6255H440.857V93.8113H429.822V108.233H424.733V176.107H400.979V155.741H409.464V151.78H400.979V146.691H378.354V94.6582H372.7V86.7458H346.115V94.6582H342.163V166.493H329.717V199.861H323.341V173.276H317.969V166.493H305.532V143.303H298.715V126.897H290.338V103.002H287.349V126.897H278.972V143.303H272.163V166.493H259.718V173.276H254.346V199.861H246.184V130.011H243.187V153.765H232.435V199.861H228.475V112.193H224.523V79.9542H221.692V91.362L201.275 100.885V112.193H191.719V199.861H190.324V277.989H519.441V177.294H511.429Z"
              fill="#E9E9E9" />
        <path d="M302.727 147.412H299.522V150.616H302.727V147.412Z"
              fill="#F0F0F0" />
        <path d="M302.727 152.785H299.522V155.989H302.727V152.785Z"
              fill="#F0F0F0" />
        <path d="M302.727 158.155H299.522V161.36H302.727V158.155Z"
              fill="#F0F0F0" />
        <path d="M302.727 163.536H299.522V166.74H302.727V163.536Z"
              fill="#F0F0F0" />
        <path d="M302.727 168.908H299.522V172.113H302.727V168.908Z"
              fill="#F0F0F0" />
        <path d="M302.727 174.28H299.522V177.485H302.727V174.28Z"
              fill="#F0F0F0" />
        <path d="M302.727 179.651H299.522V182.856H302.727V179.651Z"
              fill="#F0F0F0" />
        <path d="M302.727 195.768H299.522V198.972H302.727V195.768Z"
              fill="#F0F0F0" />
        <path d="M302.727 201.147H299.522V204.352H302.727V201.147Z"
              fill="#F0F0F0" />
        <path d="M302.727 206.52H299.522V209.724H302.727V206.52Z"
              fill="#F0F0F0" />
        <path d="M297.636 147.412H294.432V150.616H297.636V147.412Z"
              fill="#F0F0F0" />
        <path d="M297.636 152.785H294.432V155.989H297.636V152.785Z"
              fill="#F0F0F0" />
        <path d="M297.636 158.155H294.432V161.36H297.636V158.155Z"
              fill="#F0F0F0" />
        <path d="M297.636 163.536H294.432V166.74H297.636V163.536Z"
              fill="#F0F0F0" />
        <path d="M297.636 168.908H294.432V172.113H297.636V168.908Z"
              fill="#F0F0F0" />
        <path d="M297.636 174.28H294.432V177.485H297.636V174.28Z"
              fill="#F0F0F0" />
        <path d="M297.636 179.651H294.432V182.856H297.636V179.651Z"
              fill="#F0F0F0" />
        <path d="M292.548 147.412H289.343V150.616H292.548V147.412Z"
              fill="#F0F0F0" />
        <path d="M292.548 152.785H289.343V155.989H292.548V152.785Z"
              fill="#F0F0F0" />
        <path d="M292.548 158.155H289.343V161.36H292.548V158.155Z"
              fill="#F0F0F0" />
        <path d="M292.548 163.536H289.343V166.74H292.548V163.536Z"
              fill="#F0F0F0" />
        <path d="M292.548 168.908H289.343V172.113H292.548V168.908Z"
              fill="#F0F0F0" />
        <path d="M292.548 174.28H289.343V177.485H292.548V174.28Z"
              fill="#F0F0F0" />
        <path d="M292.548 179.651H289.343V182.856H292.548V179.651Z"
              fill="#F0F0F0" />
        <path d="M287.458 147.412H284.253V150.616H287.458V147.412Z"
              fill="#F0F0F0" />
        <path d="M287.458 152.785H284.253V155.989H287.458V152.785Z"
              fill="#F0F0F0" />
        <path d="M287.458 158.155H284.253V161.36H287.458V158.155Z"
              fill="#F0F0F0" />
        <path d="M287.458 163.536H284.253V166.74H287.458V163.536Z"
              fill="#F0F0F0" />
        <path d="M287.458 168.908H284.253V172.113H287.458V168.908Z"
              fill="#F0F0F0" />
        <path d="M287.458 174.28H284.253V177.485H287.458V174.28Z"
              fill="#F0F0F0" />
        <path d="M287.458 179.651H284.253V182.856H287.458V179.651Z"
              fill="#F0F0F0" />
        <path d="M287.458 185.023H284.253V188.228H287.458V185.023Z"
              fill="#F0F0F0" />
        <path d="M287.458 190.395H284.253V193.6H287.458V190.395Z"
              fill="#F0F0F0" />
        <path d="M287.458 195.768H284.253V198.972H287.458V195.768Z"
              fill="#F0F0F0" />
        <path d="M287.458 201.147H284.253V204.352H287.458V201.147Z"
              fill="#F0F0F0" />
        <path d="M282.369 147.412H279.164V150.616H282.369V147.412Z"
              fill="#F0F0F0" />
        <path d="M282.369 152.785H279.164V155.989H282.369V152.785Z"
              fill="#F0F0F0" />
        <path d="M282.369 158.155H279.164V161.36H282.369V158.155Z"
              fill="#F0F0F0" />
        <path d="M282.369 163.536H279.164V166.74H282.369V163.536Z"
              fill="#F0F0F0" />
        <path d="M282.369 168.908H279.164V172.113H282.369V168.908Z"
              fill="#F0F0F0" />
        <path d="M282.369 174.28H279.164V177.485H282.369V174.28Z"
              fill="#F0F0F0" />
        <path d="M282.369 179.651H279.164V182.856H282.369V179.651Z"
              fill="#F0F0F0" />
        <path d="M282.369 185.023H279.164V188.228H282.369V185.023Z"
              fill="#F0F0F0" />
        <path d="M282.369 190.395H279.164V193.6H282.369V190.395Z"
              fill="#F0F0F0" />
        <path d="M282.369 195.768H279.164V198.972H282.369V195.768Z"
              fill="#F0F0F0" />
        <path d="M282.369 201.147H279.164V204.352H282.369V201.147Z"
              fill="#F0F0F0" />
        <path d="M282.369 206.52H279.164V209.724H282.369V206.52Z"
              fill="#F0F0F0" />
        <path d="M282.369 222.635H279.164V225.84H282.369V222.635Z"
              fill="#F0F0F0" />
        <path d="M282.369 228.007H279.164V231.212H282.369V228.007Z"
              fill="#F0F0F0" />
        <path d="M277.279 147.412H274.074V150.616H277.279V147.412Z"
              fill="#F0F0F0" />
        <path d="M277.279 152.785H274.074V155.989H277.279V152.785Z"
              fill="#F0F0F0" />
        <path d="M277.279 158.155H274.074V161.36H277.279V158.155Z"
              fill="#F0F0F0" />
        <path d="M277.279 174.28H274.074V177.485H277.279V174.28Z"
              fill="#F0F0F0" />
        <path d="M277.279 179.651H274.074V182.856H277.279V179.651Z"
              fill="#F0F0F0" />
        <path d="M277.279 185.023H274.074V188.228H277.279V185.023Z"
              fill="#F0F0F0" />
        <path d="M277.279 190.395H274.074V193.6H277.279V190.395Z"
              fill="#F0F0F0" />
        <path d="M277.279 195.768H274.074V198.972H277.279V195.768Z"
              fill="#F0F0F0" />
        <path d="M277.279 201.147H274.074V204.352H277.279V201.147Z"
              fill="#F0F0F0" />
        <path d="M277.279 206.52H274.074V209.724H277.279V206.52Z"
              fill="#F0F0F0" />
        <path d="M277.279 222.635H274.074V225.84H277.279V222.635Z"
              fill="#F0F0F0" />
        <path d="M277.279 228.007H274.074V231.212H277.279V228.007Z"
              fill="#F0F0F0" />
        <path d="M277.279 233.387H274.074V236.592H277.279V233.387Z"
              fill="#F0F0F0" />
        <path d="M223.926 115.172H220.722V118.377H223.926V115.172Z"
              fill="#F0F0F0" />
        <path d="M223.926 120.545H220.722V123.75H223.926V120.545Z"
              fill="#F0F0F0" />
        <path d="M223.926 125.925H220.722V129.13H223.926V125.925Z"
              fill="#F0F0F0" />
        <path d="M223.926 131.296H220.722V134.501H223.926V131.296Z"
              fill="#F0F0F0" />
        <path d="M223.926 136.668H220.722V139.873H223.926V136.668Z"
              fill="#F0F0F0" />
        <path d="M223.926 142.04H220.722V145.245H223.926V142.04Z"
              fill="#F0F0F0" />
        <path d="M223.926 147.412H220.722V150.616H223.926V147.412Z"
              fill="#F0F0F0" />
        <path d="M223.926 152.785H220.722V155.989H223.926V152.785Z"
              fill="#F0F0F0" />
        <path d="M223.926 158.155H220.722V161.36H223.926V158.155Z"
              fill="#F0F0F0" />
        <path d="M223.926 163.536H220.722V166.74H223.926V163.536Z"
              fill="#F0F0F0" />
        <path d="M223.926 168.908H220.722V172.113H223.926V168.908Z"
              fill="#F0F0F0" />
        <path d="M223.926 174.28H220.722V177.485H223.926V174.28Z"
              fill="#F0F0F0" />
        <path d="M223.926 179.651H220.722V182.856H223.926V179.651Z"
              fill="#F0F0F0" />
        <path d="M223.926 185.023H220.722V188.228H223.926V185.023Z"
              fill="#F0F0F0" />
        <path d="M223.926 190.395H220.722V193.6H223.926V190.395Z"
              fill="#F0F0F0" />
        <path d="M223.926 195.768H220.722V198.972H223.926V195.768Z"
              fill="#F0F0F0" />
        <path d="M223.926 201.147H220.722V204.352H223.926V201.147Z"
              fill="#F0F0F0" />
        <path d="M223.926 206.52H220.722V209.724H223.926V206.52Z"
              fill="#F0F0F0" />
        <path d="M223.926 211.89H220.722V215.095H223.926V211.89Z"
              fill="#F0F0F0" />
        <path d="M223.926 217.262H220.722V220.467H223.926V217.262Z"
              fill="#F0F0F0" />
        <path d="M223.926 222.635H220.722V225.84H223.926V222.635Z"
              fill="#F0F0F0" />
        <path d="M223.926 228.007H220.722V231.212H223.926V228.007Z"
              fill="#F0F0F0" />
        <path d="M223.926 233.387H220.722V236.592H223.926V233.387Z"
              fill="#F0F0F0" />
        <path d="M218.838 115.172H215.633V118.377H218.838V115.172Z"
              fill="#F0F0F0" />
        <path d="M218.838 120.545H215.633V123.75H218.838V120.545Z"
              fill="#F0F0F0" />
        <path d="M218.838 125.925H215.633V129.13H218.838V125.925Z"
              fill="#F0F0F0" />
        <path d="M218.838 131.296H215.633V134.501H218.838V131.296Z"
              fill="#F0F0F0" />
        <path d="M218.838 136.668H215.633V139.873H218.838V136.668Z"
              fill="#F0F0F0" />
        <path d="M218.838 142.04H215.633V145.245H218.838V142.04Z"
              fill="#F0F0F0" />
        <path d="M218.838 147.412H215.633V150.616H218.838V147.412Z"
              fill="#F0F0F0" />
        <path d="M218.838 152.785H215.633V155.989H218.838V152.785Z"
              fill="#F0F0F0" />
        <path d="M218.838 158.155H215.633V161.36H218.838V158.155Z"
              fill="#F0F0F0" />
        <path d="M218.838 163.536H215.633V166.74H218.838V163.536Z"
              fill="#F0F0F0" />
        <path d="M218.838 168.908H215.633V172.113H218.838V168.908Z"
              fill="#F0F0F0" />
        <path d="M218.838 174.28H215.633V177.485H218.838V174.28Z"
              fill="#F0F0F0" />
        <path d="M218.838 179.651H215.633V182.856H218.838V179.651Z"
              fill="#F0F0F0" />
        <path d="M218.838 185.023H215.633V188.228H218.838V185.023Z"
              fill="#F0F0F0" />
        <path d="M218.838 190.395H215.633V193.6H218.838V190.395Z"
              fill="#F0F0F0" />
        <path d="M218.838 195.768H215.633V198.972H218.838V195.768Z"
              fill="#F0F0F0" />
        <path d="M218.838 201.147H215.633V204.352H218.838V201.147Z"
              fill="#F0F0F0" />
        <path d="M218.838 206.52H215.633V209.724H218.838V206.52Z"
              fill="#F0F0F0" />
        <path d="M218.838 211.89H215.633V215.095H218.838V211.89Z"
              fill="#F0F0F0" />
        <path d="M213.748 115.172H210.543V118.377H213.748V115.172Z"
              fill="#F0F0F0" />
        <path d="M213.748 120.545H210.543V123.75H213.748V120.545Z"
              fill="#F0F0F0" />
        <path d="M213.748 125.925H210.543V129.13H213.748V125.925Z"
              fill="#F0F0F0" />
        <path d="M213.748 131.296H210.543V134.501H213.748V131.296Z"
              fill="#F0F0F0" />
        <path d="M213.748 136.668H210.543V139.873H213.748V136.668Z"
              fill="#F0F0F0" />
        <path d="M213.748 142.04H210.543V145.245H213.748V142.04Z"
              fill="#F0F0F0" />
        <path d="M213.748 147.412H210.543V150.616H213.748V147.412Z"
              fill="#F0F0F0" />
        <path d="M213.748 152.785H210.543V155.989H213.748V152.785Z"
              fill="#F0F0F0" />
        <path d="M213.748 158.155H210.543V161.36H213.748V158.155Z"
              fill="#F0F0F0" />
        <path d="M213.748 163.536H210.543V166.74H213.748V163.536Z"
              fill="#F0F0F0" />
        <path d="M213.748 168.908H210.543V172.113H213.748V168.908Z"
              fill="#F0F0F0" />
        <path d="M213.748 174.28H210.543V177.485H213.748V174.28Z"
              fill="#F0F0F0" />
        <path d="M213.748 179.651H210.543V182.856H213.748V179.651Z"
              fill="#F0F0F0" />
        <path d="M213.748 185.023H210.543V188.228H213.748V185.023Z"
              fill="#F0F0F0" />
        <path d="M213.748 190.395H210.543V193.6H213.748V190.395Z"
              fill="#F0F0F0" />
        <path d="M213.748 195.768H210.543V198.972H213.748V195.768Z"
              fill="#F0F0F0" />
        <path d="M213.748 201.147H210.543V204.352H213.748V201.147Z"
              fill="#F0F0F0" />
        <path d="M213.748 206.52H210.543V209.724H213.748V206.52Z"
              fill="#F0F0F0" />
        <path d="M213.748 211.89H210.543V215.095H213.748V211.89Z"
              fill="#F0F0F0" />
        <path d="M208.657 115.172H205.452V118.377H208.657V115.172Z"
              fill="#F0F0F0" />
        <path d="M208.657 120.545H205.452V123.75H208.657V120.545Z"
              fill="#F0F0F0" />
        <path d="M208.657 125.925H205.452V129.13H208.657V125.925Z"
              fill="#F0F0F0" />
        <path d="M208.657 131.296H205.452V134.501H208.657V131.296Z"
              fill="#F0F0F0" />
        <path d="M208.657 136.668H205.452V139.873H208.657V136.668Z"
              fill="#F0F0F0" />
        <path d="M208.657 142.04H205.452V145.245H208.657V142.04Z"
              fill="#F0F0F0" />
        <path d="M208.657 147.412H205.452V150.616H208.657V147.412Z"
              fill="#F0F0F0" />
        <path d="M208.657 152.785H205.452V155.989H208.657V152.785Z"
              fill="#F0F0F0" />
        <path d="M208.657 158.155H205.452V161.36H208.657V158.155Z"
              fill="#F0F0F0" />
        <path d="M208.657 163.536H205.452V166.74H208.657V163.536Z"
              fill="#F0F0F0" />
        <path d="M208.657 168.908H205.452V172.113H208.657V168.908Z"
              fill="#F0F0F0" />
        <path d="M208.657 174.28H205.452V177.485H208.657V174.28Z"
              fill="#F0F0F0" />
        <path d="M208.657 179.651H205.452V182.856H208.657V179.651Z"
              fill="#F0F0F0" />
        <path d="M208.657 185.023H205.452V188.228H208.657V185.023Z"
              fill="#F0F0F0" />
        <path d="M208.657 190.395H205.452V193.6H208.657V190.395Z"
              fill="#F0F0F0" />
        <path d="M203.568 115.172H200.363V118.377H203.568V115.172Z"
              fill="#F0F0F0" />
        <path d="M203.568 120.545H200.363V123.75H203.568V120.545Z"
              fill="#F0F0F0" />
        <path d="M203.568 125.925H200.363V129.13H203.568V125.925Z"
              fill="#F0F0F0" />
        <path d="M203.568 131.296H200.363V134.501H203.568V131.296Z"
              fill="#F0F0F0" />
        <path d="M203.568 136.668H200.363V139.873H203.568V136.668Z"
              fill="#F0F0F0" />
        <path d="M203.568 142.04H200.363V145.245H203.568V142.04Z"
              fill="#F0F0F0" />
        <path d="M203.568 147.412H200.363V150.616H203.568V147.412Z"
              fill="#F0F0F0" />
        <path d="M203.568 152.785H200.363V155.989H203.568V152.785Z"
              fill="#F0F0F0" />
        <path d="M203.568 158.155H200.363V161.36H203.568V158.155Z"
              fill="#F0F0F0" />
        <path d="M203.568 163.536H200.363V166.74H203.568V163.536Z"
              fill="#F0F0F0" />
        <path d="M203.568 168.908H200.363V172.113H203.568V168.908Z"
              fill="#F0F0F0" />
        <path d="M203.568 174.28H200.363V177.485H203.568V174.28Z"
              fill="#F0F0F0" />
        <path d="M203.568 179.651H200.363V182.856H203.568V179.651Z"
              fill="#F0F0F0" />
        <path d="M198.471 115.172H195.266V118.377H198.471V115.172Z"
              fill="#F0F0F0" />
        <path d="M198.471 120.545H195.266V123.75H198.471V120.545Z"
              fill="#F0F0F0" />
        <path d="M198.471 125.925H195.266V129.13H198.471V125.925Z"
              fill="#F0F0F0" />
        <path d="M198.471 131.296H195.266V134.501H198.471V131.296Z"
              fill="#F0F0F0" />
        <path d="M198.471 136.668H195.266V139.873H198.471V136.668Z"
              fill="#F0F0F0" />
        <path d="M198.471 142.04H195.266V145.245H198.471V142.04Z"
              fill="#F0F0F0" />
        <path d="M198.471 147.412H195.266V150.616H198.471V147.412Z"
              fill="#F0F0F0" />
        <path d="M198.471 152.785H195.266V155.989H198.471V152.785Z"
              fill="#F0F0F0" />
        <path d="M198.471 158.155H195.266V161.36H198.471V158.155Z"
              fill="#F0F0F0" />
        <path d="M198.471 163.536H195.266V166.74H198.471V163.536Z"
              fill="#F0F0F0" />
        <path d="M198.471 168.908H195.266V172.113H198.471V168.908Z"
              fill="#F0F0F0" />
        <path d="M198.471 174.28H195.266V177.485H198.471V174.28Z"
              fill="#F0F0F0" />
        <path d="M243.155 158.155H239.95V161.36H243.155V158.155Z"
              fill="#F0F0F0" />
        <path d="M243.155 163.536H239.95V166.74H243.155V163.536Z"
              fill="#F0F0F0" />
        <path d="M243.155 168.908H239.95V172.113H243.155V168.908Z"
              fill="#F0F0F0" />
        <path d="M243.155 174.28H239.95V177.485H243.155V174.28Z"
              fill="#F0F0F0" />
        <path d="M243.155 179.651H239.95V182.856H243.155V179.651Z"
              fill="#F0F0F0" />
        <path d="M243.155 185.023H239.95V188.228H243.155V185.023Z"
              fill="#F0F0F0" />
        <path d="M243.155 190.395H239.95V193.6H243.155V190.395Z"
              fill="#F0F0F0" />
        <path d="M243.155 195.768H239.95V198.972H243.155V195.768Z"
              fill="#F0F0F0" />
        <path d="M243.155 201.147H239.95V204.352H243.155V201.147Z"
              fill="#F0F0F0" />
        <path d="M243.155 206.52H239.95V209.724H243.155V206.52Z"
              fill="#F0F0F0" />
        <path d="M243.155 211.89H239.95V215.095H243.155V211.89Z"
              fill="#F0F0F0" />
        <path d="M243.155 222.635H239.95V225.84H243.155V222.635Z"
              fill="#F0F0F0" />
        <path d="M243.155 228.007H239.95V231.212H243.155V228.007Z"
              fill="#F0F0F0" />
        <path d="M243.155 233.387H239.95V236.592H243.155V233.387Z"
              fill="#F0F0F0" />
        <path d="M243.155 238.758H239.95V241.963H243.155V238.758Z"
              fill="#F0F0F0" />
        <path d="M243.155 244.13H239.95V247.335H243.155V244.13Z"
              fill="#F0F0F0" />
        <path d="M238.067 158.155H234.862V161.36H238.067V158.155Z"
              fill="#F0F0F0" />
        <path d="M238.067 163.536H234.862V166.74H238.067V163.536Z"
              fill="#F0F0F0" />
        <path d="M238.067 168.908H234.862V172.113H238.067V168.908Z"
              fill="#F0F0F0" />
        <path d="M238.067 174.28H234.862V177.485H238.067V174.28Z"
              fill="#F0F0F0" />
        <path d="M238.067 179.651H234.862V182.856H238.067V179.651Z"
              fill="#F0F0F0" />
        <path d="M238.067 185.023H234.862V188.228H238.067V185.023Z"
              fill="#F0F0F0" />
        <path d="M238.067 190.395H234.862V193.6H238.067V190.395Z"
              fill="#F0F0F0" />
        <path d="M238.067 195.768H234.862V198.972H238.067V195.768Z"
              fill="#F0F0F0" />
        <path d="M238.067 201.147H234.862V204.352H238.067V201.147Z"
              fill="#F0F0F0" />
        <path d="M238.067 206.52H234.862V209.724H238.067V206.52Z"
              fill="#F0F0F0" />
        <path d="M238.067 211.89H234.862V215.095H238.067V211.89Z"
              fill="#F0F0F0" />
        <path d="M238.067 217.262H234.862V220.467H238.067V217.262Z"
              fill="#F0F0F0" />
        <path d="M238.067 222.635H234.862V225.84H238.067V222.635Z"
              fill="#F0F0F0" />
        <path d="M238.067 228.007H234.862V231.212H238.067V228.007Z"
              fill="#F0F0F0" />
        <path d="M238.067 233.387H234.862V236.592H238.067V233.387Z"
              fill="#F0F0F0" />
        <path d="M238.067 238.758H234.862V241.963H238.067V238.758Z"
              fill="#F0F0F0" />
        <path d="M238.067 244.13H234.862V247.335H238.067V244.13Z"
              fill="#F0F0F0" />
        <path d="M268.23 179.087H265.025V182.292H268.23V179.087Z"
              fill="#F0F0F0" />
        <path d="M268.23 184.459H265.025V187.664H268.23V184.459Z"
              fill="#F0F0F0" />
        <path d="M268.23 189.831H265.025V193.036H268.23V189.831Z"
              fill="#F0F0F0" />
        <path d="M268.23 195.203H265.025V198.407H268.23V195.203Z"
              fill="#F0F0F0" />
        <path d="M268.23 200.583H265.025V203.788H268.23V200.583Z"
              fill="#F0F0F0" />
        <path d="M268.23 205.954H265.025V209.158H268.23V205.954Z"
              fill="#F0F0F0" />
        <path d="M268.23 211.326H265.025V214.531H268.23V211.326Z"
              fill="#F0F0F0" />
        <path d="M268.23 216.698H265.025V219.903H268.23V216.698Z"
              fill="#F0F0F0" />
        <path d="M268.23 222.071H265.025V225.276H268.23V222.071Z"
              fill="#F0F0F0" />
        <path d="M268.23 227.441H265.025V230.646H268.23V227.441Z"
              fill="#F0F0F0" />
        <path d="M263.14 179.087H259.936V182.292H263.14V179.087Z"
              fill="#F0F0F0" />
        <path d="M263.14 184.459H259.936V187.664H263.14V184.459Z"
              fill="#F0F0F0" />
        <path d="M263.14 189.831H259.936V193.036H263.14V189.831Z"
              fill="#F0F0F0" />
        <path d="M263.14 195.203H259.936V198.407H263.14V195.203Z"
              fill="#F0F0F0" />
        <path d="M263.14 200.583H259.936V203.788H263.14V200.583Z"
              fill="#F0F0F0" />
        <path d="M263.14 205.954H259.936V209.158H263.14V205.954Z"
              fill="#F0F0F0" />
        <path d="M263.14 211.326H259.936V214.531H263.14V211.326Z"
              fill="#F0F0F0" />
        <path d="M263.14 216.698H259.936V219.903H263.14V216.698Z"
              fill="#F0F0F0" />
        <path d="M263.14 222.071H259.936V225.276H263.14V222.071Z"
              fill="#F0F0F0" />
        <path d="M340.949 51.8607C340.955 50.2179 340.576 48.5966 339.842 47.1266C339.109 45.6567 338.041 44.3789 336.725 43.3956C335.409 42.4123 333.881 41.7509 332.263 41.4643C330.646 41.1777 328.983 41.2738 327.41 41.7451C327.913 38.2397 327.572 34.665 326.417 31.3174C325.262 27.9699 323.325 24.9461 320.768 22.4968C318.21 20.0476 315.105 18.2436 311.711 17.2345C308.316 16.2254 304.73 16.0403 301.25 16.6945C299.054 13.0867 295.745 10.2907 291.822 8.72813C287.898 7.1656 283.573 6.92135 279.498 8.03223C275.424 9.1431 271.821 11.5489 269.233 14.8866C266.646 18.2243 265.214 22.313 265.153 26.5358H264.831C260.073 26.5358 255.51 28.426 252.145 31.7906C248.78 35.1552 246.89 39.7185 246.89 44.4768C246.89 49.235 248.78 53.7984 252.145 57.163C255.51 60.5275 260.073 62.4177 264.831 62.4177H330.702C333.451 62.3461 336.062 61.2011 337.978 59.228C339.893 57.2549 340.959 54.6104 340.949 51.8607Z"
              fill="white" />
        <path d="M17.8793 228.904H-0.0859375V277.444H17.8793V228.904Z"
              fill="#FAFAFA" />
        <path d="M29.3671 188.906H11.4019V277.444H29.3671V188.906Z"
              fill="#FAFAFA" />
        <path d="M41.308 117.113H23.3428V277.444H41.308V117.113Z"
              fill="#FAFAFA" />
        <path d="M85.7456 129.595H37.5361V277.444H85.7456V129.595Z"
              fill="#FAFAFA" />
        <path d="M273.188 277.444H293.712V234.887H273.188V277.444Z"
              fill="#FAFAFA" />
        <path d="M255.205 277.444H275.729V244.226H255.205V277.444Z"
              fill="#FAFAFA" />
        <path d="M242.088 277.444H262.612V216.846H242.088V277.444Z"
              fill="#FAFAFA" />
        <path d="M228.443 277.444H248.968V167.712H228.443V277.444Z"
              fill="#FAFAFA" />
        <path d="M239.477 143.391H176.488V277.444H239.477V143.391Z"
              fill="#F0F0F0" />
        <path d="M233.476 149.009H230.476V165.322H233.476V149.009Z"
              fill="#F5F5F5" />
        <path d="M233.476 174.525H230.476V190.838H233.476V174.525Z"
              fill="#F5F5F5" />
        <path d="M233.476 200.032H230.476V216.345H233.476V200.032Z"
              fill="#F5F5F5" />
        <path d="M233.476 225.54H230.476V241.853H233.476V225.54Z"
              fill="#F5F5F5" />
        <path d="M222.851 149.009H219.852V165.322H222.851V149.009Z"
              fill="#F5F5F5" />
        <path d="M222.851 174.525H219.852V190.838H222.851V174.525Z"
              fill="#F5F5F5" />
        <path d="M222.851 200.032H219.852V216.345H222.851V200.032Z"
              fill="#F5F5F5" />
        <path d="M222.851 225.54H219.852V241.853H222.851V225.54Z"
              fill="#F5F5F5" />
        <path d="M212.226 149.009H209.226V165.322H212.226V149.009Z"
              fill="#F5F5F5" />
        <path d="M212.226 174.525H209.226V190.838H212.226V174.525Z"
              fill="#F5F5F5" />
        <path d="M212.226 200.032H209.226V216.345H212.226V200.032Z"
              fill="#F5F5F5" />
        <path d="M212.226 225.54H209.226V241.853H212.226V225.54Z"
              fill="#F5F5F5" />
        <path d="M201.596 149.009H198.596V165.322H201.596V149.009Z"
              fill="#F5F5F5" />
        <path d="M201.596 174.525H198.596V190.838H201.596V174.525Z"
              fill="#F5F5F5" />
        <path d="M201.596 200.032H198.596V216.345H201.596V200.032Z"
              fill="#F5F5F5" />
        <path d="M201.596 225.54H198.596V241.853H201.596V225.54Z"
              fill="#F5F5F5" />
        <path d="M190.963 149.009H187.963V165.322H190.963V149.009Z"
              fill="#F5F5F5" />
        <path d="M190.963 174.525H187.963V190.838H190.963V174.525Z"
              fill="#F5F5F5" />
        <path d="M190.963 200.032H187.963V216.345H190.963V200.032Z"
              fill="#F5F5F5" />
        <path d="M190.963 225.54H187.963V241.853H190.963V225.54Z"
              fill="#F5F5F5" />
        <path opacity="0.5"
              d="M176.488 143.391H189.462L195.106 277.444H176.488V143.391Z"
              fill="#E0E0E0" />
        <path d="M145.524 91.5972L182.878 98.6646V277.444H145.524V91.5972Z"
              fill="#F0F0F0" />
        <path d="M145.525 91.5972H115.636V277.444H145.525V91.5972Z"
              fill="#E6E6E6" />
        <path d="M115.637 107.953L182.879 107.953V107.004L115.637 107.004V107.953Z"
              fill="#E0E0E0" />
        <path d="M115.637 118.07L182.879 118.07V117.121L115.637 117.121V118.07Z"
              fill="#E0E0E0" />
        <path d="M115.637 128.189H182.879V127.24L115.637 127.24V128.189Z"
              fill="#E0E0E0" />
        <path d="M115.637 138.299H182.879V137.35H115.637V138.299Z"
              fill="#E0E0E0" />
        <path d="M115.637 148.425H182.879V147.476H115.637V148.425Z"
              fill="#E0E0E0" />
        <path d="M115.637 158.542H182.879V157.593H115.637V158.542Z"
              fill="#E0E0E0" />
        <path d="M115.637 168.661H182.879V167.712H115.637V168.661Z"
              fill="#E0E0E0" />
        <path d="M115.637 178.778H182.879V177.829H115.637V178.778Z"
              fill="#E0E0E0" />
        <path d="M115.637 188.906H182.879V187.957H115.637V188.906Z"
              fill="#E0E0E0" />
        <path d="M115.637 199.024H182.879V198.075H115.637V199.024Z"
              fill="#E0E0E0" />
        <path d="M115.637 209.143H182.879V208.194H115.637V209.143Z"
              fill="#E0E0E0" />
        <path d="M115.637 219.251H182.879V218.302H115.637V219.251Z"
              fill="#E0E0E0" />
        <path d="M115.637 229.379H182.879V228.43H115.637V229.379Z"
              fill="#E0E0E0" />
        <path d="M115.637 239.497H182.879V238.547H115.637V239.497Z"
              fill="#E0E0E0" />
        <path d="M99.2896 52.1001H68.0454V277.445H99.2896V52.1001Z"
              fill="#F0F0F0" />
        <path d="M99.2896 52.0995H68.0454L79.5448 32.2021H124.288L99.2896 52.0995Z"
              fill="#FAFAFA" />
        <path d="M99.2896 52.0995L124.288 32.2021V277.444H99.2896V52.0995Z"
              fill="#EBEBEB" />
        <path d="M124.288 62.5981H68.0454V63.8015H124.288V62.5981Z"
              fill="#E0E0E0" />
        <path d="M124.288 75.3525H68.0454V76.5559H124.288V75.3525Z"
              fill="#E0E0E0" />
        <path d="M124.288 88.106H68.0454V89.3093H124.288V88.106Z"
              fill="#E0E0E0" />
        <path d="M124.288 100.867H68.0454V102.071H124.288V100.867Z"
              fill="#E0E0E0" />
        <path d="M124.288 113.622H68.0454V114.825H124.288V113.622Z"
              fill="#E0E0E0" />
        <path d="M124.288 126.375H68.0454V127.579H124.288V126.375Z"
              fill="#E0E0E0" />
        <path d="M124.288 139.129H68.0454V140.332H124.288V139.129Z"
              fill="#E0E0E0" />
        <path d="M124.288 151.882H68.0454V153.086H124.288V151.882Z"
              fill="#E0E0E0" />
        <path d="M124.288 164.635H68.0454V165.839H124.288V164.635Z"
              fill="#E0E0E0" />
        <path d="M124.288 177.398H68.0454V178.601H124.288V177.398Z"
              fill="#E0E0E0" />
        <path d="M124.288 190.152H68.0454V191.355H124.288V190.152Z"
              fill="#E0E0E0" />
        <path d="M124.288 202.904H68.0454V204.108H124.288V202.904Z"
              fill="#E0E0E0" />
        <path d="M124.288 215.66H68.0454V216.863H124.288V215.66Z"
              fill="#E0E0E0" />
        <path d="M124.288 228.412H68.0454V229.615H124.288V228.412Z"
              fill="#E0E0E0" />
        <path d="M124.288 241.167H68.0454V242.37H124.288V241.167Z"
              fill="#E0E0E0" />
        <path d="M62.6217 161.144H28.5132V277.443H62.6217V161.144Z"
              fill="#F0F0F0" />
        <path d="M40.6994 167.153H35.2251V185.822H40.6994V167.153Z"
              fill="#E6E6E6" />
        <path d="M54.1315 167.153H48.6572V185.822H54.1315V167.153Z"
              fill="#E6E6E6" />
        <path d="M40.6994 191.33H35.2251V209.999H40.6994V191.33Z"
              fill="#E6E6E6" />
        <path d="M54.1315 191.33H48.6572V209.999H54.1315V191.33Z"
              fill="#E6E6E6" />
        <path d="M40.6994 215.497H35.2251V234.166H40.6994V215.497Z"
              fill="#E6E6E6" />
        <path d="M54.1315 215.497H48.6572V234.166H54.1315V215.497Z"
              fill="#E6E6E6" />
        <path d="M40.6994 239.675H35.2251V258.343H40.6994V239.675Z"
              fill="#E6E6E6" />
        <path d="M54.1315 239.675H48.6572V258.343H54.1315V239.675Z"
              fill="#E6E6E6" />
        <path d="M62.6132 161.145H28.5132L36.5128 153.086H70.6213L62.6132 161.145Z"
              fill="white" />
        <path d="M62.6133 161.145L70.6214 153.086L78.621 161.145V277.445H62.6133V161.145Z"
              fill="#E6E6E6" />
        <path d="M203.082 41.5928C203.086 40.4494 202.822 39.3209 202.311 38.2978C201.801 37.2747 201.058 36.3853 200.142 35.701C199.226 35.0166 198.162 34.5562 197.036 34.3567C195.91 34.1572 194.753 34.2242 193.658 34.5522C194.008 32.1124 193.771 29.6243 192.967 27.2944C192.163 24.9644 190.815 22.8598 189.035 21.1551C187.255 19.4504 185.094 18.1948 182.731 17.4924C180.369 16.7901 177.873 16.6613 175.45 17.1166C173.922 14.6055 171.619 12.6594 168.888 11.5719C166.157 10.4843 163.147 10.3143 160.311 11.0875C157.475 11.8607 154.967 13.5351 153.166 15.8582C151.365 18.1813 150.369 21.0271 150.327 23.9663H150.102C146.791 23.9663 143.614 25.2819 141.273 27.6237C138.931 29.9655 137.615 33.1417 137.615 36.4535C137.615 39.7653 138.931 42.9415 141.273 45.2833C143.614 47.6251 146.791 48.9407 150.102 48.9407H195.95C197.863 48.8908 199.68 48.0939 201.013 46.7206C202.346 45.3472 203.089 43.5067 203.082 41.5928Z"
              fill="white" />
        <path d="M41.006 60.7859C41.0039 60.0269 40.7014 59.2996 40.1647 58.7629C39.6279 58.2262 38.9006 57.9237 38.1416 57.9215C37.8604 57.9236 37.5808 57.9656 37.3114 58.0461C37.3544 57.7547 37.3766 57.4605 37.3778 57.166C37.3778 56.3693 37.2207 55.5805 36.9156 54.8446C36.6105 54.1087 36.1633 53.4402 35.5996 52.8773C35.036 52.3144 34.3668 51.8681 33.6305 51.564C32.8942 51.2599 32.1052 51.104 31.3086 51.105C30.9355 51.1045 30.5631 51.1378 30.196 51.2047C29.5964 50.2246 28.6949 49.4657 27.627 49.042C26.559 48.6182 25.3824 48.5526 24.274 48.855C23.1656 49.1574 22.1853 49.8114 21.4805 50.7187C20.7757 51.6261 20.3845 52.7377 20.3657 53.8864H20.2826C19.624 53.8593 18.9667 53.9656 18.3503 54.1989C17.7338 54.4322 17.1708 54.7877 16.6952 55.2441C16.2196 55.7005 15.8412 56.2483 15.5827 56.8547C15.3242 57.461 15.1909 58.1134 15.1909 58.7725C15.1909 59.4317 15.3242 60.0841 15.5827 60.6904C15.8412 61.2968 16.2196 61.8446 16.6952 62.301C17.1708 62.7574 17.7338 63.1129 18.3503 63.3462C18.9667 63.5795 19.624 63.6858 20.2826 63.6586H38.2164C38.9652 63.6412 39.6772 63.3304 40.199 62.7931C40.7208 62.2557 41.0106 61.5349 41.006 60.7859Z"
              fill="white" />
    </g>
</svg>
