<svg width="16" height="16" viewBox="0 0 16 16" fill="none" xmlns="http://www.w3.org/2000/svg">
<path d="M11.7566 1.36415L13.1033 1.51378C14.033 1.61708 14.7477 2.36095 14.5937 3.28361C14.3171 4.94113 13.3959 7.70215 10.4509 10.6472C7.5059 13.5921 4.74456 14.5137 3.08676 14.7906C2.16396 14.9448 1.41984 14.23 1.31652 13.3001L1.16693 11.9538C1.07886 11.1612 1.47013 10.392 2.16263 9.99638L3.13169 9.44279C3.83483 9.0411 4.71982 9.15967 5.29242 9.73228C5.71702 10.1569 6.3307 10.3361 6.86076 10.054C7.31898 9.81008 7.91717 9.40961 8.56478 8.762C9.21239 8.11438 9.61287 7.5162 9.85675 7.05798C10.1389 6.52791 9.95966 5.91424 9.53506 5.48964C8.96246 4.91703 8.84389 4.03205 9.24557 3.3289L9.79916 2.35985C10.1948 1.66735 10.964 1.27608 11.7566 1.36415Z" stroke="#FCFCFC" stroke-width="2" stroke-linecap="round" stroke-linejoin="round"/>
</svg>
