<svg width="44" height="44" viewBox="0 0 44 44" fill="none" xmlns="http://www.w3.org/2000/svg">
<path d="M19.713 33.0466C19.713 32.7266 19.653 32.3966 19.613 32.0466C19.6083 32.0269 19.6083 32.0063 19.613 31.9866C14.533 32.5566 9.96301 29.1266 9.94301 23.5766C9.96928 20.6945 10.4693 17.8364 11.423 15.1166V15.0666C11.9776 13.4716 12.7124 11.945 13.613 10.5166C12.823 9.2566 13.253 7.5166 15.553 5.0166C15.6234 3.93809 15.9902 2.89995 16.613 2.0166C15.7739 2.11154 14.9484 2.30279 14.153 2.58659C7.30302 5.10659 10.883 15.1166 5.84302 19.3366C0.803022 23.5566 -1.20697 29.7766 0.723027 34.7166C2.30945 35.8292 4.11724 36.5864 6.02302 36.9366C5.89953 34.8987 6.02716 32.8533 6.40302 30.8466C6.40302 30.8466 6.73303 35.1666 8.22303 37.3466C10.0492 37.6053 11.8891 37.7555 13.733 37.7966C13.782 37.244 13.8723 36.6958 14.003 36.1566C14.1214 36.7294 14.306 37.2864 14.553 37.8166L17.633 37.8766C18.3941 37.3442 18.9919 36.6103 19.3593 35.7571C19.7267 34.904 19.8492 33.9654 19.713 33.0466Z" fill="#263238"/>
<path d="M32.1536 19.9566C32.4346 20.1382 32.6738 20.3772 32.8557 20.658C33.0377 20.9387 33.1581 21.2548 33.2091 21.5854C33.2601 21.916 33.2405 22.2536 33.1517 22.5761C33.0629 22.8987 32.9067 23.1987 32.6936 23.4566C31.867 24.6132 30.6354 25.4165 29.2436 25.7066C29.094 25.7205 28.9433 25.7205 28.7936 25.7066C28.3118 26.5697 27.7239 27.3693 27.0436 28.0866C26.6636 31.5566 26.6936 35.3766 28.0436 37.6066C30.9557 37.3488 33.8282 36.7549 36.6036 35.8366C40.5336 29.2466 35.2536 25.7066 34.4036 22.3266C33.2736 17.9066 35.9237 16.3266 36.5037 12.5766C36.8937 10.1066 35.2236 7.50656 31.6636 7.62656C31.9338 8.48866 32.0852 9.38357 32.1137 10.2866C34.4237 10.8666 34.2436 15.6266 32.1536 19.9566Z" fill="#263238"/>
<path d="M2.15332 43.7263H2.71332C3.08179 42.9505 3.59811 42.2542 4.23332 41.6763C3.47042 42.2852 2.77329 42.9723 2.15332 43.7263Z" fill="#407BFF"/>
<path d="M4.61305 41.3663C4.52879 41.424 4.4486 41.4875 4.37305 41.5563C4.53636 41.4209 4.70658 41.294 4.88304 41.1763C4.78845 41.2328 4.69821 41.2963 4.61305 41.3663Z" fill="#407BFF"/>
<path d="M15.3129 38.9365C12.4229 39.2865 9.31289 39.8365 6.96289 40.3065C6.21894 40.4564 5.51202 40.7521 4.88289 41.1765C4.70643 41.2943 4.5362 41.4211 4.37289 41.5565L4.23289 41.6765C3.59768 42.2545 3.08136 42.9508 2.71289 43.7265H9.57289C10.6929 40.1865 15.3129 38.9365 15.3129 38.9365Z" fill="#407BFF"/>
<path d="M35.5835 39.0464C33.5835 38.8264 31.2336 38.6364 28.7236 38.5864C28.7236 38.5864 29.8336 40.1764 28.3936 43.7464H31.3035C31.3235 40.9264 32.3935 38.8564 35.5835 39.0464Z" fill="#407BFF"/>
<path d="M15.3132 38.9365C15.3132 38.9365 10.6932 40.1865 9.57324 43.7265H15.2132C14.7271 42.1611 14.7622 40.4803 15.3132 38.9365Z" fill="white"/>
<path d="M28.7237 38.5664C26.711 40.5427 24.4722 42.2746 22.0537 43.7264H28.3937C29.8337 40.1564 28.7237 38.5664 28.7237 38.5664Z" fill="white"/>
<path d="M19.6031 32.0464C19.5984 32.0661 19.5984 32.0867 19.6031 32.1064C19.5984 32.0867 19.5984 32.0661 19.6031 32.0464Z" fill="#B55B52"/>
<path d="M28.7229 38.5665C28.4491 38.2904 28.2105 37.9814 28.0129 37.6465C26.6429 35.4165 26.6129 31.6465 27.0129 28.1265C26.2867 28.877 25.4821 29.5475 24.6129 30.1265C24.2046 30.4071 23.7806 30.6642 23.3429 30.8965C22.4069 32.0014 21.1478 32.7849 19.7429 33.1365C19.7429 33.1365 19.7429 33.1365 19.7429 33.0765C19.885 34 19.7654 34.9448 19.3977 35.8038C19.0301 36.6628 18.4291 37.4016 17.6629 37.9365C16.9521 38.3993 16.1675 38.7375 15.3429 38.9365C14.7919 40.4802 14.7568 42.1611 15.2429 43.7265H22.0829C24.4909 42.2727 26.7196 40.5409 28.7229 38.5665Z" fill="#D59775"/>
<path d="M19.7133 33.0464C19.7133 32.7164 19.6633 32.3964 19.6133 32.0464C19.6533 32.4264 19.6933 32.7564 19.7133 33.0464Z" fill="#263238"/>
<path opacity="0.2" d="M19.7133 33.0464C19.7133 32.7164 19.6633 32.3964 19.6133 32.0464C19.6533 32.4264 19.6933 32.7564 19.7133 33.0464Z" fill="black"/>
<path d="M19.6138 32.0965C19.6138 32.4265 19.6937 32.7465 19.7137 33.0965C19.7137 33.0965 19.7137 33.0965 19.7137 33.1565C21.1186 32.8049 22.3777 32.0215 23.3138 30.9165C22.1526 31.5175 20.8923 31.9038 19.5938 32.0565C19.5981 32.0709 19.6048 32.0844 19.6138 32.0965Z" fill="#B55B52"/>
<path d="M19.6138 32.0965C19.6138 32.4265 19.6937 32.7465 19.7137 33.0965C19.7137 33.0965 19.7137 33.0965 19.7137 33.1565C21.1186 32.8049 22.3777 32.0215 23.3138 30.9165C22.1526 31.5175 20.8923 31.9038 19.5938 32.0565C19.5981 32.0709 19.6048 32.0844 19.6138 32.0965Z" fill="#BB744C"/>
<path d="M27.3931 22.7764C27.7658 21.9361 28.3149 21.1858 29.0031 20.5764C27.0531 18.8864 26.3431 15.5264 28.5531 12.4864C22.2131 13.4864 15.2631 13.2064 13.6131 10.5864C12.7125 12.0149 11.9777 13.5414 11.4231 15.1364L12.6731 15.7664C12.8292 15.8974 12.9416 16.0729 12.9953 16.2695C13.0489 16.4661 13.0412 16.6744 12.9731 16.8664C12.8331 17.4364 12.4231 17.8664 12.0531 17.7864C11.6831 17.7064 11.4831 17.1964 11.6131 16.6164C11.6798 16.3222 11.8372 16.0564 12.0631 15.8564C11.7753 15.707 11.5515 15.4583 11.4331 15.1564C10.4794 17.8762 9.97939 20.7344 9.95312 23.6164C9.95313 29.1664 14.5431 32.6164 19.6231 32.0264C20.9217 31.8737 22.1819 31.4875 23.3431 30.8864C23.7808 30.6542 24.2048 30.3971 24.6131 30.1164C25.4823 29.5375 26.2869 28.867 27.0131 28.1164C27.6934 27.3991 28.2813 26.5996 28.7631 25.7364C27.2631 25.7564 26.7431 24.2664 27.3931 22.7764ZM20.9831 14.7764C21.5192 14.761 22.0509 14.8769 22.5319 15.1139C23.0129 15.3509 23.4287 15.702 23.7431 16.1364C23.7812 16.1928 23.8025 16.2588 23.8046 16.3268C23.8066 16.3948 23.7894 16.462 23.7549 16.5206C23.7203 16.5792 23.6699 16.6268 23.6094 16.6579C23.5489 16.689 23.4809 16.7024 23.4131 16.6964C23.3663 16.6925 23.3208 16.6789 23.2795 16.6566C23.2382 16.6342 23.202 16.6035 23.1731 16.5664C22.9285 16.22 22.6029 15.9387 22.2247 15.747C21.8465 15.5552 21.4271 15.4589 21.0031 15.4664C20.9598 15.4691 20.9163 15.4633 20.8752 15.4491C20.8342 15.435 20.7963 15.4129 20.7637 15.3841C20.7312 15.3553 20.7047 15.3204 20.6857 15.2813C20.6668 15.2422 20.6557 15.1998 20.6531 15.1564C20.6474 15.0615 20.6786 14.968 20.74 14.8953C20.8015 14.8227 20.8885 14.7765 20.9831 14.7664V14.7764ZM19.9831 17.0864C20.1373 17.2166 20.2484 17.3904 20.3019 17.585C20.3555 17.7795 20.3489 17.9857 20.2831 18.1764C20.1531 18.7564 19.7431 19.1764 19.3731 19.0964C19.0031 19.0164 18.8031 18.5064 18.9331 17.9364C18.9972 17.6412 19.155 17.3746 19.3831 17.1764C19.085 17.0107 18.8548 16.7451 18.7331 16.4264L19.9831 17.0864ZM12.3231 14.3864C12.2791 14.4063 12.2314 14.4166 12.1831 14.4166C12.1348 14.4166 12.0871 14.4063 12.0431 14.3864C11.9772 14.3628 11.9202 14.3193 11.8799 14.2621C11.8396 14.2048 11.818 14.1365 11.818 14.0664C11.818 13.9964 11.8396 13.9281 11.8799 13.8708C11.9202 13.8135 11.9772 13.7701 12.0431 13.7464C12.5272 13.4916 13.0661 13.3584 13.6131 13.3584C14.1602 13.3584 14.699 13.4916 15.1831 13.7464C15.2208 13.7706 15.2532 13.8022 15.2782 13.8393C15.3033 13.8764 15.3206 13.9181 15.329 13.9621C15.3374 14.0061 15.3368 14.0513 15.3272 14.095C15.3176 14.1387 15.2992 14.18 15.2731 14.2164C15.222 14.2922 15.1448 14.3463 15.0561 14.3685C14.9675 14.3906 14.8738 14.3792 14.7931 14.3364C14.4102 14.1445 13.9865 14.048 13.5582 14.0549C13.1299 14.0619 12.7096 14.1722 12.3331 14.3764L12.3231 14.3864ZM12.2131 21.2164C13.3149 20.2459 14.2863 19.1366 15.1031 17.9164L14.1031 21.9764C13.7525 21.9934 13.4025 21.9332 13.0776 21.8002C12.7528 21.6671 12.4611 21.4645 12.2231 21.2064L12.2131 21.2164ZM13.3431 23.9564C16.1004 23.277 18.9 22.7826 21.7231 22.4764C21.7231 22.4764 22.0831 24.4764 18.9431 25.1864C15.8031 25.8964 14.2931 25.1164 13.3531 23.9464L13.3431 23.9564Z" fill="#D59775"/>
<path d="M13.613 10.5866C15.263 13.2066 22.213 13.4866 28.553 12.4866C29.1204 11.7275 29.7939 11.054 30.553 10.4866C31.0435 10.284 31.584 10.2352 32.103 10.3466C32.0746 9.44358 31.9232 8.54867 31.653 7.68657C29.433 0.556569 19.883 -2.31343 16.653 2.09657C16.0302 2.97992 15.6634 4.01806 15.593 5.09657C13.253 7.53657 12.823 9.32656 13.613 10.5866Z" fill="#263238"/>
<path d="M29.0033 20.5764C29.3208 20.25 29.7109 20.0029 30.1417 19.8552C30.5726 19.7075 31.0322 19.6634 31.4833 19.7264C31.6995 19.7742 31.9081 19.8517 32.1033 19.9564C34.2433 15.6264 34.4233 10.8664 32.1033 10.3264C31.5843 10.215 31.0438 10.2639 30.5532 10.4664C29.7942 11.0338 29.1207 11.7074 28.5532 12.4664C26.3432 15.5264 27.0533 18.8864 29.0033 20.5764Z" fill="#263238"/>
<path d="M21.7335 22.4663C18.9103 22.7725 16.1108 23.2669 13.3535 23.9463C14.2935 25.1163 15.8135 25.8963 18.9535 25.1763C22.0935 24.4563 21.7335 22.4663 21.7335 22.4663Z" fill="white"/>
<path d="M19.3629 17.1764C19.1348 17.3746 18.9769 17.6412 18.9128 17.9364C18.7828 18.5064 18.9728 19.0364 19.3528 19.0964C19.7328 19.1564 20.1328 18.7564 20.2628 18.1764C20.3286 17.9857 20.3352 17.7795 20.2817 17.585C20.2281 17.3904 20.117 17.2166 19.9628 17.0864C19.8777 17.1491 19.7786 17.1901 19.674 17.2057C19.5694 17.2214 19.4626 17.2114 19.3629 17.1764Z" fill="#263238"/>
<path d="M12.0435 15.8664C11.8176 16.0663 11.6602 16.3322 11.5935 16.6264C11.4635 17.2064 11.6535 17.7264 12.0335 17.7964C12.4135 17.8664 12.8135 17.4464 12.9535 16.8764C13.0215 16.6843 13.0292 16.476 12.9756 16.2794C12.922 16.0828 12.8096 15.9073 12.6535 15.7764C12.5676 15.8415 12.4667 15.8839 12.3601 15.8997C12.2534 15.9154 12.1445 15.904 12.0435 15.8664Z" fill="#263238"/>
<path d="M12.0433 15.8665C12.1443 15.9041 12.2532 15.9155 12.3599 15.8998C12.4665 15.884 12.5674 15.8416 12.6533 15.7765L11.4033 15.1465V15.1965C11.5302 15.4888 11.7571 15.7264 12.0433 15.8665Z" fill="#263238"/>
<path d="M14.1537 21.9662L15.1537 17.9062C14.3369 19.1264 13.3655 20.2357 12.2637 21.2063C12.5037 21.4638 12.7974 21.6654 13.124 21.7967C13.4507 21.9281 13.8022 21.9859 14.1537 21.9662Z" fill="#BB744C"/>
<path d="M29.0037 20.5763C28.3155 21.1858 27.7664 21.9361 27.3937 22.7763C26.7437 24.2663 27.2637 25.7763 28.7437 25.7763C28.8933 25.7903 29.044 25.7903 29.1937 25.7763C30.5854 25.4862 31.8171 24.683 32.6437 23.5263C32.8568 23.2685 33.0129 22.9685 33.1017 22.6459C33.1906 22.3234 33.2101 21.9858 33.1591 21.6552C33.1081 21.3246 32.9877 21.0085 32.8058 20.7278C32.6239 20.447 32.3846 20.208 32.1037 20.0263C31.9086 19.9216 31.6999 19.8442 31.4837 19.7964C31.0381 19.7244 30.5819 19.7575 30.1514 19.8929C29.7208 20.0283 29.3278 20.2623 29.0037 20.5763Z" fill="#D59775"/>
<path d="M21.0035 15.4565C21.4275 15.449 21.8469 15.5453 22.2251 15.737C22.6033 15.9288 22.9289 16.2101 23.1735 16.5565C23.2024 16.5936 23.2386 16.6243 23.2799 16.6466C23.3212 16.669 23.3667 16.6826 23.4135 16.6865C23.4813 16.6925 23.5493 16.6791 23.6098 16.648C23.6703 16.6169 23.7207 16.5693 23.7553 16.5107C23.7898 16.4521 23.807 16.3849 23.8049 16.3169C23.8029 16.2489 23.7816 16.1829 23.7435 16.1265C23.4291 15.692 23.0133 15.341 22.5323 15.104C22.0513 14.8669 21.5196 14.7511 20.9835 14.7665C20.8907 14.7765 20.8052 14.8213 20.744 14.8917C20.6828 14.9622 20.6505 15.0532 20.6535 15.1465C20.6561 15.1899 20.6672 15.2323 20.6861 15.2714C20.7051 15.3104 20.7316 15.3454 20.7641 15.3742C20.7967 15.403 20.8346 15.4251 20.8756 15.4392C20.9167 15.4533 20.9602 15.4592 21.0035 15.4565Z" fill="#263238"/>
<path d="M14.813 14.3565C14.8937 14.3993 14.9874 14.4107 15.076 14.3885C15.1646 14.3663 15.2419 14.3122 15.293 14.2365C15.3191 14.2001 15.3375 14.1588 15.3471 14.1151C15.3567 14.0713 15.3573 14.0261 15.3489 13.9822C15.3405 13.9382 15.3232 13.8964 15.2981 13.8593C15.273 13.8222 15.2407 13.7907 15.203 13.7665C14.7189 13.5116 14.1801 13.3784 13.633 13.3784C13.0859 13.3784 12.5471 13.5116 12.063 13.7665C11.9971 13.7901 11.9401 13.8336 11.8998 13.8909C11.8595 13.9481 11.8379 14.0164 11.8379 14.0865C11.8379 14.1565 11.8595 14.2248 11.8998 14.2821C11.9401 14.3394 11.9971 14.3828 12.063 14.4065C12.107 14.4264 12.1547 14.4366 12.203 14.4366C12.2513 14.4366 12.299 14.4264 12.343 14.4065C12.72 14.199 13.1416 14.086 13.5718 14.0773C14.002 14.0686 14.428 14.1644 14.813 14.3565Z" fill="#263238"/>
<path d="M19.3636 17.1765C19.4634 17.2115 19.5702 17.2215 19.6747 17.2058C19.7793 17.1901 19.8784 17.1492 19.9636 17.0865L18.6836 16.4365C18.8148 16.7564 19.056 17.0188 19.3636 17.1765Z" fill="#263238"/>
<path d="M35.6237 39.0464C32.4337 38.8764 31.3637 40.9464 31.3438 43.7464H43.1237C42.4454 42.3344 41.3809 41.1435 40.0535 40.3117C38.7261 39.4799 37.1902 39.0412 35.6237 39.0464Z" fill="#407BFF"/>
</svg>
