<svg width="48" height="42" viewBox="0 0 48 42" fill="none" xmlns="http://www.w3.org/2000/svg">
<mask id="mask0" mask-type="alpha" maskUnits="userSpaceOnUse" x="0" y="0" width="48" height="42">
<rect width="48" height="42" fill="#C4C4C4"/>
</mask>
<g mask="url(#mask0)">
<path d="M32.112 19.4295C34.7294 19.4295 36.85 17.2803 36.85 14.6298C36.85 11.9783 34.7294 9.83008 32.112 9.83008C29.5191 9.83008 27.4166 11.9401 27.3774 14.5573C28.8714 15.5064 29.9189 17.1116 30.11 18.9749C30.7185 19.2637 31.3952 19.4295 32.112 19.4295Z" fill="#52627A"/>
<path d="M15.9572 9.82959C13.3393 9.82959 11.2188 11.9783 11.2188 14.6293C11.2188 17.2803 13.3393 19.4285 15.9572 19.4285C16.8842 19.4285 17.7461 19.154 18.4771 18.688C18.7099 17.1538 19.5217 15.8121 20.6815 14.8988C20.6864 14.809 20.6947 14.7201 20.6947 14.6293C20.6947 11.9783 18.5732 9.82959 15.9572 9.82959Z" fill="#52627A"/>
<path d="M35.1919 9.72675C36.6858 10.6758 37.7334 12.281 37.924 14.1448C38.532 14.4332 39.2091 14.5994 39.926 14.5994C42.5434 14.5994 44.664 12.4507 44.664 9.79972C44.664 7.1487 42.5434 5 39.926 5C37.3335 4.9995 35.2311 7.10999 35.1919 9.72675Z" fill="#52627A"/>
<path d="M24.2736 24.385C26.8906 24.385 29.0121 22.2358 29.0121 19.5848C29.0121 16.9337 26.8906 14.7845 24.2736 14.7845C21.6566 14.7845 19.5352 16.9337 19.5352 19.5848C19.5352 22.2358 21.6566 24.385 24.2736 24.385Z" fill="#52627A"/>
<path d="M34.1205 19.7559H30.1302C30.0866 21.373 29.4056 22.8293 28.3276 23.8761C31.3008 24.7725 33.4767 27.566 33.4767 30.8657V32.4004C37.4161 32.253 39.6866 31.1233 39.836 31.0459L40.1525 30.8831H40.1853V25.9017C40.1863 22.5126 37.465 19.7559 34.1205 19.7559Z" fill="#52627A"/>
<path d="M41.934 14.9266H37.9447C37.9016 16.5437 37.22 18 36.1426 19.0468C39.1157 19.9433 41.2912 22.7362 41.2912 26.036V27.5707C45.23 27.4238 47.501 26.2941 47.6505 26.2161L47.967 26.0538H48.0008V21.0725C48.0008 17.6839 45.2795 14.9266 41.934 14.9266Z" fill="#52627A"/>
<path d="M20.2153 23.8761C19.1428 22.8342 18.4637 21.3859 18.4137 19.7792C18.2662 19.7683 18.1197 19.7559 17.9688 19.7559H13.9496C10.6041 19.7559 7.88232 22.5131 7.88232 25.9022V30.8841L7.89457 30.961L8.23314 31.0692C10.7942 31.8797 13.0804 32.252 15.0653 32.3701V30.8657C15.0662 27.5664 17.2412 24.773 20.2153 23.8761Z" fill="#52627A"/>
<path d="M26.2823 24.7117H22.2616C18.9161 24.7117 16.1943 27.4699 16.1943 30.8575V35.8394L16.2071 35.9173L16.5452 36.0245C19.7378 37.0346 22.5115 37.3721 24.7938 37.3721C29.253 37.3721 31.837 36.0841 31.9968 36.0022L32.3133 35.8394H32.3466V30.8575C32.3481 27.4689 29.6268 24.7117 26.2823 24.7117Z" fill="#52627A"/>
<path d="M8.07881 14.7535C8.79563 14.7535 9.47228 14.5872 10.0808 14.2988C10.2719 12.435 11.319 10.8293 12.8129 9.88032C12.7737 7.26405 10.6712 5.15356 8.07881 5.15356C5.46091 5.15356 3.34033 7.30227 3.34033 9.95378C3.34033 12.6048 5.46091 14.7535 8.07881 14.7535Z" fill="#52627A"/>
<path d="M11.8582 19.2009C10.7813 18.1541 10.0997 16.6973 10.0566 15.0797H6.06678C2.72128 15.0802 0 17.8374 0 21.226V26.2079H0.0338078L0.350327 26.3702C0.500257 26.4467 2.77028 27.5778 6.70962 27.7243V26.1895C6.70962 22.8903 8.88459 20.0968 11.8582 19.2009Z" fill="#52627A"/>
</g>
</svg>
