<svg width="56" height="56" viewBox="0 0 56 56" fill="none" xmlns="http://www.w3.org/2000/svg">
<path d="M46.7466 9.20777e-06H8.12634C4.92811 9.20777e-06 2.33331 2.5948 2.33331 5.79304V11.5861C2.33331 13.0607 2.89527 14.4788 3.90602 15.5537L17.7813 30.297V50.2067C17.7813 52.4016 19.0222 54.4081 20.9833 55.3887C22.9444 56.3693 25.2941 56.1581 27.0517 54.8419L34.7757 49.0488C36.2315 47.9551 37.0914 46.2352 37.0914 44.4136V30.297L50.9667 15.5537C51.9775 14.4788 52.5394 13.0608 52.5394 11.5861V5.79303C52.5394 2.59479 49.9446 0 46.7464 0L46.7466 9.20777e-06ZM46.7466 11.5861L31.2985 27.9997V44.4132L23.5744 50.2063V27.9997L8.12634 11.5861V5.79304H46.7466V11.5861Z" fill="#9EA3AC"/>
</svg>
