<svg width="24" height="24" viewBox="0 0 24 24" fill="none"
     xmlns="http://www.w3.org/2000/svg">
    <path d="M23.3786 4.605C23.3786 3.12662 22.202 1.95 20.7236 1.95C19.2452 1.95 18.0686 3.12662 18.0686 4.605C18.0686 5.80586 18.8493 6.78425 19.9293 7.13466V11.6258H12.9586V7.13465C14.0386 6.78424 14.8193 5.80586 14.8193 4.605C14.8193 3.12662 13.6427 1.95 12.1643 1.95C10.6859 1.95 9.50929 3.12662 9.50929 4.605C9.50929 5.80586 10.29 6.78425 11.37 7.13466V11.6258H4.39929V7.13465C5.47928 6.78424 6.26 5.80586 6.26 4.605C6.26 3.12662 5.08338 1.95 3.605 1.95C2.12662 1.95 0.95 3.12662 0.95 4.605C0.95 5.80586 1.73072 6.78425 2.81071 7.13466V17.7055C1.73072 18.0559 0.95 19.0343 0.95 20.2352C0.95 21.7135 2.12662 22.8902 3.605 22.8902C5.08338 22.8902 6.26 21.7135 6.26 20.2352C6.26 19.0343 5.47928 18.0559 4.39929 17.7055V13.2144H11.37V17.7055C10.29 18.0559 9.50929 19.0343 9.50929 20.2352C9.50929 21.7135 10.6859 22.8902 12.1643 22.8902C13.6427 22.8902 14.8193 21.7135 14.8193 20.2352C14.8193 19.0343 14.0386 18.0559 12.9586 17.7055V13.2144H20.7236C21.1611 13.2144 21.5179 12.8576 21.5179 12.4201V7.13582C22.5994 6.81933 23.3786 5.80423 23.3786 4.605ZM11.0979 4.605C11.0979 4.03553 11.5606 3.53857 12.1643 3.53857C12.7338 3.53857 13.2307 4.00132 13.2307 4.605C13.2307 5.17447 12.768 5.67143 12.1643 5.67143C11.5948 5.67143 11.0979 5.20868 11.0979 4.605ZM2.53857 4.605C2.53857 4.03553 3.00132 3.53857 3.605 3.53857C4.17447 3.53857 4.67143 4.00132 4.67143 4.605C4.67143 5.17447 4.20868 5.67143 3.605 5.67143C3.00027 5.67143 2.53857 5.20973 2.53857 4.605ZM4.67143 20.235C4.67143 20.8045 4.20868 21.3014 3.605 21.3014C3.03553 21.3014 2.53857 20.8387 2.53857 20.235C2.53857 19.6303 3.00027 19.1686 3.605 19.1686C4.17447 19.1686 4.67143 19.6313 4.67143 20.235ZM13.2307 20.235C13.2307 20.8045 12.768 21.3014 12.1643 21.3014C11.5948 21.3014 11.0979 20.8387 11.0979 20.235C11.0979 19.6303 11.5596 19.1686 12.1643 19.1686C12.7338 19.1686 13.2307 19.6313 13.2307 20.235ZM20.7236 5.67143C20.1541 5.67143 19.6571 5.20868 19.6571 4.605C19.6571 4.03553 20.1199 3.53857 20.7236 3.53857C21.3283 3.53857 21.79 4.00027 21.79 4.605C21.79 5.20973 21.3283 5.67143 20.7236 5.67143Z"
          fill="#053565" stroke="#053565" stroke-width="0.1" />
</svg>
