<svg width="95" height="48" viewBox="0 0 95 48" fill="none" xmlns="http://www.w3.org/2000/svg">
<path d="M72.7883 46.1936C72.3346 46.1939 71.8868 46.0918 71.4781 45.8949C70.7481 45.5447 70.1869 44.9193 69.9175 44.1557C69.6481 43.3922 69.6927 42.553 70.0414 41.8222L78.4864 24.1697C78.7587 23.6008 79.1863 23.1204 79.72 22.7842C80.2536 22.448 80.8715 22.2695 81.5023 22.2695C82.133 22.2695 82.7509 22.448 83.2846 22.7842C83.8182 23.1204 84.2459 23.6008 84.5182 24.1697L92.9632 41.8222C93.3118 42.553 93.3564 43.3922 93.087 44.1557C92.8177 44.9193 92.2564 45.5447 91.5264 45.8949C91.1178 46.0918 90.6699 46.194 90.2163 46.1936C89.641 46.1923 89.0777 46.0296 88.5902 45.724C88.1028 45.4185 87.7109 44.9823 87.4589 44.4652L82.4805 34.1222C82.3921 33.9389 82.2537 33.7841 82.0813 33.6759C81.9088 33.5676 81.7094 33.5102 81.5058 33.5102C81.3022 33.5102 81.1027 33.5676 80.9303 33.6759C80.7579 33.7841 80.6195 33.9389 80.531 34.1222L75.5526 44.4652C75.3003 44.9835 74.9073 45.4205 74.4185 45.7261C73.9297 46.0318 73.3648 46.1938 72.7883 46.1936Z" fill="#2F415E"/>
<path d="M36.6238 46.1937C34.9852 46.1921 33.3641 45.8566 31.8595 45.2077C30.3549 44.5587 28.9983 43.6099 27.8726 42.4191C26.7469 41.2284 25.8757 39.8207 25.3122 38.282C24.7487 36.7433 24.5048 35.106 24.5952 33.4698C24.9376 27.1629 30.1641 22.167 36.4884 22.0972H36.657C39.1197 22.1036 41.5213 22.8643 43.5387 24.2769C45.556 25.6895 47.0922 27.6861 47.9406 29.998C48.2215 30.7691 48.3125 31.5965 48.2057 32.4102C48.0988 33.2238 47.7975 33.9997 47.327 34.6722C46.8566 35.3446 46.231 35.8937 45.5033 36.2729C44.7755 36.6522 43.9671 36.8504 43.1465 36.8508H34.6543C33.318 36.8508 32.1668 35.9468 31.9161 34.7013C31.7943 34.1094 31.8727 33.4937 32.1391 32.9512C32.4056 32.4086 32.8449 31.9701 33.3878 31.7047C33.7676 31.5232 34.1846 31.4335 34.6054 31.4427H41.8224C41.9145 31.4443 42.0053 31.4208 42.0851 31.3746C42.1648 31.3285 42.2304 31.2614 42.2748 31.1806C42.3212 31.0967 42.3443 31.0019 42.3416 30.9061C42.339 30.8103 42.3108 30.7169 42.2599 30.6356C41.6673 29.6753 40.8375 28.8836 39.8505 28.3367C38.8634 27.7897 37.7523 27.5058 36.6238 27.5123C36.3345 27.5124 36.0454 27.5305 35.7583 27.5665C32.7817 27.9446 30.3728 30.385 30.0304 33.3685C29.8932 34.5545 30.0768 35.7556 30.5622 36.8464C31.0475 37.9372 31.8167 38.8777 32.7896 39.5697C33.9034 40.3637 35.2376 40.7897 36.6055 40.7881C37.7352 40.7787 38.848 40.5126 39.8598 40.0099C40.2362 39.8283 40.5655 39.5496 40.9446 39.1863C41.4464 38.7036 42.1157 38.4341 42.8119 38.4343C42.9496 38.4348 43.0871 38.4453 43.2233 38.4657C43.6375 38.5284 44.0315 38.686 44.3745 38.9263C44.7176 39.1667 45.0004 39.4831 45.2007 39.851C45.806 40.9401 45.5457 42.3463 44.5823 43.1944C42.3826 45.1288 39.5532 46.1951 36.6238 46.1937Z" fill="#2F415E"/>
<path d="M12.0688 46.1937C8.76206 46.1937 5.65359 45.1954 3.54168 43.4564C3.08032 43.0764 2.67252 42.6357 2.32939 42.1463C1.61756 41.127 1.68394 39.9383 2.49883 39.0413C2.7568 38.7546 3.07247 38.5255 3.42513 38.3693C3.7778 38.2131 4.15951 38.1331 4.54523 38.1347C4.94254 38.1364 5.33547 38.2178 5.70075 38.374C6.24663 38.6046 6.73225 38.9723 7.16372 39.2946C8.64851 40.4056 10.605 41.0414 12.5256 41.0414C13.7781 41.0414 14.8908 40.7532 15.5013 40.2711C15.9825 39.892 16.1563 39.4937 16.0655 38.9784C15.9747 38.4631 15.0986 38.1452 14.5755 37.9513L14.5178 37.9303C13.1309 37.415 11.7474 36.9897 10.4128 36.5774C7.96725 35.8272 5.8667 35.18 4.44392 34.2245C3.58211 33.7844 2.85483 33.1202 2.33856 32.3018C1.82229 31.4833 1.53612 30.5409 1.51013 29.5736C1.46035 27.2101 2.90759 25.0144 5.48065 23.547C7.25892 22.5985 9.44069 22.0972 11.7867 22.0972C15.0934 22.0972 18.201 23.0946 20.3138 24.8344C20.7749 25.2144 21.1825 25.6551 21.5252 26.1445C22.2362 27.1647 22.1715 28.3534 21.3566 29.246C21.0986 29.5327 20.7829 29.7616 20.4302 29.9178C20.0776 30.0741 19.6959 30.1541 19.3102 30.1526C18.9126 30.1514 18.5193 30.07 18.1538 29.9133C17.6088 29.6836 17.1215 29.3185 16.6909 28.9962C15.2061 27.8853 13.2496 27.2494 11.3299 27.2494C10.0765 27.2494 8.96381 27.5368 8.3533 28.0189C7.87292 28.3979 7.69912 28.7962 7.78908 29.3115C7.87904 29.8268 8.75594 30.1448 9.27999 30.3387L9.33763 30.3605C10.7281 30.8767 12.1151 31.3029 13.4549 31.7152C15.8934 32.4654 17.9966 33.1126 19.4159 34.0655C20.2771 34.5065 21.0036 35.1714 21.5189 35.9903C22.0343 36.8092 22.3194 37.7518 22.3445 38.719C22.3942 41.0825 20.947 43.2782 18.3748 44.7456C16.5957 45.6958 14.4139 46.1989 12.0688 46.1989V46.1937Z" fill="#2F415E"/>
<path d="M61.8095 46.7106C61.1996 46.7111 60.6018 46.5405 60.084 46.2183C59.5662 45.8961 59.1491 45.4352 58.8801 44.8878L49.7966 26.4091C49.436 25.6358 49.3929 24.752 49.6764 23.9472C49.9599 23.1424 50.5475 22.4808 51.3131 22.1043C52.0788 21.7278 52.9615 21.6663 53.772 21.933C54.5825 22.1998 55.2561 22.7735 55.6485 23.5312L64.7337 42.0108C64.9774 42.5079 65.0907 43.0588 65.0629 43.6117C65.035 44.1646 64.867 44.7013 64.5745 45.1714C64.282 45.6414 63.8748 46.0294 63.3911 46.2986C62.9074 46.5679 62.3631 46.7097 61.8095 46.7106Z" fill="#52627A"/>
<path style="mix-blend-mode:multiply" d="M61.8095 46.7106C61.1996 46.7111 60.6018 46.5405 60.084 46.2183C59.5662 45.8961 59.1491 45.4352 58.8801 44.8878L49.7966 26.4091C49.436 25.6358 49.3929 24.752 49.6764 23.9472C49.9599 23.1424 50.5475 22.4808 51.3131 22.1043C52.0788 21.7278 52.9615 21.6663 53.772 21.933C54.5825 22.1998 55.2561 22.7735 55.6485 23.5312L64.7337 42.0108C64.9774 42.5079 65.0907 43.0588 65.0629 43.6117C65.035 44.1646 64.867 44.7013 64.5745 45.1714C64.282 45.6414 63.8748 46.0294 63.3911 46.2986C62.9074 46.5679 62.3631 46.7097 61.8095 46.7106Z" fill="url(#paint0_linear_17269_85814)"/>
<path d="M61.8069 46.7064C61.2567 46.7056 60.7156 46.5657 60.234 46.2996C59.7524 46.0336 59.3458 45.6501 59.0522 45.1847C58.7586 44.7194 58.5874 44.1874 58.5546 43.6382C58.5217 43.0889 58.6283 42.5403 58.8644 42.0433L72.1664 14.0942C72.3478 13.7033 72.6049 13.3522 72.9228 13.0612C73.2407 12.7702 73.6131 12.5451 74.0185 12.3989C74.4239 12.2527 74.8542 12.1884 75.2847 12.2095C75.7151 12.2306 76.1371 12.3368 76.5262 12.522C76.9153 12.7072 77.2639 12.9677 77.5518 13.2884C77.8397 13.6091 78.0611 13.9837 78.2033 14.3905C78.3456 14.7973 78.4058 15.2283 78.3804 15.6585C78.3551 16.0887 78.2448 16.5096 78.0558 16.897L64.7529 44.8461C64.4881 45.4031 64.0707 45.8735 63.5492 46.2028C63.0278 46.5321 62.4236 46.7067 61.8069 46.7064Z" fill="#52627A"/>
<path d="M52.0395 19.6047C51.5033 19.6043 50.9754 19.4717 50.5026 19.2187C50.0299 18.9656 49.6267 18.5999 49.329 18.154C49.0312 17.708 48.848 17.1955 48.7955 16.6619C48.743 16.1282 48.8228 15.5898 49.028 15.0944L49.1084 14.9031C50.5273 11.5663 52.7365 8.62458 55.5454 6.33163C58.3544 4.03868 61.6789 2.46328 65.2322 1.74124C68.7856 1.0192 72.4613 1.17218 75.9424 2.18701C79.4235 3.20183 82.6055 5.04804 85.2143 7.56648C85.8363 8.16725 86.1943 8.99053 86.2094 9.85521C86.2244 10.7199 85.8954 11.5551 85.2946 12.1772C84.6938 12.7993 83.8706 13.1572 83.0059 13.1723C82.1412 13.1874 81.306 12.8583 80.6839 12.2576C78.8359 10.4737 76.5817 9.16611 74.1157 8.44756C71.6498 7.72902 69.0461 7.62109 66.5291 8.13308C64.0121 8.64507 61.6575 9.76161 59.6682 11.3864C57.6789 13.0112 56.1147 15.0955 55.1104 17.4596L55.0537 17.5958C54.8059 18.191 54.3874 18.6994 53.8509 19.0569C53.3145 19.4144 52.6842 19.605 52.0395 19.6047Z" fill="#2F415E"/>
<defs>
<linearGradient id="paint0_linear_17269_85814" x1="54.7366" y1="29.0145" x2="63.179" y2="46.3613" gradientUnits="userSpaceOnUse">
<stop stop-color="white" stop-opacity="0"/>
<stop offset="0.67" stop-color="#737071" stop-opacity="0.64"/>
<stop offset="1" stop-color="#231F20"/>
</linearGradient>
</defs>
</svg>
